%TF.GenerationSoftware,KiCad,Pcbnew,(5.1.6)-1*%
%TF.CreationDate,2020-11-24T18:28:39-05:00*%
%TF.ProjectId,ColorSensingLEDStrip,436f6c6f-7253-4656-9e73-696e674c4544,v1.0*%
%TF.SameCoordinates,Original*%
%TF.FileFunction,Legend,Top*%
%TF.FilePolarity,Positive*%
%FSLAX46Y46*%
G04 Gerber Fmt 4.6, Leading zero omitted, Abs format (unit mm)*
G04 Created by KiCad (PCBNEW (5.1.6)-1) date 2020-11-24 18:28:39*
%MOMM*%
%LPD*%
G01*
G04 APERTURE LIST*
%ADD10C,0.300000*%
%ADD11C,0.150000*%
%ADD12C,0.120000*%
%ADD13C,0.100000*%
G04 APERTURE END LIST*
D10*
X94329285Y-116018571D02*
X93615000Y-116018571D01*
X93543571Y-116732857D01*
X93615000Y-116661428D01*
X93757857Y-116590000D01*
X94115000Y-116590000D01*
X94257857Y-116661428D01*
X94329285Y-116732857D01*
X94400714Y-116875714D01*
X94400714Y-117232857D01*
X94329285Y-117375714D01*
X94257857Y-117447142D01*
X94115000Y-117518571D01*
X93757857Y-117518571D01*
X93615000Y-117447142D01*
X93543571Y-117375714D01*
X94829285Y-116018571D02*
X95329285Y-117518571D01*
X95829285Y-116018571D01*
D11*
X178824285Y-100782380D02*
X178348095Y-100782380D01*
X178348095Y-99782380D01*
X179157619Y-100258571D02*
X179490952Y-100258571D01*
X179633809Y-100782380D02*
X179157619Y-100782380D01*
X179157619Y-99782380D01*
X179633809Y-99782380D01*
X180062380Y-100782380D02*
X180062380Y-99782380D01*
X180300476Y-99782380D01*
X180443333Y-99830000D01*
X180538571Y-99925238D01*
X180586190Y-100020476D01*
X180633809Y-100210952D01*
X180633809Y-100353809D01*
X180586190Y-100544285D01*
X180538571Y-100639523D01*
X180443333Y-100734761D01*
X180300476Y-100782380D01*
X180062380Y-100782380D01*
X181776666Y-100734761D02*
X181919523Y-100782380D01*
X182157619Y-100782380D01*
X182252857Y-100734761D01*
X182300476Y-100687142D01*
X182348095Y-100591904D01*
X182348095Y-100496666D01*
X182300476Y-100401428D01*
X182252857Y-100353809D01*
X182157619Y-100306190D01*
X181967142Y-100258571D01*
X181871904Y-100210952D01*
X181824285Y-100163333D01*
X181776666Y-100068095D01*
X181776666Y-99972857D01*
X181824285Y-99877619D01*
X181871904Y-99830000D01*
X181967142Y-99782380D01*
X182205238Y-99782380D01*
X182348095Y-99830000D01*
X182633809Y-100115714D02*
X183014761Y-100115714D01*
X182776666Y-99782380D02*
X182776666Y-100639523D01*
X182824285Y-100734761D01*
X182919523Y-100782380D01*
X183014761Y-100782380D01*
X183348095Y-100782380D02*
X183348095Y-100115714D01*
X183348095Y-100306190D02*
X183395714Y-100210952D01*
X183443333Y-100163333D01*
X183538571Y-100115714D01*
X183633809Y-100115714D01*
X183967142Y-100782380D02*
X183967142Y-100115714D01*
X183967142Y-99782380D02*
X183919523Y-99830000D01*
X183967142Y-99877619D01*
X184014761Y-99830000D01*
X183967142Y-99782380D01*
X183967142Y-99877619D01*
X184443333Y-100115714D02*
X184443333Y-101115714D01*
X184443333Y-100163333D02*
X184538571Y-100115714D01*
X184729047Y-100115714D01*
X184824285Y-100163333D01*
X184871904Y-100210952D01*
X184919523Y-100306190D01*
X184919523Y-100591904D01*
X184871904Y-100687142D01*
X184824285Y-100734761D01*
X184729047Y-100782380D01*
X184538571Y-100782380D01*
X184443333Y-100734761D01*
X178879523Y-85177380D02*
X178403333Y-85177380D01*
X178355714Y-85653571D01*
X178403333Y-85605952D01*
X178498571Y-85558333D01*
X178736666Y-85558333D01*
X178831904Y-85605952D01*
X178879523Y-85653571D01*
X178927142Y-85748809D01*
X178927142Y-85986904D01*
X178879523Y-86082142D01*
X178831904Y-86129761D01*
X178736666Y-86177380D01*
X178498571Y-86177380D01*
X178403333Y-86129761D01*
X178355714Y-86082142D01*
X179212857Y-85177380D02*
X179546190Y-86177380D01*
X179879523Y-85177380D01*
X179141428Y-89892142D02*
X179093809Y-89939761D01*
X178950952Y-89987380D01*
X178855714Y-89987380D01*
X178712857Y-89939761D01*
X178617619Y-89844523D01*
X178570000Y-89749285D01*
X178522380Y-89558809D01*
X178522380Y-89415952D01*
X178570000Y-89225476D01*
X178617619Y-89130238D01*
X178712857Y-89035000D01*
X178855714Y-88987380D01*
X178950952Y-88987380D01*
X179093809Y-89035000D01*
X179141428Y-89082619D01*
X179570000Y-89987380D02*
X179570000Y-88987380D01*
X178570000Y-93162380D02*
X178570000Y-92162380D01*
X178808095Y-92162380D01*
X178950952Y-92210000D01*
X179046190Y-92305238D01*
X179093809Y-92400476D01*
X179141428Y-92590952D01*
X179141428Y-92733809D01*
X179093809Y-92924285D01*
X179046190Y-93019523D01*
X178950952Y-93114761D01*
X178808095Y-93162380D01*
X178570000Y-93162380D01*
X179570000Y-93162380D02*
X179570000Y-92162380D01*
X177673095Y-95385000D02*
X177577857Y-95337380D01*
X177435000Y-95337380D01*
X177292142Y-95385000D01*
X177196904Y-95480238D01*
X177149285Y-95575476D01*
X177101666Y-95765952D01*
X177101666Y-95908809D01*
X177149285Y-96099285D01*
X177196904Y-96194523D01*
X177292142Y-96289761D01*
X177435000Y-96337380D01*
X177530238Y-96337380D01*
X177673095Y-96289761D01*
X177720714Y-96242142D01*
X177720714Y-95908809D01*
X177530238Y-95908809D01*
X178149285Y-96337380D02*
X178149285Y-95337380D01*
X178720714Y-96337380D01*
X178720714Y-95337380D01*
X179196904Y-96337380D02*
X179196904Y-95337380D01*
X179435000Y-95337380D01*
X179577857Y-95385000D01*
X179673095Y-95480238D01*
X179720714Y-95575476D01*
X179768333Y-95765952D01*
X179768333Y-95908809D01*
X179720714Y-96099285D01*
X179673095Y-96194523D01*
X179577857Y-96289761D01*
X179435000Y-96337380D01*
X179196904Y-96337380D01*
D10*
X118975000Y-128805714D02*
X118903571Y-128877142D01*
X118689285Y-128948571D01*
X118546428Y-128948571D01*
X118332142Y-128877142D01*
X118189285Y-128734285D01*
X118117857Y-128591428D01*
X118046428Y-128305714D01*
X118046428Y-128091428D01*
X118117857Y-127805714D01*
X118189285Y-127662857D01*
X118332142Y-127520000D01*
X118546428Y-127448571D01*
X118689285Y-127448571D01*
X118903571Y-127520000D01*
X118975000Y-127591428D01*
X119832142Y-128948571D02*
X119689285Y-128877142D01*
X119617857Y-128805714D01*
X119546428Y-128662857D01*
X119546428Y-128234285D01*
X119617857Y-128091428D01*
X119689285Y-128020000D01*
X119832142Y-127948571D01*
X120046428Y-127948571D01*
X120189285Y-128020000D01*
X120260714Y-128091428D01*
X120332142Y-128234285D01*
X120332142Y-128662857D01*
X120260714Y-128805714D01*
X120189285Y-128877142D01*
X120046428Y-128948571D01*
X119832142Y-128948571D01*
X121189285Y-128948571D02*
X121046428Y-128877142D01*
X120975000Y-128734285D01*
X120975000Y-127448571D01*
X121975000Y-128948571D02*
X121832142Y-128877142D01*
X121760714Y-128805714D01*
X121689285Y-128662857D01*
X121689285Y-128234285D01*
X121760714Y-128091428D01*
X121832142Y-128020000D01*
X121975000Y-127948571D01*
X122189285Y-127948571D01*
X122332142Y-128020000D01*
X122403571Y-128091428D01*
X122475000Y-128234285D01*
X122475000Y-128662857D01*
X122403571Y-128805714D01*
X122332142Y-128877142D01*
X122189285Y-128948571D01*
X121975000Y-128948571D01*
X123117857Y-128948571D02*
X123117857Y-127948571D01*
X123117857Y-128234285D02*
X123189285Y-128091428D01*
X123260714Y-128020000D01*
X123403571Y-127948571D01*
X123546428Y-127948571D01*
X125117857Y-128877142D02*
X125332142Y-128948571D01*
X125689285Y-128948571D01*
X125832142Y-128877142D01*
X125903571Y-128805714D01*
X125975000Y-128662857D01*
X125975000Y-128520000D01*
X125903571Y-128377142D01*
X125832142Y-128305714D01*
X125689285Y-128234285D01*
X125403571Y-128162857D01*
X125260714Y-128091428D01*
X125189285Y-128020000D01*
X125117857Y-127877142D01*
X125117857Y-127734285D01*
X125189285Y-127591428D01*
X125260714Y-127520000D01*
X125403571Y-127448571D01*
X125760714Y-127448571D01*
X125975000Y-127520000D01*
X127189285Y-128877142D02*
X127046428Y-128948571D01*
X126760714Y-128948571D01*
X126617857Y-128877142D01*
X126546428Y-128734285D01*
X126546428Y-128162857D01*
X126617857Y-128020000D01*
X126760714Y-127948571D01*
X127046428Y-127948571D01*
X127189285Y-128020000D01*
X127260714Y-128162857D01*
X127260714Y-128305714D01*
X126546428Y-128448571D01*
X127903571Y-127948571D02*
X127903571Y-128948571D01*
X127903571Y-128091428D02*
X127975000Y-128020000D01*
X128117857Y-127948571D01*
X128332142Y-127948571D01*
X128475000Y-128020000D01*
X128546428Y-128162857D01*
X128546428Y-128948571D01*
X129189285Y-128877142D02*
X129332142Y-128948571D01*
X129617857Y-128948571D01*
X129760714Y-128877142D01*
X129832142Y-128734285D01*
X129832142Y-128662857D01*
X129760714Y-128520000D01*
X129617857Y-128448571D01*
X129403571Y-128448571D01*
X129260714Y-128377142D01*
X129189285Y-128234285D01*
X129189285Y-128162857D01*
X129260714Y-128020000D01*
X129403571Y-127948571D01*
X129617857Y-127948571D01*
X129760714Y-128020000D01*
X130475000Y-128948571D02*
X130475000Y-127948571D01*
X130475000Y-127448571D02*
X130403571Y-127520000D01*
X130475000Y-127591428D01*
X130546428Y-127520000D01*
X130475000Y-127448571D01*
X130475000Y-127591428D01*
X131189285Y-127948571D02*
X131189285Y-128948571D01*
X131189285Y-128091428D02*
X131260714Y-128020000D01*
X131403571Y-127948571D01*
X131617857Y-127948571D01*
X131760714Y-128020000D01*
X131832142Y-128162857D01*
X131832142Y-128948571D01*
X133189285Y-127948571D02*
X133189285Y-129162857D01*
X133117857Y-129305714D01*
X133046428Y-129377142D01*
X132903571Y-129448571D01*
X132689285Y-129448571D01*
X132546428Y-129377142D01*
X133189285Y-128877142D02*
X133046428Y-128948571D01*
X132760714Y-128948571D01*
X132617857Y-128877142D01*
X132546428Y-128805714D01*
X132475000Y-128662857D01*
X132475000Y-128234285D01*
X132546428Y-128091428D01*
X132617857Y-128020000D01*
X132760714Y-127948571D01*
X133046428Y-127948571D01*
X133189285Y-128020000D01*
X135760714Y-128948571D02*
X135046428Y-128948571D01*
X135046428Y-127448571D01*
X136260714Y-128162857D02*
X136760714Y-128162857D01*
X136975000Y-128948571D02*
X136260714Y-128948571D01*
X136260714Y-127448571D01*
X136975000Y-127448571D01*
X137617857Y-128948571D02*
X137617857Y-127448571D01*
X137975000Y-127448571D01*
X138189285Y-127520000D01*
X138332142Y-127662857D01*
X138403571Y-127805714D01*
X138475000Y-128091428D01*
X138475000Y-128305714D01*
X138403571Y-128591428D01*
X138332142Y-128734285D01*
X138189285Y-128877142D01*
X137975000Y-128948571D01*
X137617857Y-128948571D01*
X140189285Y-128877142D02*
X140403571Y-128948571D01*
X140760714Y-128948571D01*
X140903571Y-128877142D01*
X140975000Y-128805714D01*
X141046428Y-128662857D01*
X141046428Y-128520000D01*
X140975000Y-128377142D01*
X140903571Y-128305714D01*
X140760714Y-128234285D01*
X140475000Y-128162857D01*
X140332142Y-128091428D01*
X140260714Y-128020000D01*
X140189285Y-127877142D01*
X140189285Y-127734285D01*
X140260714Y-127591428D01*
X140332142Y-127520000D01*
X140475000Y-127448571D01*
X140832142Y-127448571D01*
X141046428Y-127520000D01*
X141475000Y-127948571D02*
X142046428Y-127948571D01*
X141689285Y-127448571D02*
X141689285Y-128734285D01*
X141760714Y-128877142D01*
X141903571Y-128948571D01*
X142046428Y-128948571D01*
X142546428Y-128948571D02*
X142546428Y-127948571D01*
X142546428Y-128234285D02*
X142617857Y-128091428D01*
X142689285Y-128020000D01*
X142832142Y-127948571D01*
X142975000Y-127948571D01*
X143475000Y-128948571D02*
X143475000Y-127948571D01*
X143475000Y-127448571D02*
X143403571Y-127520000D01*
X143475000Y-127591428D01*
X143546428Y-127520000D01*
X143475000Y-127448571D01*
X143475000Y-127591428D01*
X144189285Y-127948571D02*
X144189285Y-129448571D01*
X144189285Y-128020000D02*
X144332142Y-127948571D01*
X144617857Y-127948571D01*
X144760714Y-128020000D01*
X144832142Y-128091428D01*
X144903571Y-128234285D01*
X144903571Y-128662857D01*
X144832142Y-128805714D01*
X144760714Y-128877142D01*
X144617857Y-128948571D01*
X144332142Y-128948571D01*
X144189285Y-128877142D01*
X146475000Y-127448571D02*
X146975000Y-128948571D01*
X147475000Y-127448571D01*
X147903571Y-127591428D02*
X147975000Y-127520000D01*
X148117857Y-127448571D01*
X148475000Y-127448571D01*
X148617857Y-127520000D01*
X148689285Y-127591428D01*
X148760714Y-127734285D01*
X148760714Y-127877142D01*
X148689285Y-128091428D01*
X147832142Y-128948571D01*
X148760714Y-128948571D01*
X149403571Y-128805714D02*
X149475000Y-128877142D01*
X149403571Y-128948571D01*
X149332142Y-128877142D01*
X149403571Y-128805714D01*
X149403571Y-128948571D01*
X150403571Y-127448571D02*
X150546428Y-127448571D01*
X150689285Y-127520000D01*
X150760714Y-127591428D01*
X150832142Y-127734285D01*
X150903571Y-128020000D01*
X150903571Y-128377142D01*
X150832142Y-128662857D01*
X150760714Y-128805714D01*
X150689285Y-128877142D01*
X150546428Y-128948571D01*
X150403571Y-128948571D01*
X150260714Y-128877142D01*
X150189285Y-128805714D01*
X150117857Y-128662857D01*
X150046428Y-128377142D01*
X150046428Y-128020000D01*
X150117857Y-127734285D01*
X150189285Y-127591428D01*
X150260714Y-127520000D01*
X150403571Y-127448571D01*
X152689285Y-128377142D02*
X153832142Y-128377142D01*
X155617857Y-128877142D02*
X155832142Y-128948571D01*
X156189285Y-128948571D01*
X156332142Y-128877142D01*
X156403571Y-128805714D01*
X156475000Y-128662857D01*
X156475000Y-128520000D01*
X156403571Y-128377142D01*
X156332142Y-128305714D01*
X156189285Y-128234285D01*
X155903571Y-128162857D01*
X155760714Y-128091428D01*
X155689285Y-128020000D01*
X155617857Y-127877142D01*
X155617857Y-127734285D01*
X155689285Y-127591428D01*
X155760714Y-127520000D01*
X155903571Y-127448571D01*
X156260714Y-127448571D01*
X156475000Y-127520000D01*
X157760714Y-128948571D02*
X157760714Y-128162857D01*
X157689285Y-128020000D01*
X157546428Y-127948571D01*
X157260714Y-127948571D01*
X157117857Y-128020000D01*
X157760714Y-128877142D02*
X157617857Y-128948571D01*
X157260714Y-128948571D01*
X157117857Y-128877142D01*
X157046428Y-128734285D01*
X157046428Y-128591428D01*
X157117857Y-128448571D01*
X157260714Y-128377142D01*
X157617857Y-128377142D01*
X157760714Y-128305714D01*
X158475000Y-128948571D02*
X158475000Y-127448571D01*
X158475000Y-128020000D02*
X158617857Y-127948571D01*
X158903571Y-127948571D01*
X159046428Y-128020000D01*
X159117857Y-128091428D01*
X159189285Y-128234285D01*
X159189285Y-128662857D01*
X159117857Y-128805714D01*
X159046428Y-128877142D01*
X158903571Y-128948571D01*
X158617857Y-128948571D01*
X158475000Y-128877142D01*
X159832142Y-128948571D02*
X159832142Y-127948571D01*
X159832142Y-128234285D02*
X159903571Y-128091428D01*
X159975000Y-128020000D01*
X160117857Y-127948571D01*
X160260714Y-127948571D01*
X160760714Y-128948571D02*
X160760714Y-127948571D01*
X160760714Y-127448571D02*
X160689285Y-127520000D01*
X160760714Y-127591428D01*
X160832142Y-127520000D01*
X160760714Y-127448571D01*
X160760714Y-127591428D01*
X161475000Y-127948571D02*
X161475000Y-128948571D01*
X161475000Y-128091428D02*
X161546428Y-128020000D01*
X161689285Y-127948571D01*
X161903571Y-127948571D01*
X162046428Y-128020000D01*
X162117857Y-128162857D01*
X162117857Y-128948571D01*
X163475000Y-128948571D02*
X163475000Y-128162857D01*
X163403571Y-128020000D01*
X163260714Y-127948571D01*
X162975000Y-127948571D01*
X162832142Y-128020000D01*
X163475000Y-128877142D02*
X163332142Y-128948571D01*
X162975000Y-128948571D01*
X162832142Y-128877142D01*
X162760714Y-128734285D01*
X162760714Y-128591428D01*
X162832142Y-128448571D01*
X162975000Y-128377142D01*
X163332142Y-128377142D01*
X163475000Y-128305714D01*
X165332142Y-128948571D02*
X165332142Y-127448571D01*
X165903571Y-127448571D01*
X166046428Y-127520000D01*
X166117857Y-127591428D01*
X166189285Y-127734285D01*
X166189285Y-127948571D01*
X166117857Y-128091428D01*
X166046428Y-128162857D01*
X165903571Y-128234285D01*
X165332142Y-128234285D01*
X167403571Y-128877142D02*
X167260714Y-128948571D01*
X166975000Y-128948571D01*
X166832142Y-128877142D01*
X166760714Y-128734285D01*
X166760714Y-128162857D01*
X166832142Y-128020000D01*
X166975000Y-127948571D01*
X167260714Y-127948571D01*
X167403571Y-128020000D01*
X167475000Y-128162857D01*
X167475000Y-128305714D01*
X166760714Y-128448571D01*
X168117857Y-128948571D02*
X168117857Y-127948571D01*
X168117857Y-128234285D02*
X168189285Y-128091428D01*
X168260714Y-128020000D01*
X168403571Y-127948571D01*
X168546428Y-127948571D01*
X169617857Y-128877142D02*
X169475000Y-128948571D01*
X169189285Y-128948571D01*
X169046428Y-128877142D01*
X168975000Y-128734285D01*
X168975000Y-128162857D01*
X169046428Y-128020000D01*
X169189285Y-127948571D01*
X169475000Y-127948571D01*
X169617857Y-128020000D01*
X169689285Y-128162857D01*
X169689285Y-128305714D01*
X168975000Y-128448571D01*
X170332142Y-128948571D02*
X170332142Y-127948571D01*
X170332142Y-127448571D02*
X170260714Y-127520000D01*
X170332142Y-127591428D01*
X170403571Y-127520000D01*
X170332142Y-127448571D01*
X170332142Y-127591428D01*
X171046428Y-128948571D02*
X171046428Y-127948571D01*
X171046428Y-128234285D02*
X171117857Y-128091428D01*
X171189285Y-128020000D01*
X171332142Y-127948571D01*
X171475000Y-127948571D01*
X172617857Y-128948571D02*
X172617857Y-128162857D01*
X172546428Y-128020000D01*
X172403571Y-127948571D01*
X172117857Y-127948571D01*
X171975000Y-128020000D01*
X172617857Y-128877142D02*
X172475000Y-128948571D01*
X172117857Y-128948571D01*
X171975000Y-128877142D01*
X171903571Y-128734285D01*
X171903571Y-128591428D01*
X171975000Y-128448571D01*
X172117857Y-128377142D01*
X172475000Y-128377142D01*
X172617857Y-128305714D01*
X175689285Y-128948571D02*
X175617857Y-128948571D01*
X175475000Y-128877142D01*
X175260714Y-128662857D01*
X174903571Y-128234285D01*
X174760714Y-128020000D01*
X174689285Y-127805714D01*
X174689285Y-127662857D01*
X174760714Y-127520000D01*
X174903571Y-127448571D01*
X174975000Y-127448571D01*
X175117857Y-127520000D01*
X175189285Y-127662857D01*
X175189285Y-127734285D01*
X175117857Y-127877142D01*
X175046428Y-127948571D01*
X174617857Y-128234285D01*
X174546428Y-128305714D01*
X174475000Y-128448571D01*
X174475000Y-128662857D01*
X174546428Y-128805714D01*
X174617857Y-128877142D01*
X174760714Y-128948571D01*
X174975000Y-128948571D01*
X175117857Y-128877142D01*
X175189285Y-128805714D01*
X175403571Y-128520000D01*
X175475000Y-128305714D01*
X175475000Y-128162857D01*
X178332142Y-128805714D02*
X178260714Y-128877142D01*
X178046428Y-128948571D01*
X177903571Y-128948571D01*
X177689285Y-128877142D01*
X177546428Y-128734285D01*
X177475000Y-128591428D01*
X177403571Y-128305714D01*
X177403571Y-128091428D01*
X177475000Y-127805714D01*
X177546428Y-127662857D01*
X177689285Y-127520000D01*
X177903571Y-127448571D01*
X178046428Y-127448571D01*
X178260714Y-127520000D01*
X178332142Y-127591428D01*
X179189285Y-128948571D02*
X179046428Y-128877142D01*
X178975000Y-128805714D01*
X178903571Y-128662857D01*
X178903571Y-128234285D01*
X178975000Y-128091428D01*
X179046428Y-128020000D01*
X179189285Y-127948571D01*
X179403571Y-127948571D01*
X179546428Y-128020000D01*
X179617857Y-128091428D01*
X179689285Y-128234285D01*
X179689285Y-128662857D01*
X179617857Y-128805714D01*
X179546428Y-128877142D01*
X179403571Y-128948571D01*
X179189285Y-128948571D01*
X180332142Y-128805714D02*
X180403571Y-128877142D01*
X180332142Y-128948571D01*
X180260714Y-128877142D01*
X180332142Y-128805714D01*
X180332142Y-128948571D01*
D12*
%TO.C,J2*%
X188900000Y-82775000D02*
X188900000Y-84775000D01*
X187650000Y-82775000D02*
X188900000Y-82775000D01*
X181900000Y-97725000D02*
X181900000Y-96975000D01*
X186200000Y-97725000D02*
X181900000Y-97725000D01*
X186200000Y-96975000D02*
X186200000Y-97725000D01*
X186550000Y-96975000D02*
X186200000Y-96975000D01*
X186550000Y-97475000D02*
X186550000Y-96975000D01*
X187550000Y-97725000D02*
X186550000Y-97475000D01*
X187550000Y-94725000D02*
X187550000Y-97725000D01*
X186550000Y-94975000D02*
X187550000Y-94725000D01*
X186550000Y-95475000D02*
X186550000Y-94975000D01*
X186200000Y-95475000D02*
X186550000Y-95475000D01*
X186200000Y-94725000D02*
X186200000Y-95475000D01*
X181900000Y-94725000D02*
X186200000Y-94725000D01*
X181900000Y-95475000D02*
X181900000Y-94725000D01*
X181900000Y-94225000D02*
X181900000Y-93475000D01*
X186200000Y-94225000D02*
X181900000Y-94225000D01*
X186200000Y-93475000D02*
X186200000Y-94225000D01*
X186550000Y-93475000D02*
X186200000Y-93475000D01*
X186550000Y-93975000D02*
X186550000Y-93475000D01*
X187550000Y-94225000D02*
X186550000Y-93975000D01*
X187550000Y-91225000D02*
X187550000Y-94225000D01*
X186550000Y-91475000D02*
X187550000Y-91225000D01*
X186550000Y-91975000D02*
X186550000Y-91475000D01*
X186200000Y-91975000D02*
X186550000Y-91975000D01*
X186200000Y-91225000D02*
X186200000Y-91975000D01*
X181900000Y-91225000D02*
X186200000Y-91225000D01*
X181900000Y-91975000D02*
X181900000Y-91225000D01*
X181900000Y-90725000D02*
X181900000Y-89975000D01*
X186200000Y-90725000D02*
X181900000Y-90725000D01*
X186200000Y-89975000D02*
X186200000Y-90725000D01*
X186550000Y-89975000D02*
X186200000Y-89975000D01*
X186550000Y-90475000D02*
X186550000Y-89975000D01*
X187550000Y-90725000D02*
X186550000Y-90475000D01*
X187550000Y-87725000D02*
X187550000Y-90725000D01*
X186550000Y-87975000D02*
X187550000Y-87725000D01*
X186550000Y-88475000D02*
X186550000Y-87975000D01*
X186200000Y-88475000D02*
X186550000Y-88475000D01*
X186200000Y-87725000D02*
X186200000Y-88475000D01*
X181900000Y-87725000D02*
X186200000Y-87725000D01*
X181900000Y-88475000D02*
X181900000Y-87725000D01*
X181900000Y-87225000D02*
X181900000Y-86475000D01*
X186200000Y-87225000D02*
X181900000Y-87225000D01*
X186200000Y-86475000D02*
X186200000Y-87225000D01*
X186550000Y-86475000D02*
X186200000Y-86475000D01*
X186550000Y-86975000D02*
X186550000Y-86475000D01*
X187550000Y-87225000D02*
X186550000Y-86975000D01*
X187550000Y-84225000D02*
X187550000Y-87225000D01*
X186550000Y-84475000D02*
X187550000Y-84225000D01*
X186550000Y-84975000D02*
X186550000Y-84475000D01*
X186200000Y-84975000D02*
X186550000Y-84975000D01*
X186200000Y-84225000D02*
X186200000Y-84975000D01*
X181900000Y-84225000D02*
X186200000Y-84225000D01*
X181900000Y-84975000D02*
X181900000Y-84225000D01*
X188510000Y-98785000D02*
X188510000Y-83165000D01*
X181040000Y-98785000D02*
X188510000Y-98785000D01*
X181040000Y-83165000D02*
X181040000Y-98785000D01*
X188510000Y-83165000D02*
X181040000Y-83165000D01*
X181900155Y-96974647D02*
G75*
G03*
X181900000Y-95475000I-1700155J749647D01*
G01*
X181900155Y-93474647D02*
G75*
G03*
X181900000Y-91975000I-1700155J749647D01*
G01*
X181900155Y-89974647D02*
G75*
G03*
X181900000Y-88475000I-1700155J749647D01*
G01*
X181900155Y-86474647D02*
G75*
G03*
X181900000Y-84975000I-1700155J749647D01*
G01*
%TO.C,U1*%
X149800000Y-84455000D02*
X149800000Y-83125000D01*
X149800000Y-83125000D02*
X151130000Y-83125000D01*
X152400000Y-83125000D02*
X165160000Y-83125000D01*
X165160000Y-85785000D02*
X165160000Y-83125000D01*
X152400000Y-85785000D02*
X165160000Y-85785000D01*
X152400000Y-85785000D02*
X152400000Y-83125000D01*
X144780000Y-86995000D02*
X170180000Y-86995000D01*
X170180000Y-86995000D02*
X170180000Y-69215000D01*
X170180000Y-69215000D02*
X144780000Y-69215000D01*
X144780000Y-69215000D02*
X144780000Y-86995000D01*
%TO.C,U2*%
X123550000Y-98425000D02*
X123550000Y-125857000D01*
X123423000Y-125730000D02*
X150855000Y-125730000D01*
X150982000Y-125857000D02*
X150982000Y-98425000D01*
X150982000Y-98425000D02*
X123550000Y-98425000D01*
%TO.C,SW1*%
X177030000Y-113545000D02*
G75*
G03*
X177030000Y-113545000I-3000000J0D01*
G01*
X180330000Y-115345000D02*
X180330000Y-120245000D01*
X167730000Y-120245000D02*
X167730000Y-115345000D01*
X167730000Y-111745000D02*
X167730000Y-106845000D01*
X167730000Y-106845000D02*
X170530000Y-106845000D01*
X180330000Y-111645000D02*
X180330000Y-106845000D01*
X180330000Y-106845000D02*
X177830000Y-106845000D01*
X177830000Y-106045000D02*
X178130000Y-105745000D01*
X178130000Y-105745000D02*
X178130000Y-106345000D01*
X178130000Y-106345000D02*
X177830000Y-106045000D01*
X180330000Y-120245000D02*
X177730000Y-120245000D01*
X175330000Y-120245000D02*
X172730000Y-120245000D01*
X170330000Y-120245000D02*
X167730000Y-120245000D01*
X174530000Y-113545000D02*
X173530000Y-113545000D01*
X174030000Y-113045000D02*
X174030000Y-114045000D01*
D13*
%TO.C,J1*%
X107305000Y-104620000D02*
X107305000Y-105120000D01*
X107305000Y-104620000D02*
X106805000Y-104620000D01*
X107305000Y-113820000D02*
X107305000Y-113320000D01*
X107305000Y-113820000D02*
X106805000Y-113820000D01*
X101705000Y-110420000D02*
X101705000Y-108020000D01*
X92705000Y-113820000D02*
X93205000Y-113820000D01*
X92705000Y-113820000D02*
X92705000Y-113320000D01*
X92705000Y-104620000D02*
X92705000Y-105120000D01*
X92705000Y-104620000D02*
X93205000Y-104620000D01*
X100005000Y-113820000D02*
X99005000Y-113820000D01*
X100005000Y-104620000D02*
X99005000Y-104620000D01*
D12*
%TO.C,C4*%
X174430000Y-69820000D02*
X174430000Y-69115000D01*
X174430000Y-71855000D02*
X174430000Y-71150000D01*
X178670000Y-69820000D02*
X178670000Y-69115000D01*
X178670000Y-71855000D02*
X178670000Y-71150000D01*
X178670000Y-69115000D02*
X174430000Y-69115000D01*
X178670000Y-71855000D02*
X174430000Y-71855000D01*
%TO.C,C3*%
X186409698Y-79550000D02*
X186409698Y-78750000D01*
X186809698Y-79150000D02*
X186009698Y-79150000D01*
X178319000Y-77368000D02*
X178319000Y-76302000D01*
X178359000Y-77603000D02*
X178359000Y-76067000D01*
X178399000Y-77783000D02*
X178399000Y-75887000D01*
X178439000Y-77933000D02*
X178439000Y-75737000D01*
X178479000Y-78064000D02*
X178479000Y-75606000D01*
X178519000Y-78181000D02*
X178519000Y-75489000D01*
X178559000Y-78288000D02*
X178559000Y-75382000D01*
X178599000Y-78387000D02*
X178599000Y-75283000D01*
X178639000Y-78480000D02*
X178639000Y-75190000D01*
X178679000Y-78566000D02*
X178679000Y-75104000D01*
X178719000Y-78648000D02*
X178719000Y-75022000D01*
X178759000Y-78725000D02*
X178759000Y-74945000D01*
X178799000Y-78799000D02*
X178799000Y-74871000D01*
X178839000Y-78869000D02*
X178839000Y-74801000D01*
X178879000Y-78937000D02*
X178879000Y-74733000D01*
X178919000Y-79001000D02*
X178919000Y-74669000D01*
X178959000Y-79063000D02*
X178959000Y-74607000D01*
X178999000Y-79122000D02*
X178999000Y-74548000D01*
X179039000Y-79180000D02*
X179039000Y-74490000D01*
X179079000Y-79235000D02*
X179079000Y-74435000D01*
X179119000Y-79289000D02*
X179119000Y-74381000D01*
X179159000Y-79340000D02*
X179159000Y-74330000D01*
X179199000Y-79391000D02*
X179199000Y-74279000D01*
X179239000Y-79439000D02*
X179239000Y-74231000D01*
X179279000Y-79486000D02*
X179279000Y-74184000D01*
X179319000Y-79532000D02*
X179319000Y-74138000D01*
X179359000Y-79576000D02*
X179359000Y-74094000D01*
X179399000Y-79619000D02*
X179399000Y-74051000D01*
X179439000Y-79661000D02*
X179439000Y-74009000D01*
X179479000Y-79702000D02*
X179479000Y-73968000D01*
X179519000Y-79742000D02*
X179519000Y-73928000D01*
X179559000Y-79780000D02*
X179559000Y-73890000D01*
X179599000Y-79818000D02*
X179599000Y-73852000D01*
X179639000Y-75795000D02*
X179639000Y-73816000D01*
X179639000Y-79854000D02*
X179639000Y-77875000D01*
X179679000Y-75795000D02*
X179679000Y-73780000D01*
X179679000Y-79890000D02*
X179679000Y-77875000D01*
X179719000Y-75795000D02*
X179719000Y-73745000D01*
X179719000Y-79925000D02*
X179719000Y-77875000D01*
X179759000Y-75795000D02*
X179759000Y-73711000D01*
X179759000Y-79959000D02*
X179759000Y-77875000D01*
X179799000Y-75795000D02*
X179799000Y-73679000D01*
X179799000Y-79991000D02*
X179799000Y-77875000D01*
X179839000Y-75795000D02*
X179839000Y-73646000D01*
X179839000Y-80024000D02*
X179839000Y-77875000D01*
X179879000Y-75795000D02*
X179879000Y-73615000D01*
X179879000Y-80055000D02*
X179879000Y-77875000D01*
X179919000Y-75795000D02*
X179919000Y-73585000D01*
X179919000Y-80085000D02*
X179919000Y-77875000D01*
X179959000Y-75795000D02*
X179959000Y-73555000D01*
X179959000Y-80115000D02*
X179959000Y-77875000D01*
X179999000Y-75795000D02*
X179999000Y-73526000D01*
X179999000Y-80144000D02*
X179999000Y-77875000D01*
X180039000Y-75795000D02*
X180039000Y-73497000D01*
X180039000Y-80173000D02*
X180039000Y-77875000D01*
X180079000Y-75795000D02*
X180079000Y-73470000D01*
X180079000Y-80200000D02*
X180079000Y-77875000D01*
X180119000Y-75795000D02*
X180119000Y-73443000D01*
X180119000Y-80227000D02*
X180119000Y-77875000D01*
X180159000Y-75795000D02*
X180159000Y-73417000D01*
X180159000Y-80253000D02*
X180159000Y-77875000D01*
X180199000Y-75795000D02*
X180199000Y-73391000D01*
X180199000Y-80279000D02*
X180199000Y-77875000D01*
X180239000Y-75795000D02*
X180239000Y-73366000D01*
X180239000Y-80304000D02*
X180239000Y-77875000D01*
X180279000Y-75795000D02*
X180279000Y-73342000D01*
X180279000Y-80328000D02*
X180279000Y-77875000D01*
X180319000Y-75795000D02*
X180319000Y-73318000D01*
X180319000Y-80352000D02*
X180319000Y-77875000D01*
X180359000Y-75795000D02*
X180359000Y-73295000D01*
X180359000Y-80375000D02*
X180359000Y-77875000D01*
X180399000Y-75795000D02*
X180399000Y-73273000D01*
X180399000Y-80397000D02*
X180399000Y-77875000D01*
X180439000Y-75795000D02*
X180439000Y-73251000D01*
X180439000Y-80419000D02*
X180439000Y-77875000D01*
X180479000Y-75795000D02*
X180479000Y-73229000D01*
X180479000Y-80441000D02*
X180479000Y-77875000D01*
X180519000Y-75795000D02*
X180519000Y-73208000D01*
X180519000Y-80462000D02*
X180519000Y-77875000D01*
X180559000Y-75795000D02*
X180559000Y-73188000D01*
X180559000Y-80482000D02*
X180559000Y-77875000D01*
X180599000Y-75795000D02*
X180599000Y-73169000D01*
X180599000Y-80501000D02*
X180599000Y-77875000D01*
X180639000Y-75795000D02*
X180639000Y-73149000D01*
X180639000Y-80521000D02*
X180639000Y-77875000D01*
X180679000Y-75795000D02*
X180679000Y-73131000D01*
X180679000Y-80539000D02*
X180679000Y-77875000D01*
X180719000Y-75795000D02*
X180719000Y-73113000D01*
X180719000Y-80557000D02*
X180719000Y-77875000D01*
X180759000Y-75795000D02*
X180759000Y-73095000D01*
X180759000Y-80575000D02*
X180759000Y-77875000D01*
X180799000Y-75795000D02*
X180799000Y-73078000D01*
X180799000Y-80592000D02*
X180799000Y-77875000D01*
X180839000Y-75795000D02*
X180839000Y-73061000D01*
X180839000Y-80609000D02*
X180839000Y-77875000D01*
X180879000Y-75795000D02*
X180879000Y-73045000D01*
X180879000Y-80625000D02*
X180879000Y-77875000D01*
X180919000Y-75795000D02*
X180919000Y-73030000D01*
X180919000Y-80640000D02*
X180919000Y-77875000D01*
X180959000Y-75795000D02*
X180959000Y-73014000D01*
X180959000Y-80656000D02*
X180959000Y-77875000D01*
X180999000Y-75795000D02*
X180999000Y-73000000D01*
X180999000Y-80670000D02*
X180999000Y-77875000D01*
X181039000Y-75795000D02*
X181039000Y-72985000D01*
X181039000Y-80685000D02*
X181039000Y-77875000D01*
X181079000Y-75795000D02*
X181079000Y-72972000D01*
X181079000Y-80698000D02*
X181079000Y-77875000D01*
X181119000Y-75795000D02*
X181119000Y-72958000D01*
X181119000Y-80712000D02*
X181119000Y-77875000D01*
X181159000Y-75795000D02*
X181159000Y-72946000D01*
X181159000Y-80724000D02*
X181159000Y-77875000D01*
X181199000Y-75795000D02*
X181199000Y-72933000D01*
X181199000Y-80737000D02*
X181199000Y-77875000D01*
X181239000Y-75795000D02*
X181239000Y-72921000D01*
X181239000Y-80749000D02*
X181239000Y-77875000D01*
X181279000Y-75795000D02*
X181279000Y-72910000D01*
X181279000Y-80760000D02*
X181279000Y-77875000D01*
X181319000Y-75795000D02*
X181319000Y-72899000D01*
X181319000Y-80771000D02*
X181319000Y-77875000D01*
X181359000Y-75795000D02*
X181359000Y-72888000D01*
X181359000Y-80782000D02*
X181359000Y-77875000D01*
X181399000Y-75795000D02*
X181399000Y-72878000D01*
X181399000Y-80792000D02*
X181399000Y-77875000D01*
X181439000Y-75795000D02*
X181439000Y-72868000D01*
X181439000Y-80802000D02*
X181439000Y-77875000D01*
X181479000Y-75795000D02*
X181479000Y-72859000D01*
X181479000Y-80811000D02*
X181479000Y-77875000D01*
X181519000Y-75795000D02*
X181519000Y-72850000D01*
X181519000Y-80820000D02*
X181519000Y-77875000D01*
X181559000Y-75795000D02*
X181559000Y-72841000D01*
X181559000Y-80829000D02*
X181559000Y-77875000D01*
X181599000Y-75795000D02*
X181599000Y-72833000D01*
X181599000Y-80837000D02*
X181599000Y-77875000D01*
X181639000Y-75795000D02*
X181639000Y-72825000D01*
X181639000Y-80845000D02*
X181639000Y-77875000D01*
X181679000Y-75795000D02*
X181679000Y-72818000D01*
X181679000Y-80852000D02*
X181679000Y-77875000D01*
X181720000Y-80859000D02*
X181720000Y-72811000D01*
X181760000Y-80865000D02*
X181760000Y-72805000D01*
X181800000Y-80872000D02*
X181800000Y-72798000D01*
X181840000Y-80877000D02*
X181840000Y-72793000D01*
X181880000Y-80883000D02*
X181880000Y-72787000D01*
X181920000Y-80887000D02*
X181920000Y-72783000D01*
X181960000Y-80892000D02*
X181960000Y-72778000D01*
X182000000Y-80896000D02*
X182000000Y-72774000D01*
X182040000Y-80900000D02*
X182040000Y-72770000D01*
X182080000Y-80903000D02*
X182080000Y-72767000D01*
X182120000Y-80906000D02*
X182120000Y-72764000D01*
X182160000Y-80909000D02*
X182160000Y-72761000D01*
X182200000Y-80911000D02*
X182200000Y-72759000D01*
X182240000Y-80912000D02*
X182240000Y-72758000D01*
X182280000Y-80914000D02*
X182280000Y-72756000D01*
X182320000Y-80915000D02*
X182320000Y-72755000D01*
X182360000Y-80915000D02*
X182360000Y-72755000D01*
X182400000Y-80915000D02*
X182400000Y-72755000D01*
X186520000Y-76835000D02*
G75*
G03*
X186520000Y-76835000I-4120000J0D01*
G01*
%TO.C,C2*%
X110209698Y-124000000D02*
X110209698Y-123200000D01*
X110609698Y-123600000D02*
X109809698Y-123600000D01*
X102119000Y-121818000D02*
X102119000Y-120752000D01*
X102159000Y-122053000D02*
X102159000Y-120517000D01*
X102199000Y-122233000D02*
X102199000Y-120337000D01*
X102239000Y-122383000D02*
X102239000Y-120187000D01*
X102279000Y-122514000D02*
X102279000Y-120056000D01*
X102319000Y-122631000D02*
X102319000Y-119939000D01*
X102359000Y-122738000D02*
X102359000Y-119832000D01*
X102399000Y-122837000D02*
X102399000Y-119733000D01*
X102439000Y-122930000D02*
X102439000Y-119640000D01*
X102479000Y-123016000D02*
X102479000Y-119554000D01*
X102519000Y-123098000D02*
X102519000Y-119472000D01*
X102559000Y-123175000D02*
X102559000Y-119395000D01*
X102599000Y-123249000D02*
X102599000Y-119321000D01*
X102639000Y-123319000D02*
X102639000Y-119251000D01*
X102679000Y-123387000D02*
X102679000Y-119183000D01*
X102719000Y-123451000D02*
X102719000Y-119119000D01*
X102759000Y-123513000D02*
X102759000Y-119057000D01*
X102799000Y-123572000D02*
X102799000Y-118998000D01*
X102839000Y-123630000D02*
X102839000Y-118940000D01*
X102879000Y-123685000D02*
X102879000Y-118885000D01*
X102919000Y-123739000D02*
X102919000Y-118831000D01*
X102959000Y-123790000D02*
X102959000Y-118780000D01*
X102999000Y-123841000D02*
X102999000Y-118729000D01*
X103039000Y-123889000D02*
X103039000Y-118681000D01*
X103079000Y-123936000D02*
X103079000Y-118634000D01*
X103119000Y-123982000D02*
X103119000Y-118588000D01*
X103159000Y-124026000D02*
X103159000Y-118544000D01*
X103199000Y-124069000D02*
X103199000Y-118501000D01*
X103239000Y-124111000D02*
X103239000Y-118459000D01*
X103279000Y-124152000D02*
X103279000Y-118418000D01*
X103319000Y-124192000D02*
X103319000Y-118378000D01*
X103359000Y-124230000D02*
X103359000Y-118340000D01*
X103399000Y-124268000D02*
X103399000Y-118302000D01*
X103439000Y-120245000D02*
X103439000Y-118266000D01*
X103439000Y-124304000D02*
X103439000Y-122325000D01*
X103479000Y-120245000D02*
X103479000Y-118230000D01*
X103479000Y-124340000D02*
X103479000Y-122325000D01*
X103519000Y-120245000D02*
X103519000Y-118195000D01*
X103519000Y-124375000D02*
X103519000Y-122325000D01*
X103559000Y-120245000D02*
X103559000Y-118161000D01*
X103559000Y-124409000D02*
X103559000Y-122325000D01*
X103599000Y-120245000D02*
X103599000Y-118129000D01*
X103599000Y-124441000D02*
X103599000Y-122325000D01*
X103639000Y-120245000D02*
X103639000Y-118096000D01*
X103639000Y-124474000D02*
X103639000Y-122325000D01*
X103679000Y-120245000D02*
X103679000Y-118065000D01*
X103679000Y-124505000D02*
X103679000Y-122325000D01*
X103719000Y-120245000D02*
X103719000Y-118035000D01*
X103719000Y-124535000D02*
X103719000Y-122325000D01*
X103759000Y-120245000D02*
X103759000Y-118005000D01*
X103759000Y-124565000D02*
X103759000Y-122325000D01*
X103799000Y-120245000D02*
X103799000Y-117976000D01*
X103799000Y-124594000D02*
X103799000Y-122325000D01*
X103839000Y-120245000D02*
X103839000Y-117947000D01*
X103839000Y-124623000D02*
X103839000Y-122325000D01*
X103879000Y-120245000D02*
X103879000Y-117920000D01*
X103879000Y-124650000D02*
X103879000Y-122325000D01*
X103919000Y-120245000D02*
X103919000Y-117893000D01*
X103919000Y-124677000D02*
X103919000Y-122325000D01*
X103959000Y-120245000D02*
X103959000Y-117867000D01*
X103959000Y-124703000D02*
X103959000Y-122325000D01*
X103999000Y-120245000D02*
X103999000Y-117841000D01*
X103999000Y-124729000D02*
X103999000Y-122325000D01*
X104039000Y-120245000D02*
X104039000Y-117816000D01*
X104039000Y-124754000D02*
X104039000Y-122325000D01*
X104079000Y-120245000D02*
X104079000Y-117792000D01*
X104079000Y-124778000D02*
X104079000Y-122325000D01*
X104119000Y-120245000D02*
X104119000Y-117768000D01*
X104119000Y-124802000D02*
X104119000Y-122325000D01*
X104159000Y-120245000D02*
X104159000Y-117745000D01*
X104159000Y-124825000D02*
X104159000Y-122325000D01*
X104199000Y-120245000D02*
X104199000Y-117723000D01*
X104199000Y-124847000D02*
X104199000Y-122325000D01*
X104239000Y-120245000D02*
X104239000Y-117701000D01*
X104239000Y-124869000D02*
X104239000Y-122325000D01*
X104279000Y-120245000D02*
X104279000Y-117679000D01*
X104279000Y-124891000D02*
X104279000Y-122325000D01*
X104319000Y-120245000D02*
X104319000Y-117658000D01*
X104319000Y-124912000D02*
X104319000Y-122325000D01*
X104359000Y-120245000D02*
X104359000Y-117638000D01*
X104359000Y-124932000D02*
X104359000Y-122325000D01*
X104399000Y-120245000D02*
X104399000Y-117619000D01*
X104399000Y-124951000D02*
X104399000Y-122325000D01*
X104439000Y-120245000D02*
X104439000Y-117599000D01*
X104439000Y-124971000D02*
X104439000Y-122325000D01*
X104479000Y-120245000D02*
X104479000Y-117581000D01*
X104479000Y-124989000D02*
X104479000Y-122325000D01*
X104519000Y-120245000D02*
X104519000Y-117563000D01*
X104519000Y-125007000D02*
X104519000Y-122325000D01*
X104559000Y-120245000D02*
X104559000Y-117545000D01*
X104559000Y-125025000D02*
X104559000Y-122325000D01*
X104599000Y-120245000D02*
X104599000Y-117528000D01*
X104599000Y-125042000D02*
X104599000Y-122325000D01*
X104639000Y-120245000D02*
X104639000Y-117511000D01*
X104639000Y-125059000D02*
X104639000Y-122325000D01*
X104679000Y-120245000D02*
X104679000Y-117495000D01*
X104679000Y-125075000D02*
X104679000Y-122325000D01*
X104719000Y-120245000D02*
X104719000Y-117480000D01*
X104719000Y-125090000D02*
X104719000Y-122325000D01*
X104759000Y-120245000D02*
X104759000Y-117464000D01*
X104759000Y-125106000D02*
X104759000Y-122325000D01*
X104799000Y-120245000D02*
X104799000Y-117450000D01*
X104799000Y-125120000D02*
X104799000Y-122325000D01*
X104839000Y-120245000D02*
X104839000Y-117435000D01*
X104839000Y-125135000D02*
X104839000Y-122325000D01*
X104879000Y-120245000D02*
X104879000Y-117422000D01*
X104879000Y-125148000D02*
X104879000Y-122325000D01*
X104919000Y-120245000D02*
X104919000Y-117408000D01*
X104919000Y-125162000D02*
X104919000Y-122325000D01*
X104959000Y-120245000D02*
X104959000Y-117396000D01*
X104959000Y-125174000D02*
X104959000Y-122325000D01*
X104999000Y-120245000D02*
X104999000Y-117383000D01*
X104999000Y-125187000D02*
X104999000Y-122325000D01*
X105039000Y-120245000D02*
X105039000Y-117371000D01*
X105039000Y-125199000D02*
X105039000Y-122325000D01*
X105079000Y-120245000D02*
X105079000Y-117360000D01*
X105079000Y-125210000D02*
X105079000Y-122325000D01*
X105119000Y-120245000D02*
X105119000Y-117349000D01*
X105119000Y-125221000D02*
X105119000Y-122325000D01*
X105159000Y-120245000D02*
X105159000Y-117338000D01*
X105159000Y-125232000D02*
X105159000Y-122325000D01*
X105199000Y-120245000D02*
X105199000Y-117328000D01*
X105199000Y-125242000D02*
X105199000Y-122325000D01*
X105239000Y-120245000D02*
X105239000Y-117318000D01*
X105239000Y-125252000D02*
X105239000Y-122325000D01*
X105279000Y-120245000D02*
X105279000Y-117309000D01*
X105279000Y-125261000D02*
X105279000Y-122325000D01*
X105319000Y-120245000D02*
X105319000Y-117300000D01*
X105319000Y-125270000D02*
X105319000Y-122325000D01*
X105359000Y-120245000D02*
X105359000Y-117291000D01*
X105359000Y-125279000D02*
X105359000Y-122325000D01*
X105399000Y-120245000D02*
X105399000Y-117283000D01*
X105399000Y-125287000D02*
X105399000Y-122325000D01*
X105439000Y-120245000D02*
X105439000Y-117275000D01*
X105439000Y-125295000D02*
X105439000Y-122325000D01*
X105479000Y-120245000D02*
X105479000Y-117268000D01*
X105479000Y-125302000D02*
X105479000Y-122325000D01*
X105520000Y-125309000D02*
X105520000Y-117261000D01*
X105560000Y-125315000D02*
X105560000Y-117255000D01*
X105600000Y-125322000D02*
X105600000Y-117248000D01*
X105640000Y-125327000D02*
X105640000Y-117243000D01*
X105680000Y-125333000D02*
X105680000Y-117237000D01*
X105720000Y-125337000D02*
X105720000Y-117233000D01*
X105760000Y-125342000D02*
X105760000Y-117228000D01*
X105800000Y-125346000D02*
X105800000Y-117224000D01*
X105840000Y-125350000D02*
X105840000Y-117220000D01*
X105880000Y-125353000D02*
X105880000Y-117217000D01*
X105920000Y-125356000D02*
X105920000Y-117214000D01*
X105960000Y-125359000D02*
X105960000Y-117211000D01*
X106000000Y-125361000D02*
X106000000Y-117209000D01*
X106040000Y-125362000D02*
X106040000Y-117208000D01*
X106080000Y-125364000D02*
X106080000Y-117206000D01*
X106120000Y-125365000D02*
X106120000Y-117205000D01*
X106160000Y-125365000D02*
X106160000Y-117205000D01*
X106200000Y-125365000D02*
X106200000Y-117205000D01*
X110320000Y-121285000D02*
G75*
G03*
X110320000Y-121285000I-4120000J0D01*
G01*
%TO.C,C1*%
X115130000Y-127030000D02*
X115130000Y-127735000D01*
X115130000Y-124995000D02*
X115130000Y-125700000D01*
X110890000Y-127030000D02*
X110890000Y-127735000D01*
X110890000Y-124995000D02*
X110890000Y-125700000D01*
X110890000Y-127735000D02*
X115130000Y-127735000D01*
X110890000Y-124995000D02*
X115130000Y-124995000D01*
%TO.C,A1*%
X139830000Y-92205000D02*
X139830000Y-74165000D01*
X96390000Y-92205000D02*
X139830000Y-92205000D01*
X96390000Y-74165000D02*
X96390000Y-92205000D01*
X99060000Y-76835000D02*
X99060000Y-74165000D01*
X134620000Y-76835000D02*
X99060000Y-76835000D01*
X134620000Y-76835000D02*
X134620000Y-74165000D01*
X99060000Y-89535000D02*
X99060000Y-92205000D01*
X137160000Y-89535000D02*
X99060000Y-89535000D01*
X137160000Y-89535000D02*
X137160000Y-92205000D01*
X139830000Y-74165000D02*
X137160000Y-74165000D01*
X134620000Y-74165000D02*
X96390000Y-74165000D01*
X137160000Y-76835000D02*
X137160000Y-74165000D01*
X134620000Y-76835000D02*
X137160000Y-76835000D01*
%TO.C,J2*%
D11*
X186991666Y-99782380D02*
X186991666Y-100496666D01*
X186944047Y-100639523D01*
X186848809Y-100734761D01*
X186705952Y-100782380D01*
X186610714Y-100782380D01*
X187420238Y-99877619D02*
X187467857Y-99830000D01*
X187563095Y-99782380D01*
X187801190Y-99782380D01*
X187896428Y-99830000D01*
X187944047Y-99877619D01*
X187991666Y-99972857D01*
X187991666Y-100068095D01*
X187944047Y-100210952D01*
X187372619Y-100782380D01*
X187991666Y-100782380D01*
%TO.C,U1*%
X147812380Y-85216904D02*
X148621904Y-85216904D01*
X148717142Y-85169285D01*
X148764761Y-85121666D01*
X148812380Y-85026428D01*
X148812380Y-84835952D01*
X148764761Y-84740714D01*
X148717142Y-84693095D01*
X148621904Y-84645476D01*
X147812380Y-84645476D01*
X148812380Y-83645476D02*
X148812380Y-84216904D01*
X148812380Y-83931190D02*
X147812380Y-83931190D01*
X147955238Y-84026428D01*
X148050476Y-84121666D01*
X148098095Y-84216904D01*
%TO.C,U2*%
X143108095Y-99782380D02*
X143108095Y-100591904D01*
X143155714Y-100687142D01*
X143203333Y-100734761D01*
X143298571Y-100782380D01*
X143489047Y-100782380D01*
X143584285Y-100734761D01*
X143631904Y-100687142D01*
X143679523Y-100591904D01*
X143679523Y-99782380D01*
X144108095Y-99877619D02*
X144155714Y-99830000D01*
X144250952Y-99782380D01*
X144489047Y-99782380D01*
X144584285Y-99830000D01*
X144631904Y-99877619D01*
X144679523Y-99972857D01*
X144679523Y-100068095D01*
X144631904Y-100210952D01*
X144060476Y-100782380D01*
X144679523Y-100782380D01*
%TO.C,SW1*%
X177101666Y-117879761D02*
X177244523Y-117927380D01*
X177482619Y-117927380D01*
X177577857Y-117879761D01*
X177625476Y-117832142D01*
X177673095Y-117736904D01*
X177673095Y-117641666D01*
X177625476Y-117546428D01*
X177577857Y-117498809D01*
X177482619Y-117451190D01*
X177292142Y-117403571D01*
X177196904Y-117355952D01*
X177149285Y-117308333D01*
X177101666Y-117213095D01*
X177101666Y-117117857D01*
X177149285Y-117022619D01*
X177196904Y-116975000D01*
X177292142Y-116927380D01*
X177530238Y-116927380D01*
X177673095Y-116975000D01*
X178006428Y-116927380D02*
X178244523Y-117927380D01*
X178435000Y-117213095D01*
X178625476Y-117927380D01*
X178863571Y-116927380D01*
X179768333Y-117927380D02*
X179196904Y-117927380D01*
X179482619Y-117927380D02*
X179482619Y-116927380D01*
X179387380Y-117070238D01*
X179292142Y-117165476D01*
X179196904Y-117213095D01*
%TO.C,J1*%
X94281666Y-106132380D02*
X94281666Y-106846666D01*
X94234047Y-106989523D01*
X94138809Y-107084761D01*
X93995952Y-107132380D01*
X93900714Y-107132380D01*
X95281666Y-107132380D02*
X94710238Y-107132380D01*
X94995952Y-107132380D02*
X94995952Y-106132380D01*
X94900714Y-106275238D01*
X94805476Y-106370476D01*
X94710238Y-106418095D01*
%TO.C,C4*%
X176383333Y-73342142D02*
X176335714Y-73389761D01*
X176192857Y-73437380D01*
X176097619Y-73437380D01*
X175954761Y-73389761D01*
X175859523Y-73294523D01*
X175811904Y-73199285D01*
X175764285Y-73008809D01*
X175764285Y-72865952D01*
X175811904Y-72675476D01*
X175859523Y-72580238D01*
X175954761Y-72485000D01*
X176097619Y-72437380D01*
X176192857Y-72437380D01*
X176335714Y-72485000D01*
X176383333Y-72532619D01*
X177240476Y-72770714D02*
X177240476Y-73437380D01*
X177002380Y-72389761D02*
X176764285Y-73104047D01*
X177383333Y-73104047D01*
%TO.C,C3*%
X185888333Y-81637142D02*
X185840714Y-81684761D01*
X185697857Y-81732380D01*
X185602619Y-81732380D01*
X185459761Y-81684761D01*
X185364523Y-81589523D01*
X185316904Y-81494285D01*
X185269285Y-81303809D01*
X185269285Y-81160952D01*
X185316904Y-80970476D01*
X185364523Y-80875238D01*
X185459761Y-80780000D01*
X185602619Y-80732380D01*
X185697857Y-80732380D01*
X185840714Y-80780000D01*
X185888333Y-80827619D01*
X186221666Y-80732380D02*
X186840714Y-80732380D01*
X186507380Y-81113333D01*
X186650238Y-81113333D01*
X186745476Y-81160952D01*
X186793095Y-81208571D01*
X186840714Y-81303809D01*
X186840714Y-81541904D01*
X186793095Y-81637142D01*
X186745476Y-81684761D01*
X186650238Y-81732380D01*
X186364523Y-81732380D01*
X186269285Y-81684761D01*
X186221666Y-81637142D01*
%TO.C,C2*%
X106033333Y-126892142D02*
X105985714Y-126939761D01*
X105842857Y-126987380D01*
X105747619Y-126987380D01*
X105604761Y-126939761D01*
X105509523Y-126844523D01*
X105461904Y-126749285D01*
X105414285Y-126558809D01*
X105414285Y-126415952D01*
X105461904Y-126225476D01*
X105509523Y-126130238D01*
X105604761Y-126035000D01*
X105747619Y-125987380D01*
X105842857Y-125987380D01*
X105985714Y-126035000D01*
X106033333Y-126082619D01*
X106414285Y-126082619D02*
X106461904Y-126035000D01*
X106557142Y-125987380D01*
X106795238Y-125987380D01*
X106890476Y-126035000D01*
X106938095Y-126082619D01*
X106985714Y-126177857D01*
X106985714Y-126273095D01*
X106938095Y-126415952D01*
X106366666Y-126987380D01*
X106985714Y-126987380D01*
%TO.C,C1*%
X112843333Y-124222142D02*
X112795714Y-124269761D01*
X112652857Y-124317380D01*
X112557619Y-124317380D01*
X112414761Y-124269761D01*
X112319523Y-124174523D01*
X112271904Y-124079285D01*
X112224285Y-123888809D01*
X112224285Y-123745952D01*
X112271904Y-123555476D01*
X112319523Y-123460238D01*
X112414761Y-123365000D01*
X112557619Y-123317380D01*
X112652857Y-123317380D01*
X112795714Y-123365000D01*
X112843333Y-123412619D01*
X113795714Y-124317380D02*
X113224285Y-124317380D01*
X113510000Y-124317380D02*
X113510000Y-123317380D01*
X113414761Y-123460238D01*
X113319523Y-123555476D01*
X113224285Y-123603095D01*
%TO.C,A1*%
X136445714Y-87796666D02*
X136921904Y-87796666D01*
X136350476Y-88082380D02*
X136683809Y-87082380D01*
X137017142Y-88082380D01*
X137874285Y-88082380D02*
X137302857Y-88082380D01*
X137588571Y-88082380D02*
X137588571Y-87082380D01*
X137493333Y-87225238D01*
X137398095Y-87320476D01*
X137302857Y-87368095D01*
%TD*%
M02*
