M48
; DRILL file {KiCad (5.1.6)-1} date 11/24/20 18:28:44
; FORMAT={-:-/ absolute / inch / decimal}
; #@! TF.CreationDate,2020-11-24T18:28:44-05:00
; #@! TF.GenerationSoftware,Kicad,Pcbnew,(5.1.6)-1
FMAT,2
INCH
T1C0.0315
T2C0.0394
T3C0.0472
T4C0.0787
T5C0.1260
T6C0.1260
%
G90
G05
T1
X4.1122Y-4.775
X4.25Y-4.775
X7.1122Y-3.025
X7.25Y-3.025
X6.9016Y-2.775
X7.0Y-2.775
X4.4Y-4.975
X4.4984Y-4.975
T2
X5.25Y-3.9419
X5.35Y-3.9419
X5.45Y-3.9419
X5.55Y-3.9419
X5.95Y-3.325
X6.05Y-3.325
X6.15Y-3.325
X6.25Y-3.325
X6.35Y-3.325
X6.45Y-3.325
X3.95Y-2.975
X3.95Y-3.575
X4.05Y-2.975
X4.05Y-3.575
X4.15Y-2.975
X4.15Y-3.575
X4.25Y-2.975
X4.25Y-3.575
X4.35Y-2.975
X4.35Y-3.575
X4.45Y-2.975
X4.45Y-3.575
X4.55Y-2.975
X4.55Y-3.575
X4.65Y-2.975
X4.65Y-3.575
X4.75Y-2.975
X4.75Y-3.575
X4.85Y-2.975
X4.85Y-3.575
X4.95Y-2.975
X4.95Y-3.575
X5.05Y-2.975
X5.05Y-3.575
X5.15Y-2.975
X5.15Y-3.575
X5.25Y-2.975
X5.25Y-3.575
X5.35Y-2.975
X5.35Y-3.575
X6.7531Y-4.175
X6.7531Y-4.7459
X6.8516Y-4.175
X6.95Y-4.175
X6.95Y-4.7459
T3
X7.25Y-3.375
X7.25Y-3.5128
X7.25Y-3.6506
X7.25Y-3.7884
T5
X7.3Y-2.675
X3.8Y-2.675
X3.8Y-4.975
T6
X7.3Y-4.975
T2
G00X3.9569Y-4.3492
M15
G01X3.9569Y-4.2508
M16
G05
G00X4.0258Y-4.485
M15
G01X4.1242Y-4.485
M16
G05
G00X4.1931Y-4.3492
M15
G01X4.1931Y-4.2508
M16
G05
T4
G00X6.6311Y-4.4604
M15
G01X6.6311Y-4.4801
M16
G05
G00X7.072Y-4.4604
M15
G01X7.072Y-4.4801
M16
G05
T0
M30
