%TF.GenerationSoftware,KiCad,Pcbnew,(5.1.6)-1*%
%TF.CreationDate,2020-11-24T18:28:39-05:00*%
%TF.ProjectId,ColorSensingLEDStrip,436f6c6f-7253-4656-9e73-696e674c4544,v1.0*%
%TF.SameCoordinates,Original*%
%TF.FileFunction,Copper,L1,Top*%
%TF.FilePolarity,Positive*%
%FSLAX46Y46*%
G04 Gerber Fmt 4.6, Leading zero omitted, Abs format (unit mm)*
G04 Created by KiCad (PCBNEW (5.1.6)-1) date 2020-11-24 18:28:39*
%MOMM*%
%LPD*%
G01*
G04 APERTURE LIST*
%TA.AperFunction,ComponentPad*%
%ADD10C,1.800000*%
%TD*%
%TA.AperFunction,ComponentPad*%
%ADD11C,6.400000*%
%TD*%
%TA.AperFunction,ComponentPad*%
%ADD12O,1.700000X1.700000*%
%TD*%
%TA.AperFunction,ComponentPad*%
%ADD13R,1.700000X1.700000*%
%TD*%
%TA.AperFunction,ComponentPad*%
%ADD14C,1.700000*%
%TD*%
%TA.AperFunction,ComponentPad*%
%ADD15R,2.000000X2.000000*%
%TD*%
%TA.AperFunction,ComponentPad*%
%ADD16C,2.000000*%
%TD*%
%TA.AperFunction,ComponentPad*%
%ADD17R,2.500000X3.000000*%
%TD*%
%TA.AperFunction,ComponentPad*%
%ADD18R,2.000000X4.500000*%
%TD*%
%TA.AperFunction,ComponentPad*%
%ADD19R,4.500000X2.000000*%
%TD*%
%TA.AperFunction,ComponentPad*%
%ADD20C,1.600000*%
%TD*%
%TA.AperFunction,ComponentPad*%
%ADD21R,1.600000X1.600000*%
%TD*%
%TA.AperFunction,ComponentPad*%
%ADD22O,1.600000X1.600000*%
%TD*%
%TA.AperFunction,Conductor*%
%ADD23C,1.270000*%
%TD*%
%TA.AperFunction,Conductor*%
%ADD24C,2.540000*%
%TD*%
%TA.AperFunction,Conductor*%
%ADD25C,0.250000*%
%TD*%
G04 APERTURE END LIST*
D10*
%TO.P,J2,4*%
%TO.N,GND*%
X184150000Y-96225000D03*
%TO.P,J2,3*%
%TO.N,LED_DI*%
X184150000Y-92725000D03*
%TO.P,J2,2*%
%TO.N,LED_CI*%
X184150000Y-89225000D03*
%TO.P,J2,1*%
%TO.N,+5V*%
X184150000Y-85725000D03*
%TD*%
D11*
%TO.P,REF\u002A\u002A,1*%
%TO.N,N/C*%
X96520000Y-126365000D03*
%TD*%
%TO.P,REF\u002A\u002A,1*%
%TO.N,N/C*%
X96520000Y-67945000D03*
%TD*%
%TO.P,REF\u002A\u002A,1*%
%TO.N,N/C*%
X185420000Y-67945000D03*
%TD*%
%TO.P,REF\u002A\u002A,1*%
%TO.N,N/C*%
X185420000Y-126365000D03*
%TD*%
D12*
%TO.P,U1,6*%
%TO.N,Net-(U1-Pad6)*%
X163830000Y-84455000D03*
%TO.P,U1,5*%
%TO.N,Net-(U1-Pad5)*%
X161290000Y-84455000D03*
%TO.P,U1,4*%
%TO.N,I2C_SDA*%
X158750000Y-84455000D03*
%TO.P,U1,3*%
%TO.N,I2C_SCL*%
X156210000Y-84455000D03*
%TO.P,U1,2*%
%TO.N,GND*%
X153670000Y-84455000D03*
D13*
%TO.P,U1,1*%
%TO.N,+5V*%
X151130000Y-84455000D03*
%TD*%
D14*
%TO.P,U2,4*%
%TO.N,I2C_SDA*%
X140970000Y-100125000D03*
%TO.P,U2,3*%
%TO.N,I2C_SCL*%
X138430000Y-100125000D03*
%TO.P,U2,2*%
%TO.N,+5V*%
X135890000Y-100125000D03*
D13*
%TO.P,U2,1*%
%TO.N,GND*%
X133350000Y-100125000D03*
%TD*%
D15*
%TO.P,SW1,A*%
%TO.N,ENCODER_A*%
X176530000Y-106045000D03*
D16*
%TO.P,SW1,C*%
%TO.N,GND*%
X174030000Y-106045000D03*
%TO.P,SW1,B*%
%TO.N,ENCODER_B*%
X171530000Y-106045000D03*
D17*
%TO.P,SW1,MP*%
%TO.N,N/C*%
X179630000Y-113545000D03*
X168430000Y-113545000D03*
D16*
%TO.P,SW1,S1*%
%TO.N,ENCODER_SW*%
X176530000Y-120545000D03*
%TO.P,SW1,S2*%
%TO.N,GND*%
X171530000Y-120545000D03*
%TD*%
D18*
%TO.P,J1,2*%
%TO.N,GND*%
X100505000Y-109220000D03*
%TO.P,J1,1*%
%TO.N,+5V*%
X106505000Y-109220000D03*
D19*
%TO.P,J1,3*%
%TO.N,Net-(J1-Pad3)*%
X103505000Y-113920000D03*
%TD*%
D20*
%TO.P,C4,2*%
%TO.N,GND*%
X175300000Y-70485000D03*
%TO.P,C4,1*%
%TO.N,+5V*%
X177800000Y-70485000D03*
%TD*%
%TO.P,C3,2*%
%TO.N,GND*%
X180650000Y-76835000D03*
D21*
%TO.P,C3,1*%
%TO.N,+5V*%
X184150000Y-76835000D03*
%TD*%
D20*
%TO.P,C2,2*%
%TO.N,GND*%
X104450000Y-121285000D03*
D21*
%TO.P,C2,1*%
%TO.N,+5V*%
X107950000Y-121285000D03*
%TD*%
D20*
%TO.P,C1,2*%
%TO.N,GND*%
X114260000Y-126365000D03*
%TO.P,C1,1*%
%TO.N,+5V*%
X111760000Y-126365000D03*
%TD*%
D22*
%TO.P,A1,16*%
%TO.N,Net-(A1-Pad16)*%
X100330000Y-90805000D03*
%TO.P,A1,15*%
%TO.N,Net-(A1-Pad15)*%
X100330000Y-75565000D03*
%TO.P,A1,30*%
%TO.N,Net-(A1-Pad30)*%
X135890000Y-90805000D03*
%TO.P,A1,14*%
%TO.N,Net-(A1-Pad14)*%
X102870000Y-75565000D03*
%TO.P,A1,29*%
%TO.N,GND*%
X133350000Y-90805000D03*
%TO.P,A1,13*%
%TO.N,Net-(A1-Pad13)*%
X105410000Y-75565000D03*
%TO.P,A1,28*%
%TO.N,Net-(A1-Pad28)*%
X130810000Y-90805000D03*
%TO.P,A1,12*%
%TO.N,Net-(A1-Pad12)*%
X107950000Y-75565000D03*
%TO.P,A1,27*%
%TO.N,+5V*%
X128270000Y-90805000D03*
%TO.P,A1,11*%
%TO.N,Net-(A1-Pad11)*%
X110490000Y-75565000D03*
%TO.P,A1,26*%
%TO.N,Net-(A1-Pad26)*%
X125730000Y-90805000D03*
%TO.P,A1,10*%
%TO.N,Net-(A1-Pad10)*%
X113030000Y-75565000D03*
%TO.P,A1,25*%
%TO.N,Net-(A1-Pad25)*%
X123190000Y-90805000D03*
%TO.P,A1,9*%
%TO.N,Net-(A1-Pad9)*%
X115570000Y-75565000D03*
%TO.P,A1,24*%
%TO.N,I2C_SCL*%
X120650000Y-90805000D03*
%TO.P,A1,8*%
%TO.N,LED_DI*%
X118110000Y-75565000D03*
%TO.P,A1,23*%
%TO.N,I2C_SDA*%
X118110000Y-90805000D03*
%TO.P,A1,7*%
%TO.N,LED_CI*%
X120650000Y-75565000D03*
%TO.P,A1,22*%
%TO.N,Net-(A1-Pad22)*%
X115570000Y-90805000D03*
%TO.P,A1,6*%
%TO.N,Net-(A1-Pad6)*%
X123190000Y-75565000D03*
%TO.P,A1,21*%
%TO.N,ENCODER_B*%
X113030000Y-90805000D03*
%TO.P,A1,5*%
%TO.N,Net-(A1-Pad5)*%
X125730000Y-75565000D03*
%TO.P,A1,20*%
%TO.N,ENCODER_A*%
X110490000Y-90805000D03*
%TO.P,A1,4*%
%TO.N,GND*%
X128270000Y-75565000D03*
%TO.P,A1,19*%
%TO.N,ENCODER_SW*%
X107950000Y-90805000D03*
%TO.P,A1,3*%
%TO.N,Net-(A1-Pad3)*%
X130810000Y-75565000D03*
%TO.P,A1,18*%
%TO.N,Net-(A1-Pad18)*%
X105410000Y-90805000D03*
%TO.P,A1,2*%
%TO.N,Net-(A1-Pad2)*%
X133350000Y-75565000D03*
%TO.P,A1,17*%
%TO.N,Net-(A1-Pad17)*%
X102870000Y-90805000D03*
D21*
%TO.P,A1,1*%
%TO.N,Net-(A1-Pad1)*%
X135890000Y-75565000D03*
%TD*%
D23*
%TO.N,+5V*%
X184150000Y-76835000D02*
X177800000Y-70485000D01*
X107950000Y-110665000D02*
X107950000Y-121285000D01*
X106505000Y-109220000D02*
X107950000Y-110665000D01*
X107950000Y-122555000D02*
X111760000Y-126365000D01*
X107950000Y-121285000D02*
X107950000Y-122555000D01*
X128270000Y-90805000D02*
X122555000Y-85090000D01*
X122555000Y-85090000D02*
X121920000Y-84455000D01*
X151130000Y-84455000D02*
X121920000Y-84455000D01*
X121920000Y-84455000D02*
X97790000Y-84455000D01*
D24*
X184150000Y-85725000D02*
X178435000Y-85725000D01*
X178435000Y-85725000D02*
X160020000Y-67310000D01*
D23*
X173990000Y-66675000D02*
X177800000Y-70485000D01*
X160020000Y-67310000D02*
X160655000Y-66675000D01*
X160655000Y-66675000D02*
X173990000Y-66675000D01*
D24*
X97155000Y-74930000D02*
X104775000Y-67310000D01*
X97155000Y-97155000D02*
X97155000Y-74930000D01*
X104775000Y-67310000D02*
X160020000Y-67310000D01*
X106505000Y-109220000D02*
X106505000Y-106505000D01*
X106505000Y-106505000D02*
X97155000Y-97155000D01*
D23*
X128270000Y-90805000D02*
X135890000Y-98425000D01*
X135890000Y-98425000D02*
X135890000Y-100125000D01*
D25*
%TO.N,I2C_SCL*%
X132715000Y-102870000D02*
X120650000Y-90805000D01*
X138430000Y-102870000D02*
X138430000Y-100125000D01*
X138430000Y-102870000D02*
X132715000Y-102870000D01*
X156210000Y-84455000D02*
X144145000Y-96520000D01*
X144145000Y-96520000D02*
X138430000Y-96520000D01*
X138430000Y-96520000D02*
X138430000Y-100125000D01*
%TO.N,LED_DI*%
X184150000Y-92725000D02*
X176545000Y-92725000D01*
X176545000Y-92725000D02*
X164465000Y-80645000D01*
X123190000Y-80645000D02*
X118110000Y-75565000D01*
X164465000Y-80645000D02*
X123190000Y-80645000D01*
%TO.N,I2C_SDA*%
X132080000Y-104775000D02*
X118110000Y-90805000D01*
X140970000Y-100125000D02*
X140970000Y-104775000D01*
X140970000Y-104775000D02*
X132080000Y-104775000D01*
X158750000Y-84455000D02*
X144780000Y-98425000D01*
X144780000Y-98425000D02*
X140970000Y-98425000D01*
X140970000Y-98425000D02*
X140970000Y-100125000D01*
%TO.N,LED_CI*%
X123825000Y-78740000D02*
X120650000Y-75565000D01*
X165100000Y-78740000D02*
X123825000Y-78740000D01*
X184150000Y-89225000D02*
X175585000Y-89225000D01*
X175585000Y-89225000D02*
X165100000Y-78740000D01*
%TO.N,ENCODER_B*%
X113030000Y-90805000D02*
X129540000Y-107315000D01*
X170260000Y-107315000D02*
X171530000Y-106045000D01*
X129540000Y-107315000D02*
X170260000Y-107315000D01*
%TO.N,ENCODER_A*%
X176530000Y-106680000D02*
X176530000Y-106045000D01*
X173990000Y-109220000D02*
X176530000Y-106680000D01*
X110490000Y-90805000D02*
X128905000Y-109220000D01*
X128905000Y-109220000D02*
X173990000Y-109220000D01*
%TO.N,ENCODER_SW*%
X107950000Y-90805000D02*
X107950000Y-100330000D01*
X107950000Y-100330000D02*
X130810000Y-123190000D01*
X171345000Y-125730000D02*
X171397500Y-125677500D01*
X133350000Y-125730000D02*
X171345000Y-125730000D01*
X130810000Y-123190000D02*
X133350000Y-125730000D01*
X176530000Y-120545000D02*
X171397500Y-125677500D01*
%TD*%
M02*
