%TF.GenerationSoftware,KiCad,Pcbnew,(5.1.6)-1*%
%TF.CreationDate,2020-11-24T18:28:39-05:00*%
%TF.ProjectId,ColorSensingLEDStrip,436f6c6f-7253-4656-9e73-696e674c4544,v1.0*%
%TF.SameCoordinates,Original*%
%TF.FileFunction,Soldermask,Top*%
%TF.FilePolarity,Negative*%
%FSLAX46Y46*%
G04 Gerber Fmt 4.6, Leading zero omitted, Abs format (unit mm)*
G04 Created by KiCad (PCBNEW (5.1.6)-1) date 2020-11-24 18:28:39*
%MOMM*%
%LPD*%
G01*
G04 APERTURE LIST*
%ADD10C,1.900000*%
%ADD11C,6.500000*%
%ADD12O,1.800000X1.800000*%
%ADD13R,1.800000X1.800000*%
%ADD14C,1.800000*%
%ADD15R,2.100000X2.100000*%
%ADD16C,2.100000*%
%ADD17R,2.600000X3.100000*%
%ADD18R,2.100000X4.600000*%
%ADD19R,4.600000X2.100000*%
%ADD20C,1.700000*%
%ADD21R,1.700000X1.700000*%
%ADD22O,1.700000X1.700000*%
G04 APERTURE END LIST*
D10*
%TO.C,J2*%
X184150000Y-96225000D03*
X184150000Y-92725000D03*
X184150000Y-89225000D03*
X184150000Y-85725000D03*
%TD*%
D11*
%TO.C,REF\u002A\u002A*%
X96520000Y-126365000D03*
%TD*%
%TO.C,REF\u002A\u002A*%
X96520000Y-67945000D03*
%TD*%
%TO.C,REF\u002A\u002A*%
X185420000Y-67945000D03*
%TD*%
%TO.C,REF\u002A\u002A*%
X185420000Y-126365000D03*
%TD*%
D12*
%TO.C,U1*%
X163830000Y-84455000D03*
X161290000Y-84455000D03*
X158750000Y-84455000D03*
X156210000Y-84455000D03*
X153670000Y-84455000D03*
D13*
X151130000Y-84455000D03*
%TD*%
D14*
%TO.C,U2*%
X140970000Y-100125000D03*
X138430000Y-100125000D03*
X135890000Y-100125000D03*
D13*
X133350000Y-100125000D03*
%TD*%
D15*
%TO.C,SW1*%
X176530000Y-106045000D03*
D16*
X174030000Y-106045000D03*
X171530000Y-106045000D03*
D17*
X179630000Y-113545000D03*
X168430000Y-113545000D03*
D16*
X176530000Y-120545000D03*
X171530000Y-120545000D03*
%TD*%
D18*
%TO.C,J1*%
X100505000Y-109220000D03*
X106505000Y-109220000D03*
D19*
X103505000Y-113920000D03*
%TD*%
D20*
%TO.C,C4*%
X175300000Y-70485000D03*
X177800000Y-70485000D03*
%TD*%
%TO.C,C3*%
X180650000Y-76835000D03*
D21*
X184150000Y-76835000D03*
%TD*%
D20*
%TO.C,C2*%
X104450000Y-121285000D03*
D21*
X107950000Y-121285000D03*
%TD*%
D20*
%TO.C,C1*%
X114260000Y-126365000D03*
X111760000Y-126365000D03*
%TD*%
D22*
%TO.C,A1*%
X100330000Y-90805000D03*
X100330000Y-75565000D03*
X135890000Y-90805000D03*
X102870000Y-75565000D03*
X133350000Y-90805000D03*
X105410000Y-75565000D03*
X130810000Y-90805000D03*
X107950000Y-75565000D03*
X128270000Y-90805000D03*
X110490000Y-75565000D03*
X125730000Y-90805000D03*
X113030000Y-75565000D03*
X123190000Y-90805000D03*
X115570000Y-75565000D03*
X120650000Y-90805000D03*
X118110000Y-75565000D03*
X118110000Y-90805000D03*
X120650000Y-75565000D03*
X115570000Y-90805000D03*
X123190000Y-75565000D03*
X113030000Y-90805000D03*
X125730000Y-75565000D03*
X110490000Y-90805000D03*
X128270000Y-75565000D03*
X107950000Y-90805000D03*
X130810000Y-75565000D03*
X105410000Y-90805000D03*
X133350000Y-75565000D03*
X102870000Y-90805000D03*
D21*
X135890000Y-75565000D03*
%TD*%
M02*
