%TF.GenerationSoftware,KiCad,Pcbnew,(5.1.6)-1*%
%TF.CreationDate,2020-11-24T18:28:39-05:00*%
%TF.ProjectId,ColorSensingLEDStrip,436f6c6f-7253-4656-9e73-696e674c4544,v1.0*%
%TF.SameCoordinates,Original*%
%TF.FileFunction,Copper,L2,Bot*%
%TF.FilePolarity,Positive*%
%FSLAX46Y46*%
G04 Gerber Fmt 4.6, Leading zero omitted, Abs format (unit mm)*
G04 Created by KiCad (PCBNEW (5.1.6)-1) date 2020-11-24 18:28:39*
%MOMM*%
%LPD*%
G01*
G04 APERTURE LIST*
%TA.AperFunction,ComponentPad*%
%ADD10C,1.800000*%
%TD*%
%TA.AperFunction,ComponentPad*%
%ADD11C,6.400000*%
%TD*%
%TA.AperFunction,ComponentPad*%
%ADD12O,1.700000X1.700000*%
%TD*%
%TA.AperFunction,ComponentPad*%
%ADD13R,1.700000X1.700000*%
%TD*%
%TA.AperFunction,ComponentPad*%
%ADD14C,1.700000*%
%TD*%
%TA.AperFunction,ComponentPad*%
%ADD15R,2.000000X2.000000*%
%TD*%
%TA.AperFunction,ComponentPad*%
%ADD16C,2.000000*%
%TD*%
%TA.AperFunction,ComponentPad*%
%ADD17R,2.500000X3.000000*%
%TD*%
%TA.AperFunction,ComponentPad*%
%ADD18R,2.000000X4.500000*%
%TD*%
%TA.AperFunction,ComponentPad*%
%ADD19R,4.500000X2.000000*%
%TD*%
%TA.AperFunction,ComponentPad*%
%ADD20C,1.600000*%
%TD*%
%TA.AperFunction,ComponentPad*%
%ADD21R,1.600000X1.600000*%
%TD*%
%TA.AperFunction,ComponentPad*%
%ADD22O,1.600000X1.600000*%
%TD*%
%TA.AperFunction,Conductor*%
%ADD23C,0.254000*%
%TD*%
G04 APERTURE END LIST*
D10*
%TO.P,J2,4*%
%TO.N,GND*%
X184150000Y-96225000D03*
%TO.P,J2,3*%
%TO.N,LED_DI*%
X184150000Y-92725000D03*
%TO.P,J2,2*%
%TO.N,LED_CI*%
X184150000Y-89225000D03*
%TO.P,J2,1*%
%TO.N,+5V*%
X184150000Y-85725000D03*
%TD*%
D11*
%TO.P,REF\u002A\u002A,1*%
%TO.N,N/C*%
X96520000Y-126365000D03*
%TD*%
%TO.P,REF\u002A\u002A,1*%
%TO.N,N/C*%
X96520000Y-67945000D03*
%TD*%
%TO.P,REF\u002A\u002A,1*%
%TO.N,N/C*%
X185420000Y-67945000D03*
%TD*%
%TO.P,REF\u002A\u002A,1*%
%TO.N,N/C*%
X185420000Y-126365000D03*
%TD*%
D12*
%TO.P,U1,6*%
%TO.N,Net-(U1-Pad6)*%
X163830000Y-84455000D03*
%TO.P,U1,5*%
%TO.N,Net-(U1-Pad5)*%
X161290000Y-84455000D03*
%TO.P,U1,4*%
%TO.N,I2C_SDA*%
X158750000Y-84455000D03*
%TO.P,U1,3*%
%TO.N,I2C_SCL*%
X156210000Y-84455000D03*
%TO.P,U1,2*%
%TO.N,GND*%
X153670000Y-84455000D03*
D13*
%TO.P,U1,1*%
%TO.N,+5V*%
X151130000Y-84455000D03*
%TD*%
D14*
%TO.P,U2,4*%
%TO.N,I2C_SDA*%
X140970000Y-100125000D03*
%TO.P,U2,3*%
%TO.N,I2C_SCL*%
X138430000Y-100125000D03*
%TO.P,U2,2*%
%TO.N,+5V*%
X135890000Y-100125000D03*
D13*
%TO.P,U2,1*%
%TO.N,GND*%
X133350000Y-100125000D03*
%TD*%
D15*
%TO.P,SW1,A*%
%TO.N,ENCODER_A*%
X176530000Y-106045000D03*
D16*
%TO.P,SW1,C*%
%TO.N,GND*%
X174030000Y-106045000D03*
%TO.P,SW1,B*%
%TO.N,ENCODER_B*%
X171530000Y-106045000D03*
D17*
%TO.P,SW1,MP*%
%TO.N,N/C*%
X179630000Y-113545000D03*
X168430000Y-113545000D03*
D16*
%TO.P,SW1,S1*%
%TO.N,ENCODER_SW*%
X176530000Y-120545000D03*
%TO.P,SW1,S2*%
%TO.N,GND*%
X171530000Y-120545000D03*
%TD*%
D18*
%TO.P,J1,2*%
%TO.N,GND*%
X100505000Y-109220000D03*
%TO.P,J1,1*%
%TO.N,+5V*%
X106505000Y-109220000D03*
D19*
%TO.P,J1,3*%
%TO.N,Net-(J1-Pad3)*%
X103505000Y-113920000D03*
%TD*%
D20*
%TO.P,C4,2*%
%TO.N,GND*%
X175300000Y-70485000D03*
%TO.P,C4,1*%
%TO.N,+5V*%
X177800000Y-70485000D03*
%TD*%
%TO.P,C3,2*%
%TO.N,GND*%
X180650000Y-76835000D03*
D21*
%TO.P,C3,1*%
%TO.N,+5V*%
X184150000Y-76835000D03*
%TD*%
D20*
%TO.P,C2,2*%
%TO.N,GND*%
X104450000Y-121285000D03*
D21*
%TO.P,C2,1*%
%TO.N,+5V*%
X107950000Y-121285000D03*
%TD*%
D20*
%TO.P,C1,2*%
%TO.N,GND*%
X114260000Y-126365000D03*
%TO.P,C1,1*%
%TO.N,+5V*%
X111760000Y-126365000D03*
%TD*%
D22*
%TO.P,A1,16*%
%TO.N,Net-(A1-Pad16)*%
X100330000Y-90805000D03*
%TO.P,A1,15*%
%TO.N,Net-(A1-Pad15)*%
X100330000Y-75565000D03*
%TO.P,A1,30*%
%TO.N,Net-(A1-Pad30)*%
X135890000Y-90805000D03*
%TO.P,A1,14*%
%TO.N,Net-(A1-Pad14)*%
X102870000Y-75565000D03*
%TO.P,A1,29*%
%TO.N,GND*%
X133350000Y-90805000D03*
%TO.P,A1,13*%
%TO.N,Net-(A1-Pad13)*%
X105410000Y-75565000D03*
%TO.P,A1,28*%
%TO.N,Net-(A1-Pad28)*%
X130810000Y-90805000D03*
%TO.P,A1,12*%
%TO.N,Net-(A1-Pad12)*%
X107950000Y-75565000D03*
%TO.P,A1,27*%
%TO.N,+5V*%
X128270000Y-90805000D03*
%TO.P,A1,11*%
%TO.N,Net-(A1-Pad11)*%
X110490000Y-75565000D03*
%TO.P,A1,26*%
%TO.N,Net-(A1-Pad26)*%
X125730000Y-90805000D03*
%TO.P,A1,10*%
%TO.N,Net-(A1-Pad10)*%
X113030000Y-75565000D03*
%TO.P,A1,25*%
%TO.N,Net-(A1-Pad25)*%
X123190000Y-90805000D03*
%TO.P,A1,9*%
%TO.N,Net-(A1-Pad9)*%
X115570000Y-75565000D03*
%TO.P,A1,24*%
%TO.N,I2C_SCL*%
X120650000Y-90805000D03*
%TO.P,A1,8*%
%TO.N,LED_DI*%
X118110000Y-75565000D03*
%TO.P,A1,23*%
%TO.N,I2C_SDA*%
X118110000Y-90805000D03*
%TO.P,A1,7*%
%TO.N,LED_CI*%
X120650000Y-75565000D03*
%TO.P,A1,22*%
%TO.N,Net-(A1-Pad22)*%
X115570000Y-90805000D03*
%TO.P,A1,6*%
%TO.N,Net-(A1-Pad6)*%
X123190000Y-75565000D03*
%TO.P,A1,21*%
%TO.N,ENCODER_B*%
X113030000Y-90805000D03*
%TO.P,A1,5*%
%TO.N,Net-(A1-Pad5)*%
X125730000Y-75565000D03*
%TO.P,A1,20*%
%TO.N,ENCODER_A*%
X110490000Y-90805000D03*
%TO.P,A1,4*%
%TO.N,GND*%
X128270000Y-75565000D03*
%TO.P,A1,19*%
%TO.N,ENCODER_SW*%
X107950000Y-90805000D03*
%TO.P,A1,3*%
%TO.N,Net-(A1-Pad3)*%
X130810000Y-75565000D03*
%TO.P,A1,18*%
%TO.N,Net-(A1-Pad18)*%
X105410000Y-90805000D03*
%TO.P,A1,2*%
%TO.N,Net-(A1-Pad2)*%
X133350000Y-75565000D03*
%TO.P,A1,17*%
%TO.N,Net-(A1-Pad17)*%
X102870000Y-90805000D03*
D21*
%TO.P,A1,1*%
%TO.N,Net-(A1-Pad1)*%
X135890000Y-75565000D03*
%TD*%
D23*
%TO.N,GND*%
G36*
X189840000Y-130785000D02*
G01*
X92100000Y-130785000D01*
X92100000Y-125987285D01*
X92685000Y-125987285D01*
X92685000Y-126742715D01*
X92832377Y-127483628D01*
X93121467Y-128181554D01*
X93541161Y-128809670D01*
X94075330Y-129343839D01*
X94703446Y-129763533D01*
X95401372Y-130052623D01*
X96142285Y-130200000D01*
X96897715Y-130200000D01*
X97638628Y-130052623D01*
X98336554Y-129763533D01*
X98964670Y-129343839D01*
X99498839Y-128809670D01*
X99918533Y-128181554D01*
X100207623Y-127483628D01*
X100355000Y-126742715D01*
X100355000Y-126223665D01*
X110325000Y-126223665D01*
X110325000Y-126506335D01*
X110380147Y-126783574D01*
X110488320Y-127044727D01*
X110645363Y-127279759D01*
X110845241Y-127479637D01*
X111080273Y-127636680D01*
X111341426Y-127744853D01*
X111618665Y-127800000D01*
X111901335Y-127800000D01*
X112178574Y-127744853D01*
X112439727Y-127636680D01*
X112674759Y-127479637D01*
X112796694Y-127357702D01*
X113446903Y-127357702D01*
X113518486Y-127601671D01*
X113773996Y-127722571D01*
X114048184Y-127791300D01*
X114330512Y-127805217D01*
X114610130Y-127763787D01*
X114876292Y-127668603D01*
X115001514Y-127601671D01*
X115073097Y-127357702D01*
X114260000Y-126544605D01*
X113446903Y-127357702D01*
X112796694Y-127357702D01*
X112874637Y-127279759D01*
X113008692Y-127079131D01*
X113023329Y-127106514D01*
X113267298Y-127178097D01*
X114080395Y-126365000D01*
X114439605Y-126365000D01*
X115252702Y-127178097D01*
X115496671Y-127106514D01*
X115617571Y-126851004D01*
X115686300Y-126576816D01*
X115700217Y-126294488D01*
X115658787Y-126014870D01*
X115648923Y-125987285D01*
X181585000Y-125987285D01*
X181585000Y-126742715D01*
X181732377Y-127483628D01*
X182021467Y-128181554D01*
X182441161Y-128809670D01*
X182975330Y-129343839D01*
X183603446Y-129763533D01*
X184301372Y-130052623D01*
X185042285Y-130200000D01*
X185797715Y-130200000D01*
X186538628Y-130052623D01*
X187236554Y-129763533D01*
X187864670Y-129343839D01*
X188398839Y-128809670D01*
X188818533Y-128181554D01*
X189107623Y-127483628D01*
X189255000Y-126742715D01*
X189255000Y-125987285D01*
X189107623Y-125246372D01*
X188818533Y-124548446D01*
X188398839Y-123920330D01*
X187864670Y-123386161D01*
X187236554Y-122966467D01*
X186538628Y-122677377D01*
X185797715Y-122530000D01*
X185042285Y-122530000D01*
X184301372Y-122677377D01*
X183603446Y-122966467D01*
X182975330Y-123386161D01*
X182441161Y-123920330D01*
X182021467Y-124548446D01*
X181732377Y-125246372D01*
X181585000Y-125987285D01*
X115648923Y-125987285D01*
X115563603Y-125748708D01*
X115496671Y-125623486D01*
X115252702Y-125551903D01*
X114439605Y-126365000D01*
X114080395Y-126365000D01*
X113267298Y-125551903D01*
X113023329Y-125623486D01*
X113009676Y-125652341D01*
X112874637Y-125450241D01*
X112796694Y-125372298D01*
X113446903Y-125372298D01*
X114260000Y-126185395D01*
X115073097Y-125372298D01*
X115001514Y-125128329D01*
X114746004Y-125007429D01*
X114471816Y-124938700D01*
X114189488Y-124924783D01*
X113909870Y-124966213D01*
X113643708Y-125061397D01*
X113518486Y-125128329D01*
X113446903Y-125372298D01*
X112796694Y-125372298D01*
X112674759Y-125250363D01*
X112439727Y-125093320D01*
X112178574Y-124985147D01*
X111901335Y-124930000D01*
X111618665Y-124930000D01*
X111341426Y-124985147D01*
X111080273Y-125093320D01*
X110845241Y-125250363D01*
X110645363Y-125450241D01*
X110488320Y-125685273D01*
X110380147Y-125946426D01*
X110325000Y-126223665D01*
X100355000Y-126223665D01*
X100355000Y-125987285D01*
X100207623Y-125246372D01*
X99918533Y-124548446D01*
X99498839Y-123920330D01*
X98964670Y-123386161D01*
X98336554Y-122966467D01*
X97638628Y-122677377D01*
X96897715Y-122530000D01*
X96142285Y-122530000D01*
X95401372Y-122677377D01*
X94703446Y-122966467D01*
X94075330Y-123386161D01*
X93541161Y-123920330D01*
X93121467Y-124548446D01*
X92832377Y-125246372D01*
X92685000Y-125987285D01*
X92100000Y-125987285D01*
X92100000Y-122277702D01*
X103636903Y-122277702D01*
X103708486Y-122521671D01*
X103963996Y-122642571D01*
X104238184Y-122711300D01*
X104520512Y-122725217D01*
X104800130Y-122683787D01*
X105066292Y-122588603D01*
X105191514Y-122521671D01*
X105263097Y-122277702D01*
X104450000Y-121464605D01*
X103636903Y-122277702D01*
X92100000Y-122277702D01*
X92100000Y-121355512D01*
X103009783Y-121355512D01*
X103051213Y-121635130D01*
X103146397Y-121901292D01*
X103213329Y-122026514D01*
X103457298Y-122098097D01*
X104270395Y-121285000D01*
X104629605Y-121285000D01*
X105442702Y-122098097D01*
X105686671Y-122026514D01*
X105807571Y-121771004D01*
X105876300Y-121496816D01*
X105890217Y-121214488D01*
X105848787Y-120934870D01*
X105753603Y-120668708D01*
X105686671Y-120543486D01*
X105487340Y-120485000D01*
X106511928Y-120485000D01*
X106511928Y-122085000D01*
X106524188Y-122209482D01*
X106560498Y-122329180D01*
X106619463Y-122439494D01*
X106698815Y-122536185D01*
X106795506Y-122615537D01*
X106905820Y-122674502D01*
X107025518Y-122710812D01*
X107150000Y-122723072D01*
X108750000Y-122723072D01*
X108874482Y-122710812D01*
X108994180Y-122674502D01*
X109104494Y-122615537D01*
X109201185Y-122536185D01*
X109280537Y-122439494D01*
X109339502Y-122329180D01*
X109375812Y-122209482D01*
X109388072Y-122085000D01*
X109388072Y-121680413D01*
X170574192Y-121680413D01*
X170669956Y-121944814D01*
X170959571Y-122085704D01*
X171271108Y-122167384D01*
X171592595Y-122186718D01*
X171911675Y-122142961D01*
X172216088Y-122037795D01*
X172390044Y-121944814D01*
X172485808Y-121680413D01*
X171530000Y-120724605D01*
X170574192Y-121680413D01*
X109388072Y-121680413D01*
X109388072Y-120607595D01*
X169888282Y-120607595D01*
X169932039Y-120926675D01*
X170037205Y-121231088D01*
X170130186Y-121405044D01*
X170394587Y-121500808D01*
X171350395Y-120545000D01*
X171709605Y-120545000D01*
X172665413Y-121500808D01*
X172929814Y-121405044D01*
X173070704Y-121115429D01*
X173152384Y-120803892D01*
X173171718Y-120482405D01*
X173158219Y-120383967D01*
X174895000Y-120383967D01*
X174895000Y-120706033D01*
X174957832Y-121021912D01*
X175081082Y-121319463D01*
X175260013Y-121587252D01*
X175487748Y-121814987D01*
X175755537Y-121993918D01*
X176053088Y-122117168D01*
X176368967Y-122180000D01*
X176691033Y-122180000D01*
X177006912Y-122117168D01*
X177304463Y-121993918D01*
X177572252Y-121814987D01*
X177799987Y-121587252D01*
X177978918Y-121319463D01*
X178102168Y-121021912D01*
X178165000Y-120706033D01*
X178165000Y-120383967D01*
X178102168Y-120068088D01*
X177978918Y-119770537D01*
X177799987Y-119502748D01*
X177572252Y-119275013D01*
X177304463Y-119096082D01*
X177006912Y-118972832D01*
X176691033Y-118910000D01*
X176368967Y-118910000D01*
X176053088Y-118972832D01*
X175755537Y-119096082D01*
X175487748Y-119275013D01*
X175260013Y-119502748D01*
X175081082Y-119770537D01*
X174957832Y-120068088D01*
X174895000Y-120383967D01*
X173158219Y-120383967D01*
X173127961Y-120163325D01*
X173022795Y-119858912D01*
X172929814Y-119684956D01*
X172665413Y-119589192D01*
X171709605Y-120545000D01*
X171350395Y-120545000D01*
X170394587Y-119589192D01*
X170130186Y-119684956D01*
X169989296Y-119974571D01*
X169907616Y-120286108D01*
X169888282Y-120607595D01*
X109388072Y-120607595D01*
X109388072Y-120485000D01*
X109375812Y-120360518D01*
X109339502Y-120240820D01*
X109280537Y-120130506D01*
X109201185Y-120033815D01*
X109104494Y-119954463D01*
X108994180Y-119895498D01*
X108874482Y-119859188D01*
X108750000Y-119846928D01*
X107150000Y-119846928D01*
X107025518Y-119859188D01*
X106905820Y-119895498D01*
X106795506Y-119954463D01*
X106698815Y-120033815D01*
X106619463Y-120130506D01*
X106560498Y-120240820D01*
X106524188Y-120360518D01*
X106511928Y-120485000D01*
X105487340Y-120485000D01*
X105442702Y-120471903D01*
X104629605Y-121285000D01*
X104270395Y-121285000D01*
X103457298Y-120471903D01*
X103213329Y-120543486D01*
X103092429Y-120798996D01*
X103023700Y-121073184D01*
X103009783Y-121355512D01*
X92100000Y-121355512D01*
X92100000Y-120292298D01*
X103636903Y-120292298D01*
X104450000Y-121105395D01*
X105263097Y-120292298D01*
X105191514Y-120048329D01*
X104936004Y-119927429D01*
X104661816Y-119858700D01*
X104379488Y-119844783D01*
X104099870Y-119886213D01*
X103833708Y-119981397D01*
X103708486Y-120048329D01*
X103636903Y-120292298D01*
X92100000Y-120292298D01*
X92100000Y-119409587D01*
X170574192Y-119409587D01*
X171530000Y-120365395D01*
X172485808Y-119409587D01*
X172390044Y-119145186D01*
X172100429Y-119004296D01*
X171788892Y-118922616D01*
X171467405Y-118903282D01*
X171148325Y-118947039D01*
X170843912Y-119052205D01*
X170669956Y-119145186D01*
X170574192Y-119409587D01*
X92100000Y-119409587D01*
X92100000Y-112920000D01*
X100616928Y-112920000D01*
X100616928Y-114920000D01*
X100629188Y-115044482D01*
X100665498Y-115164180D01*
X100724463Y-115274494D01*
X100803815Y-115371185D01*
X100900506Y-115450537D01*
X101010820Y-115509502D01*
X101130518Y-115545812D01*
X101255000Y-115558072D01*
X105755000Y-115558072D01*
X105879482Y-115545812D01*
X105999180Y-115509502D01*
X106109494Y-115450537D01*
X106206185Y-115371185D01*
X106285537Y-115274494D01*
X106344502Y-115164180D01*
X106380812Y-115044482D01*
X106393072Y-114920000D01*
X106393072Y-112920000D01*
X106380812Y-112795518D01*
X106344502Y-112675820D01*
X106285537Y-112565506D01*
X106206185Y-112468815D01*
X106109494Y-112389463D01*
X105999180Y-112330498D01*
X105879482Y-112294188D01*
X105755000Y-112281928D01*
X101255000Y-112281928D01*
X101130518Y-112294188D01*
X101010820Y-112330498D01*
X100900506Y-112389463D01*
X100803815Y-112468815D01*
X100724463Y-112565506D01*
X100665498Y-112675820D01*
X100629188Y-112795518D01*
X100616928Y-112920000D01*
X92100000Y-112920000D01*
X92100000Y-111470000D01*
X98866928Y-111470000D01*
X98879188Y-111594482D01*
X98915498Y-111714180D01*
X98974463Y-111824494D01*
X99053815Y-111921185D01*
X99150506Y-112000537D01*
X99260820Y-112059502D01*
X99380518Y-112095812D01*
X99505000Y-112108072D01*
X100219250Y-112105000D01*
X100378000Y-111946250D01*
X100378000Y-109347000D01*
X100632000Y-109347000D01*
X100632000Y-111946250D01*
X100790750Y-112105000D01*
X101505000Y-112108072D01*
X101629482Y-112095812D01*
X101749180Y-112059502D01*
X101859494Y-112000537D01*
X101956185Y-111921185D01*
X102035537Y-111824494D01*
X102094502Y-111714180D01*
X102130812Y-111594482D01*
X102143072Y-111470000D01*
X102140000Y-109505750D01*
X101981250Y-109347000D01*
X100632000Y-109347000D01*
X100378000Y-109347000D01*
X99028750Y-109347000D01*
X98870000Y-109505750D01*
X98866928Y-111470000D01*
X92100000Y-111470000D01*
X92100000Y-106970000D01*
X98866928Y-106970000D01*
X98870000Y-108934250D01*
X99028750Y-109093000D01*
X100378000Y-109093000D01*
X100378000Y-106493750D01*
X100632000Y-106493750D01*
X100632000Y-109093000D01*
X101981250Y-109093000D01*
X102140000Y-108934250D01*
X102143072Y-106970000D01*
X104866928Y-106970000D01*
X104866928Y-111470000D01*
X104879188Y-111594482D01*
X104915498Y-111714180D01*
X104974463Y-111824494D01*
X105053815Y-111921185D01*
X105150506Y-112000537D01*
X105260820Y-112059502D01*
X105380518Y-112095812D01*
X105505000Y-112108072D01*
X107505000Y-112108072D01*
X107629482Y-112095812D01*
X107749180Y-112059502D01*
X107776310Y-112045000D01*
X166541928Y-112045000D01*
X166541928Y-115045000D01*
X166554188Y-115169482D01*
X166590498Y-115289180D01*
X166649463Y-115399494D01*
X166728815Y-115496185D01*
X166825506Y-115575537D01*
X166935820Y-115634502D01*
X167055518Y-115670812D01*
X167180000Y-115683072D01*
X169680000Y-115683072D01*
X169804482Y-115670812D01*
X169924180Y-115634502D01*
X170034494Y-115575537D01*
X170131185Y-115496185D01*
X170210537Y-115399494D01*
X170269502Y-115289180D01*
X170305812Y-115169482D01*
X170318072Y-115045000D01*
X170318072Y-112045000D01*
X177741928Y-112045000D01*
X177741928Y-115045000D01*
X177754188Y-115169482D01*
X177790498Y-115289180D01*
X177849463Y-115399494D01*
X177928815Y-115496185D01*
X178025506Y-115575537D01*
X178135820Y-115634502D01*
X178255518Y-115670812D01*
X178380000Y-115683072D01*
X180880000Y-115683072D01*
X181004482Y-115670812D01*
X181124180Y-115634502D01*
X181234494Y-115575537D01*
X181331185Y-115496185D01*
X181410537Y-115399494D01*
X181469502Y-115289180D01*
X181505812Y-115169482D01*
X181518072Y-115045000D01*
X181518072Y-112045000D01*
X181505812Y-111920518D01*
X181469502Y-111800820D01*
X181410537Y-111690506D01*
X181331185Y-111593815D01*
X181234494Y-111514463D01*
X181124180Y-111455498D01*
X181004482Y-111419188D01*
X180880000Y-111406928D01*
X178380000Y-111406928D01*
X178255518Y-111419188D01*
X178135820Y-111455498D01*
X178025506Y-111514463D01*
X177928815Y-111593815D01*
X177849463Y-111690506D01*
X177790498Y-111800820D01*
X177754188Y-111920518D01*
X177741928Y-112045000D01*
X170318072Y-112045000D01*
X170305812Y-111920518D01*
X170269502Y-111800820D01*
X170210537Y-111690506D01*
X170131185Y-111593815D01*
X170034494Y-111514463D01*
X169924180Y-111455498D01*
X169804482Y-111419188D01*
X169680000Y-111406928D01*
X167180000Y-111406928D01*
X167055518Y-111419188D01*
X166935820Y-111455498D01*
X166825506Y-111514463D01*
X166728815Y-111593815D01*
X166649463Y-111690506D01*
X166590498Y-111800820D01*
X166554188Y-111920518D01*
X166541928Y-112045000D01*
X107776310Y-112045000D01*
X107859494Y-112000537D01*
X107956185Y-111921185D01*
X108035537Y-111824494D01*
X108094502Y-111714180D01*
X108130812Y-111594482D01*
X108143072Y-111470000D01*
X108143072Y-106970000D01*
X108130812Y-106845518D01*
X108094502Y-106725820D01*
X108035537Y-106615506D01*
X107956185Y-106518815D01*
X107859494Y-106439463D01*
X107749180Y-106380498D01*
X107629482Y-106344188D01*
X107505000Y-106331928D01*
X105505000Y-106331928D01*
X105380518Y-106344188D01*
X105260820Y-106380498D01*
X105150506Y-106439463D01*
X105053815Y-106518815D01*
X104974463Y-106615506D01*
X104915498Y-106725820D01*
X104879188Y-106845518D01*
X104866928Y-106970000D01*
X102143072Y-106970000D01*
X102130812Y-106845518D01*
X102094502Y-106725820D01*
X102035537Y-106615506D01*
X101956185Y-106518815D01*
X101859494Y-106439463D01*
X101749180Y-106380498D01*
X101629482Y-106344188D01*
X101505000Y-106331928D01*
X100790750Y-106335000D01*
X100632000Y-106493750D01*
X100378000Y-106493750D01*
X100219250Y-106335000D01*
X99505000Y-106331928D01*
X99380518Y-106344188D01*
X99260820Y-106380498D01*
X99150506Y-106439463D01*
X99053815Y-106518815D01*
X98974463Y-106615506D01*
X98915498Y-106725820D01*
X98879188Y-106845518D01*
X98866928Y-106970000D01*
X92100000Y-106970000D01*
X92100000Y-105883967D01*
X169895000Y-105883967D01*
X169895000Y-106206033D01*
X169957832Y-106521912D01*
X170081082Y-106819463D01*
X170260013Y-107087252D01*
X170487748Y-107314987D01*
X170755537Y-107493918D01*
X171053088Y-107617168D01*
X171368967Y-107680000D01*
X171691033Y-107680000D01*
X172006912Y-107617168D01*
X172304463Y-107493918D01*
X172572252Y-107314987D01*
X172799987Y-107087252D01*
X172864925Y-106990065D01*
X172894587Y-107000808D01*
X173850395Y-106045000D01*
X172894587Y-105089192D01*
X172864925Y-105099935D01*
X172799987Y-105002748D01*
X172706826Y-104909587D01*
X173074192Y-104909587D01*
X174030000Y-105865395D01*
X174044143Y-105851253D01*
X174223748Y-106030858D01*
X174209605Y-106045000D01*
X174223748Y-106059143D01*
X174044143Y-106238748D01*
X174030000Y-106224605D01*
X173074192Y-107180413D01*
X173169956Y-107444814D01*
X173459571Y-107585704D01*
X173771108Y-107667384D01*
X174092595Y-107686718D01*
X174411675Y-107642961D01*
X174716088Y-107537795D01*
X174890044Y-107444814D01*
X174944024Y-107295777D01*
X174999463Y-107399494D01*
X175078815Y-107496185D01*
X175175506Y-107575537D01*
X175285820Y-107634502D01*
X175405518Y-107670812D01*
X175530000Y-107683072D01*
X177530000Y-107683072D01*
X177654482Y-107670812D01*
X177774180Y-107634502D01*
X177884494Y-107575537D01*
X177981185Y-107496185D01*
X178060537Y-107399494D01*
X178119502Y-107289180D01*
X178155812Y-107169482D01*
X178168072Y-107045000D01*
X178168072Y-105045000D01*
X178155812Y-104920518D01*
X178119502Y-104800820D01*
X178060537Y-104690506D01*
X177981185Y-104593815D01*
X177884494Y-104514463D01*
X177774180Y-104455498D01*
X177654482Y-104419188D01*
X177530000Y-104406928D01*
X175530000Y-104406928D01*
X175405518Y-104419188D01*
X175285820Y-104455498D01*
X175175506Y-104514463D01*
X175078815Y-104593815D01*
X174999463Y-104690506D01*
X174944024Y-104794223D01*
X174890044Y-104645186D01*
X174600429Y-104504296D01*
X174288892Y-104422616D01*
X173967405Y-104403282D01*
X173648325Y-104447039D01*
X173343912Y-104552205D01*
X173169956Y-104645186D01*
X173074192Y-104909587D01*
X172706826Y-104909587D01*
X172572252Y-104775013D01*
X172304463Y-104596082D01*
X172006912Y-104472832D01*
X171691033Y-104410000D01*
X171368967Y-104410000D01*
X171053088Y-104472832D01*
X170755537Y-104596082D01*
X170487748Y-104775013D01*
X170260013Y-105002748D01*
X170081082Y-105270537D01*
X169957832Y-105568088D01*
X169895000Y-105883967D01*
X92100000Y-105883967D01*
X92100000Y-100975000D01*
X131861928Y-100975000D01*
X131874188Y-101099482D01*
X131910498Y-101219180D01*
X131969463Y-101329494D01*
X132048815Y-101426185D01*
X132145506Y-101505537D01*
X132255820Y-101564502D01*
X132375518Y-101600812D01*
X132500000Y-101613072D01*
X133064250Y-101610000D01*
X133223000Y-101451250D01*
X133223000Y-100252000D01*
X132023750Y-100252000D01*
X131865000Y-100410750D01*
X131861928Y-100975000D01*
X92100000Y-100975000D01*
X92100000Y-99275000D01*
X131861928Y-99275000D01*
X131865000Y-99839250D01*
X132023750Y-99998000D01*
X133223000Y-99998000D01*
X133223000Y-98798750D01*
X133477000Y-98798750D01*
X133477000Y-99998000D01*
X133497000Y-99998000D01*
X133497000Y-100252000D01*
X133477000Y-100252000D01*
X133477000Y-101451250D01*
X133635750Y-101610000D01*
X134200000Y-101613072D01*
X134324482Y-101600812D01*
X134444180Y-101564502D01*
X134554494Y-101505537D01*
X134651185Y-101426185D01*
X134730537Y-101329494D01*
X134789502Y-101219180D01*
X134811513Y-101146620D01*
X134943368Y-101278475D01*
X135186589Y-101440990D01*
X135456842Y-101552932D01*
X135743740Y-101610000D01*
X136036260Y-101610000D01*
X136323158Y-101552932D01*
X136593411Y-101440990D01*
X136836632Y-101278475D01*
X137043475Y-101071632D01*
X137160000Y-100897240D01*
X137276525Y-101071632D01*
X137483368Y-101278475D01*
X137726589Y-101440990D01*
X137996842Y-101552932D01*
X138283740Y-101610000D01*
X138576260Y-101610000D01*
X138863158Y-101552932D01*
X139133411Y-101440990D01*
X139376632Y-101278475D01*
X139583475Y-101071632D01*
X139700000Y-100897240D01*
X139816525Y-101071632D01*
X140023368Y-101278475D01*
X140266589Y-101440990D01*
X140536842Y-101552932D01*
X140823740Y-101610000D01*
X141116260Y-101610000D01*
X141403158Y-101552932D01*
X141673411Y-101440990D01*
X141916632Y-101278475D01*
X142123475Y-101071632D01*
X142285990Y-100828411D01*
X142397932Y-100558158D01*
X142455000Y-100271260D01*
X142455000Y-99978740D01*
X142397932Y-99691842D01*
X142285990Y-99421589D01*
X142123475Y-99178368D01*
X141916632Y-98971525D01*
X141673411Y-98809010D01*
X141403158Y-98697068D01*
X141116260Y-98640000D01*
X140823740Y-98640000D01*
X140536842Y-98697068D01*
X140266589Y-98809010D01*
X140023368Y-98971525D01*
X139816525Y-99178368D01*
X139700000Y-99352760D01*
X139583475Y-99178368D01*
X139376632Y-98971525D01*
X139133411Y-98809010D01*
X138863158Y-98697068D01*
X138576260Y-98640000D01*
X138283740Y-98640000D01*
X137996842Y-98697068D01*
X137726589Y-98809010D01*
X137483368Y-98971525D01*
X137276525Y-99178368D01*
X137160000Y-99352760D01*
X137043475Y-99178368D01*
X136836632Y-98971525D01*
X136593411Y-98809010D01*
X136323158Y-98697068D01*
X136036260Y-98640000D01*
X135743740Y-98640000D01*
X135456842Y-98697068D01*
X135186589Y-98809010D01*
X134943368Y-98971525D01*
X134811513Y-99103380D01*
X134789502Y-99030820D01*
X134730537Y-98920506D01*
X134651185Y-98823815D01*
X134554494Y-98744463D01*
X134444180Y-98685498D01*
X134324482Y-98649188D01*
X134200000Y-98636928D01*
X133635750Y-98640000D01*
X133477000Y-98798750D01*
X133223000Y-98798750D01*
X133064250Y-98640000D01*
X132500000Y-98636928D01*
X132375518Y-98649188D01*
X132255820Y-98685498D01*
X132145506Y-98744463D01*
X132048815Y-98823815D01*
X131969463Y-98920506D01*
X131910498Y-99030820D01*
X131874188Y-99150518D01*
X131861928Y-99275000D01*
X92100000Y-99275000D01*
X92100000Y-97289080D01*
X183265525Y-97289080D01*
X183349208Y-97543261D01*
X183621775Y-97674158D01*
X183914642Y-97749365D01*
X184216553Y-97765991D01*
X184515907Y-97723397D01*
X184801199Y-97623222D01*
X184950792Y-97543261D01*
X185034475Y-97289080D01*
X184150000Y-96404605D01*
X183265525Y-97289080D01*
X92100000Y-97289080D01*
X92100000Y-96291553D01*
X182609009Y-96291553D01*
X182651603Y-96590907D01*
X182751778Y-96876199D01*
X182831739Y-97025792D01*
X183085920Y-97109475D01*
X183970395Y-96225000D01*
X184329605Y-96225000D01*
X185214080Y-97109475D01*
X185468261Y-97025792D01*
X185599158Y-96753225D01*
X185674365Y-96460358D01*
X185690991Y-96158447D01*
X185648397Y-95859093D01*
X185548222Y-95573801D01*
X185468261Y-95424208D01*
X185214080Y-95340525D01*
X184329605Y-96225000D01*
X183970395Y-96225000D01*
X183085920Y-95340525D01*
X182831739Y-95424208D01*
X182700842Y-95696775D01*
X182625635Y-95989642D01*
X182609009Y-96291553D01*
X92100000Y-96291553D01*
X92100000Y-95160920D01*
X183265525Y-95160920D01*
X184150000Y-96045395D01*
X185034475Y-95160920D01*
X184950792Y-94906739D01*
X184678225Y-94775842D01*
X184385358Y-94700635D01*
X184083447Y-94684009D01*
X183784093Y-94726603D01*
X183498801Y-94826778D01*
X183349208Y-94906739D01*
X183265525Y-95160920D01*
X92100000Y-95160920D01*
X92100000Y-92573816D01*
X182615000Y-92573816D01*
X182615000Y-92876184D01*
X182673989Y-93172743D01*
X182789701Y-93452095D01*
X182957688Y-93703505D01*
X183171495Y-93917312D01*
X183422905Y-94085299D01*
X183702257Y-94201011D01*
X183998816Y-94260000D01*
X184301184Y-94260000D01*
X184597743Y-94201011D01*
X184877095Y-94085299D01*
X185128505Y-93917312D01*
X185342312Y-93703505D01*
X185510299Y-93452095D01*
X185626011Y-93172743D01*
X185685000Y-92876184D01*
X185685000Y-92573816D01*
X185626011Y-92277257D01*
X185510299Y-91997905D01*
X185342312Y-91746495D01*
X185128505Y-91532688D01*
X184877095Y-91364701D01*
X184597743Y-91248989D01*
X184301184Y-91190000D01*
X183998816Y-91190000D01*
X183702257Y-91248989D01*
X183422905Y-91364701D01*
X183171495Y-91532688D01*
X182957688Y-91746495D01*
X182789701Y-91997905D01*
X182673989Y-92277257D01*
X182615000Y-92573816D01*
X92100000Y-92573816D01*
X92100000Y-90663665D01*
X98895000Y-90663665D01*
X98895000Y-90946335D01*
X98950147Y-91223574D01*
X99058320Y-91484727D01*
X99215363Y-91719759D01*
X99415241Y-91919637D01*
X99650273Y-92076680D01*
X99911426Y-92184853D01*
X100188665Y-92240000D01*
X100471335Y-92240000D01*
X100748574Y-92184853D01*
X101009727Y-92076680D01*
X101244759Y-91919637D01*
X101444637Y-91719759D01*
X101600000Y-91487241D01*
X101755363Y-91719759D01*
X101955241Y-91919637D01*
X102190273Y-92076680D01*
X102451426Y-92184853D01*
X102728665Y-92240000D01*
X103011335Y-92240000D01*
X103288574Y-92184853D01*
X103549727Y-92076680D01*
X103784759Y-91919637D01*
X103984637Y-91719759D01*
X104140000Y-91487241D01*
X104295363Y-91719759D01*
X104495241Y-91919637D01*
X104730273Y-92076680D01*
X104991426Y-92184853D01*
X105268665Y-92240000D01*
X105551335Y-92240000D01*
X105828574Y-92184853D01*
X106089727Y-92076680D01*
X106324759Y-91919637D01*
X106524637Y-91719759D01*
X106680000Y-91487241D01*
X106835363Y-91719759D01*
X107035241Y-91919637D01*
X107270273Y-92076680D01*
X107531426Y-92184853D01*
X107808665Y-92240000D01*
X108091335Y-92240000D01*
X108368574Y-92184853D01*
X108629727Y-92076680D01*
X108864759Y-91919637D01*
X109064637Y-91719759D01*
X109220000Y-91487241D01*
X109375363Y-91719759D01*
X109575241Y-91919637D01*
X109810273Y-92076680D01*
X110071426Y-92184853D01*
X110348665Y-92240000D01*
X110631335Y-92240000D01*
X110908574Y-92184853D01*
X111169727Y-92076680D01*
X111404759Y-91919637D01*
X111604637Y-91719759D01*
X111760000Y-91487241D01*
X111915363Y-91719759D01*
X112115241Y-91919637D01*
X112350273Y-92076680D01*
X112611426Y-92184853D01*
X112888665Y-92240000D01*
X113171335Y-92240000D01*
X113448574Y-92184853D01*
X113709727Y-92076680D01*
X113944759Y-91919637D01*
X114144637Y-91719759D01*
X114300000Y-91487241D01*
X114455363Y-91719759D01*
X114655241Y-91919637D01*
X114890273Y-92076680D01*
X115151426Y-92184853D01*
X115428665Y-92240000D01*
X115711335Y-92240000D01*
X115988574Y-92184853D01*
X116249727Y-92076680D01*
X116484759Y-91919637D01*
X116684637Y-91719759D01*
X116840000Y-91487241D01*
X116995363Y-91719759D01*
X117195241Y-91919637D01*
X117430273Y-92076680D01*
X117691426Y-92184853D01*
X117968665Y-92240000D01*
X118251335Y-92240000D01*
X118528574Y-92184853D01*
X118789727Y-92076680D01*
X119024759Y-91919637D01*
X119224637Y-91719759D01*
X119380000Y-91487241D01*
X119535363Y-91719759D01*
X119735241Y-91919637D01*
X119970273Y-92076680D01*
X120231426Y-92184853D01*
X120508665Y-92240000D01*
X120791335Y-92240000D01*
X121068574Y-92184853D01*
X121329727Y-92076680D01*
X121564759Y-91919637D01*
X121764637Y-91719759D01*
X121920000Y-91487241D01*
X122075363Y-91719759D01*
X122275241Y-91919637D01*
X122510273Y-92076680D01*
X122771426Y-92184853D01*
X123048665Y-92240000D01*
X123331335Y-92240000D01*
X123608574Y-92184853D01*
X123869727Y-92076680D01*
X124104759Y-91919637D01*
X124304637Y-91719759D01*
X124460000Y-91487241D01*
X124615363Y-91719759D01*
X124815241Y-91919637D01*
X125050273Y-92076680D01*
X125311426Y-92184853D01*
X125588665Y-92240000D01*
X125871335Y-92240000D01*
X126148574Y-92184853D01*
X126409727Y-92076680D01*
X126644759Y-91919637D01*
X126844637Y-91719759D01*
X127000000Y-91487241D01*
X127155363Y-91719759D01*
X127355241Y-91919637D01*
X127590273Y-92076680D01*
X127851426Y-92184853D01*
X128128665Y-92240000D01*
X128411335Y-92240000D01*
X128688574Y-92184853D01*
X128949727Y-92076680D01*
X129184759Y-91919637D01*
X129384637Y-91719759D01*
X129540000Y-91487241D01*
X129695363Y-91719759D01*
X129895241Y-91919637D01*
X130130273Y-92076680D01*
X130391426Y-92184853D01*
X130668665Y-92240000D01*
X130951335Y-92240000D01*
X131228574Y-92184853D01*
X131489727Y-92076680D01*
X131724759Y-91919637D01*
X131924637Y-91719759D01*
X132081680Y-91484727D01*
X132086067Y-91474135D01*
X132197615Y-91660131D01*
X132386586Y-91868519D01*
X132612580Y-92036037D01*
X132866913Y-92156246D01*
X133000961Y-92196904D01*
X133223000Y-92074915D01*
X133223000Y-90932000D01*
X133203000Y-90932000D01*
X133203000Y-90678000D01*
X133223000Y-90678000D01*
X133223000Y-89535085D01*
X133477000Y-89535085D01*
X133477000Y-90678000D01*
X133497000Y-90678000D01*
X133497000Y-90932000D01*
X133477000Y-90932000D01*
X133477000Y-92074915D01*
X133699039Y-92196904D01*
X133833087Y-92156246D01*
X134087420Y-92036037D01*
X134313414Y-91868519D01*
X134502385Y-91660131D01*
X134613933Y-91474135D01*
X134618320Y-91484727D01*
X134775363Y-91719759D01*
X134975241Y-91919637D01*
X135210273Y-92076680D01*
X135471426Y-92184853D01*
X135748665Y-92240000D01*
X136031335Y-92240000D01*
X136308574Y-92184853D01*
X136569727Y-92076680D01*
X136804759Y-91919637D01*
X137004637Y-91719759D01*
X137161680Y-91484727D01*
X137269853Y-91223574D01*
X137325000Y-90946335D01*
X137325000Y-90663665D01*
X137269853Y-90386426D01*
X137161680Y-90125273D01*
X137004637Y-89890241D01*
X136804759Y-89690363D01*
X136569727Y-89533320D01*
X136308574Y-89425147D01*
X136031335Y-89370000D01*
X135748665Y-89370000D01*
X135471426Y-89425147D01*
X135210273Y-89533320D01*
X134975241Y-89690363D01*
X134775363Y-89890241D01*
X134618320Y-90125273D01*
X134613933Y-90135865D01*
X134502385Y-89949869D01*
X134313414Y-89741481D01*
X134087420Y-89573963D01*
X133833087Y-89453754D01*
X133699039Y-89413096D01*
X133477000Y-89535085D01*
X133223000Y-89535085D01*
X133000961Y-89413096D01*
X132866913Y-89453754D01*
X132612580Y-89573963D01*
X132386586Y-89741481D01*
X132197615Y-89949869D01*
X132086067Y-90135865D01*
X132081680Y-90125273D01*
X131924637Y-89890241D01*
X131724759Y-89690363D01*
X131489727Y-89533320D01*
X131228574Y-89425147D01*
X130951335Y-89370000D01*
X130668665Y-89370000D01*
X130391426Y-89425147D01*
X130130273Y-89533320D01*
X129895241Y-89690363D01*
X129695363Y-89890241D01*
X129540000Y-90122759D01*
X129384637Y-89890241D01*
X129184759Y-89690363D01*
X128949727Y-89533320D01*
X128688574Y-89425147D01*
X128411335Y-89370000D01*
X128128665Y-89370000D01*
X127851426Y-89425147D01*
X127590273Y-89533320D01*
X127355241Y-89690363D01*
X127155363Y-89890241D01*
X127000000Y-90122759D01*
X126844637Y-89890241D01*
X126644759Y-89690363D01*
X126409727Y-89533320D01*
X126148574Y-89425147D01*
X125871335Y-89370000D01*
X125588665Y-89370000D01*
X125311426Y-89425147D01*
X125050273Y-89533320D01*
X124815241Y-89690363D01*
X124615363Y-89890241D01*
X124460000Y-90122759D01*
X124304637Y-89890241D01*
X124104759Y-89690363D01*
X123869727Y-89533320D01*
X123608574Y-89425147D01*
X123331335Y-89370000D01*
X123048665Y-89370000D01*
X122771426Y-89425147D01*
X122510273Y-89533320D01*
X122275241Y-89690363D01*
X122075363Y-89890241D01*
X121920000Y-90122759D01*
X121764637Y-89890241D01*
X121564759Y-89690363D01*
X121329727Y-89533320D01*
X121068574Y-89425147D01*
X120791335Y-89370000D01*
X120508665Y-89370000D01*
X120231426Y-89425147D01*
X119970273Y-89533320D01*
X119735241Y-89690363D01*
X119535363Y-89890241D01*
X119380000Y-90122759D01*
X119224637Y-89890241D01*
X119024759Y-89690363D01*
X118789727Y-89533320D01*
X118528574Y-89425147D01*
X118251335Y-89370000D01*
X117968665Y-89370000D01*
X117691426Y-89425147D01*
X117430273Y-89533320D01*
X117195241Y-89690363D01*
X116995363Y-89890241D01*
X116840000Y-90122759D01*
X116684637Y-89890241D01*
X116484759Y-89690363D01*
X116249727Y-89533320D01*
X115988574Y-89425147D01*
X115711335Y-89370000D01*
X115428665Y-89370000D01*
X115151426Y-89425147D01*
X114890273Y-89533320D01*
X114655241Y-89690363D01*
X114455363Y-89890241D01*
X114300000Y-90122759D01*
X114144637Y-89890241D01*
X113944759Y-89690363D01*
X113709727Y-89533320D01*
X113448574Y-89425147D01*
X113171335Y-89370000D01*
X112888665Y-89370000D01*
X112611426Y-89425147D01*
X112350273Y-89533320D01*
X112115241Y-89690363D01*
X111915363Y-89890241D01*
X111760000Y-90122759D01*
X111604637Y-89890241D01*
X111404759Y-89690363D01*
X111169727Y-89533320D01*
X110908574Y-89425147D01*
X110631335Y-89370000D01*
X110348665Y-89370000D01*
X110071426Y-89425147D01*
X109810273Y-89533320D01*
X109575241Y-89690363D01*
X109375363Y-89890241D01*
X109220000Y-90122759D01*
X109064637Y-89890241D01*
X108864759Y-89690363D01*
X108629727Y-89533320D01*
X108368574Y-89425147D01*
X108091335Y-89370000D01*
X107808665Y-89370000D01*
X107531426Y-89425147D01*
X107270273Y-89533320D01*
X107035241Y-89690363D01*
X106835363Y-89890241D01*
X106680000Y-90122759D01*
X106524637Y-89890241D01*
X106324759Y-89690363D01*
X106089727Y-89533320D01*
X105828574Y-89425147D01*
X105551335Y-89370000D01*
X105268665Y-89370000D01*
X104991426Y-89425147D01*
X104730273Y-89533320D01*
X104495241Y-89690363D01*
X104295363Y-89890241D01*
X104140000Y-90122759D01*
X103984637Y-89890241D01*
X103784759Y-89690363D01*
X103549727Y-89533320D01*
X103288574Y-89425147D01*
X103011335Y-89370000D01*
X102728665Y-89370000D01*
X102451426Y-89425147D01*
X102190273Y-89533320D01*
X101955241Y-89690363D01*
X101755363Y-89890241D01*
X101600000Y-90122759D01*
X101444637Y-89890241D01*
X101244759Y-89690363D01*
X101009727Y-89533320D01*
X100748574Y-89425147D01*
X100471335Y-89370000D01*
X100188665Y-89370000D01*
X99911426Y-89425147D01*
X99650273Y-89533320D01*
X99415241Y-89690363D01*
X99215363Y-89890241D01*
X99058320Y-90125273D01*
X98950147Y-90386426D01*
X98895000Y-90663665D01*
X92100000Y-90663665D01*
X92100000Y-89073816D01*
X182615000Y-89073816D01*
X182615000Y-89376184D01*
X182673989Y-89672743D01*
X182789701Y-89952095D01*
X182957688Y-90203505D01*
X183171495Y-90417312D01*
X183422905Y-90585299D01*
X183702257Y-90701011D01*
X183998816Y-90760000D01*
X184301184Y-90760000D01*
X184597743Y-90701011D01*
X184877095Y-90585299D01*
X185128505Y-90417312D01*
X185342312Y-90203505D01*
X185510299Y-89952095D01*
X185626011Y-89672743D01*
X185685000Y-89376184D01*
X185685000Y-89073816D01*
X185626011Y-88777257D01*
X185510299Y-88497905D01*
X185342312Y-88246495D01*
X185128505Y-88032688D01*
X184877095Y-87864701D01*
X184597743Y-87748989D01*
X184301184Y-87690000D01*
X183998816Y-87690000D01*
X183702257Y-87748989D01*
X183422905Y-87864701D01*
X183171495Y-88032688D01*
X182957688Y-88246495D01*
X182789701Y-88497905D01*
X182673989Y-88777257D01*
X182615000Y-89073816D01*
X92100000Y-89073816D01*
X92100000Y-83605000D01*
X149641928Y-83605000D01*
X149641928Y-85305000D01*
X149654188Y-85429482D01*
X149690498Y-85549180D01*
X149749463Y-85659494D01*
X149828815Y-85756185D01*
X149925506Y-85835537D01*
X150035820Y-85894502D01*
X150155518Y-85930812D01*
X150280000Y-85943072D01*
X151980000Y-85943072D01*
X152104482Y-85930812D01*
X152224180Y-85894502D01*
X152334494Y-85835537D01*
X152431185Y-85756185D01*
X152510537Y-85659494D01*
X152569502Y-85549180D01*
X152593966Y-85468534D01*
X152669731Y-85552588D01*
X152903080Y-85726641D01*
X153165901Y-85851825D01*
X153313110Y-85896476D01*
X153543000Y-85775155D01*
X153543000Y-84582000D01*
X153523000Y-84582000D01*
X153523000Y-84328000D01*
X153543000Y-84328000D01*
X153543000Y-83134845D01*
X153797000Y-83134845D01*
X153797000Y-84328000D01*
X153817000Y-84328000D01*
X153817000Y-84582000D01*
X153797000Y-84582000D01*
X153797000Y-85775155D01*
X154026890Y-85896476D01*
X154174099Y-85851825D01*
X154436920Y-85726641D01*
X154670269Y-85552588D01*
X154865178Y-85336355D01*
X154934805Y-85219466D01*
X155056525Y-85401632D01*
X155263368Y-85608475D01*
X155506589Y-85770990D01*
X155776842Y-85882932D01*
X156063740Y-85940000D01*
X156356260Y-85940000D01*
X156643158Y-85882932D01*
X156913411Y-85770990D01*
X157156632Y-85608475D01*
X157363475Y-85401632D01*
X157480000Y-85227240D01*
X157596525Y-85401632D01*
X157803368Y-85608475D01*
X158046589Y-85770990D01*
X158316842Y-85882932D01*
X158603740Y-85940000D01*
X158896260Y-85940000D01*
X159183158Y-85882932D01*
X159453411Y-85770990D01*
X159696632Y-85608475D01*
X159903475Y-85401632D01*
X160020000Y-85227240D01*
X160136525Y-85401632D01*
X160343368Y-85608475D01*
X160586589Y-85770990D01*
X160856842Y-85882932D01*
X161143740Y-85940000D01*
X161436260Y-85940000D01*
X161723158Y-85882932D01*
X161993411Y-85770990D01*
X162236632Y-85608475D01*
X162443475Y-85401632D01*
X162560000Y-85227240D01*
X162676525Y-85401632D01*
X162883368Y-85608475D01*
X163126589Y-85770990D01*
X163396842Y-85882932D01*
X163683740Y-85940000D01*
X163976260Y-85940000D01*
X164263158Y-85882932D01*
X164533411Y-85770990D01*
X164776632Y-85608475D01*
X164811291Y-85573816D01*
X182615000Y-85573816D01*
X182615000Y-85876184D01*
X182673989Y-86172743D01*
X182789701Y-86452095D01*
X182957688Y-86703505D01*
X183171495Y-86917312D01*
X183422905Y-87085299D01*
X183702257Y-87201011D01*
X183998816Y-87260000D01*
X184301184Y-87260000D01*
X184597743Y-87201011D01*
X184877095Y-87085299D01*
X185128505Y-86917312D01*
X185342312Y-86703505D01*
X185510299Y-86452095D01*
X185626011Y-86172743D01*
X185685000Y-85876184D01*
X185685000Y-85573816D01*
X185626011Y-85277257D01*
X185510299Y-84997905D01*
X185342312Y-84746495D01*
X185128505Y-84532688D01*
X184877095Y-84364701D01*
X184597743Y-84248989D01*
X184301184Y-84190000D01*
X183998816Y-84190000D01*
X183702257Y-84248989D01*
X183422905Y-84364701D01*
X183171495Y-84532688D01*
X182957688Y-84746495D01*
X182789701Y-84997905D01*
X182673989Y-85277257D01*
X182615000Y-85573816D01*
X164811291Y-85573816D01*
X164983475Y-85401632D01*
X165145990Y-85158411D01*
X165257932Y-84888158D01*
X165315000Y-84601260D01*
X165315000Y-84308740D01*
X165257932Y-84021842D01*
X165145990Y-83751589D01*
X164983475Y-83508368D01*
X164776632Y-83301525D01*
X164533411Y-83139010D01*
X164263158Y-83027068D01*
X163976260Y-82970000D01*
X163683740Y-82970000D01*
X163396842Y-83027068D01*
X163126589Y-83139010D01*
X162883368Y-83301525D01*
X162676525Y-83508368D01*
X162560000Y-83682760D01*
X162443475Y-83508368D01*
X162236632Y-83301525D01*
X161993411Y-83139010D01*
X161723158Y-83027068D01*
X161436260Y-82970000D01*
X161143740Y-82970000D01*
X160856842Y-83027068D01*
X160586589Y-83139010D01*
X160343368Y-83301525D01*
X160136525Y-83508368D01*
X160020000Y-83682760D01*
X159903475Y-83508368D01*
X159696632Y-83301525D01*
X159453411Y-83139010D01*
X159183158Y-83027068D01*
X158896260Y-82970000D01*
X158603740Y-82970000D01*
X158316842Y-83027068D01*
X158046589Y-83139010D01*
X157803368Y-83301525D01*
X157596525Y-83508368D01*
X157480000Y-83682760D01*
X157363475Y-83508368D01*
X157156632Y-83301525D01*
X156913411Y-83139010D01*
X156643158Y-83027068D01*
X156356260Y-82970000D01*
X156063740Y-82970000D01*
X155776842Y-83027068D01*
X155506589Y-83139010D01*
X155263368Y-83301525D01*
X155056525Y-83508368D01*
X154934805Y-83690534D01*
X154865178Y-83573645D01*
X154670269Y-83357412D01*
X154436920Y-83183359D01*
X154174099Y-83058175D01*
X154026890Y-83013524D01*
X153797000Y-83134845D01*
X153543000Y-83134845D01*
X153313110Y-83013524D01*
X153165901Y-83058175D01*
X152903080Y-83183359D01*
X152669731Y-83357412D01*
X152593966Y-83441466D01*
X152569502Y-83360820D01*
X152510537Y-83250506D01*
X152431185Y-83153815D01*
X152334494Y-83074463D01*
X152224180Y-83015498D01*
X152104482Y-82979188D01*
X151980000Y-82966928D01*
X150280000Y-82966928D01*
X150155518Y-82979188D01*
X150035820Y-83015498D01*
X149925506Y-83074463D01*
X149828815Y-83153815D01*
X149749463Y-83250506D01*
X149690498Y-83360820D01*
X149654188Y-83480518D01*
X149641928Y-83605000D01*
X92100000Y-83605000D01*
X92100000Y-77827702D01*
X179836903Y-77827702D01*
X179908486Y-78071671D01*
X180163996Y-78192571D01*
X180438184Y-78261300D01*
X180720512Y-78275217D01*
X181000130Y-78233787D01*
X181266292Y-78138603D01*
X181391514Y-78071671D01*
X181463097Y-77827702D01*
X180650000Y-77014605D01*
X179836903Y-77827702D01*
X92100000Y-77827702D01*
X92100000Y-75423665D01*
X98895000Y-75423665D01*
X98895000Y-75706335D01*
X98950147Y-75983574D01*
X99058320Y-76244727D01*
X99215363Y-76479759D01*
X99415241Y-76679637D01*
X99650273Y-76836680D01*
X99911426Y-76944853D01*
X100188665Y-77000000D01*
X100471335Y-77000000D01*
X100748574Y-76944853D01*
X101009727Y-76836680D01*
X101244759Y-76679637D01*
X101444637Y-76479759D01*
X101600000Y-76247241D01*
X101755363Y-76479759D01*
X101955241Y-76679637D01*
X102190273Y-76836680D01*
X102451426Y-76944853D01*
X102728665Y-77000000D01*
X103011335Y-77000000D01*
X103288574Y-76944853D01*
X103549727Y-76836680D01*
X103784759Y-76679637D01*
X103984637Y-76479759D01*
X104140000Y-76247241D01*
X104295363Y-76479759D01*
X104495241Y-76679637D01*
X104730273Y-76836680D01*
X104991426Y-76944853D01*
X105268665Y-77000000D01*
X105551335Y-77000000D01*
X105828574Y-76944853D01*
X106089727Y-76836680D01*
X106324759Y-76679637D01*
X106524637Y-76479759D01*
X106680000Y-76247241D01*
X106835363Y-76479759D01*
X107035241Y-76679637D01*
X107270273Y-76836680D01*
X107531426Y-76944853D01*
X107808665Y-77000000D01*
X108091335Y-77000000D01*
X108368574Y-76944853D01*
X108629727Y-76836680D01*
X108864759Y-76679637D01*
X109064637Y-76479759D01*
X109220000Y-76247241D01*
X109375363Y-76479759D01*
X109575241Y-76679637D01*
X109810273Y-76836680D01*
X110071426Y-76944853D01*
X110348665Y-77000000D01*
X110631335Y-77000000D01*
X110908574Y-76944853D01*
X111169727Y-76836680D01*
X111404759Y-76679637D01*
X111604637Y-76479759D01*
X111760000Y-76247241D01*
X111915363Y-76479759D01*
X112115241Y-76679637D01*
X112350273Y-76836680D01*
X112611426Y-76944853D01*
X112888665Y-77000000D01*
X113171335Y-77000000D01*
X113448574Y-76944853D01*
X113709727Y-76836680D01*
X113944759Y-76679637D01*
X114144637Y-76479759D01*
X114300000Y-76247241D01*
X114455363Y-76479759D01*
X114655241Y-76679637D01*
X114890273Y-76836680D01*
X115151426Y-76944853D01*
X115428665Y-77000000D01*
X115711335Y-77000000D01*
X115988574Y-76944853D01*
X116249727Y-76836680D01*
X116484759Y-76679637D01*
X116684637Y-76479759D01*
X116840000Y-76247241D01*
X116995363Y-76479759D01*
X117195241Y-76679637D01*
X117430273Y-76836680D01*
X117691426Y-76944853D01*
X117968665Y-77000000D01*
X118251335Y-77000000D01*
X118528574Y-76944853D01*
X118789727Y-76836680D01*
X119024759Y-76679637D01*
X119224637Y-76479759D01*
X119380000Y-76247241D01*
X119535363Y-76479759D01*
X119735241Y-76679637D01*
X119970273Y-76836680D01*
X120231426Y-76944853D01*
X120508665Y-77000000D01*
X120791335Y-77000000D01*
X121068574Y-76944853D01*
X121329727Y-76836680D01*
X121564759Y-76679637D01*
X121764637Y-76479759D01*
X121920000Y-76247241D01*
X122075363Y-76479759D01*
X122275241Y-76679637D01*
X122510273Y-76836680D01*
X122771426Y-76944853D01*
X123048665Y-77000000D01*
X123331335Y-77000000D01*
X123608574Y-76944853D01*
X123869727Y-76836680D01*
X124104759Y-76679637D01*
X124304637Y-76479759D01*
X124460000Y-76247241D01*
X124615363Y-76479759D01*
X124815241Y-76679637D01*
X125050273Y-76836680D01*
X125311426Y-76944853D01*
X125588665Y-77000000D01*
X125871335Y-77000000D01*
X126148574Y-76944853D01*
X126409727Y-76836680D01*
X126644759Y-76679637D01*
X126844637Y-76479759D01*
X127001680Y-76244727D01*
X127006067Y-76234135D01*
X127117615Y-76420131D01*
X127306586Y-76628519D01*
X127532580Y-76796037D01*
X127786913Y-76916246D01*
X127920961Y-76956904D01*
X128143000Y-76834915D01*
X128143000Y-75692000D01*
X128123000Y-75692000D01*
X128123000Y-75438000D01*
X128143000Y-75438000D01*
X128143000Y-74295085D01*
X128397000Y-74295085D01*
X128397000Y-75438000D01*
X128417000Y-75438000D01*
X128417000Y-75692000D01*
X128397000Y-75692000D01*
X128397000Y-76834915D01*
X128619039Y-76956904D01*
X128753087Y-76916246D01*
X129007420Y-76796037D01*
X129233414Y-76628519D01*
X129422385Y-76420131D01*
X129533933Y-76234135D01*
X129538320Y-76244727D01*
X129695363Y-76479759D01*
X129895241Y-76679637D01*
X130130273Y-76836680D01*
X130391426Y-76944853D01*
X130668665Y-77000000D01*
X130951335Y-77000000D01*
X131228574Y-76944853D01*
X131489727Y-76836680D01*
X131724759Y-76679637D01*
X131924637Y-76479759D01*
X132080000Y-76247241D01*
X132235363Y-76479759D01*
X132435241Y-76679637D01*
X132670273Y-76836680D01*
X132931426Y-76944853D01*
X133208665Y-77000000D01*
X133491335Y-77000000D01*
X133768574Y-76944853D01*
X134029727Y-76836680D01*
X134264759Y-76679637D01*
X134463357Y-76481039D01*
X134464188Y-76489482D01*
X134500498Y-76609180D01*
X134559463Y-76719494D01*
X134638815Y-76816185D01*
X134735506Y-76895537D01*
X134845820Y-76954502D01*
X134965518Y-76990812D01*
X135090000Y-77003072D01*
X136690000Y-77003072D01*
X136814482Y-76990812D01*
X136934180Y-76954502D01*
X137025832Y-76905512D01*
X179209783Y-76905512D01*
X179251213Y-77185130D01*
X179346397Y-77451292D01*
X179413329Y-77576514D01*
X179657298Y-77648097D01*
X180470395Y-76835000D01*
X180829605Y-76835000D01*
X181642702Y-77648097D01*
X181886671Y-77576514D01*
X182007571Y-77321004D01*
X182076300Y-77046816D01*
X182090217Y-76764488D01*
X182048787Y-76484870D01*
X181953603Y-76218708D01*
X181886671Y-76093486D01*
X181687340Y-76035000D01*
X182711928Y-76035000D01*
X182711928Y-77635000D01*
X182724188Y-77759482D01*
X182760498Y-77879180D01*
X182819463Y-77989494D01*
X182898815Y-78086185D01*
X182995506Y-78165537D01*
X183105820Y-78224502D01*
X183225518Y-78260812D01*
X183350000Y-78273072D01*
X184950000Y-78273072D01*
X185074482Y-78260812D01*
X185194180Y-78224502D01*
X185304494Y-78165537D01*
X185401185Y-78086185D01*
X185480537Y-77989494D01*
X185539502Y-77879180D01*
X185575812Y-77759482D01*
X185588072Y-77635000D01*
X185588072Y-76035000D01*
X185575812Y-75910518D01*
X185539502Y-75790820D01*
X185480537Y-75680506D01*
X185401185Y-75583815D01*
X185304494Y-75504463D01*
X185194180Y-75445498D01*
X185074482Y-75409188D01*
X184950000Y-75396928D01*
X183350000Y-75396928D01*
X183225518Y-75409188D01*
X183105820Y-75445498D01*
X182995506Y-75504463D01*
X182898815Y-75583815D01*
X182819463Y-75680506D01*
X182760498Y-75790820D01*
X182724188Y-75910518D01*
X182711928Y-76035000D01*
X181687340Y-76035000D01*
X181642702Y-76021903D01*
X180829605Y-76835000D01*
X180470395Y-76835000D01*
X179657298Y-76021903D01*
X179413329Y-76093486D01*
X179292429Y-76348996D01*
X179223700Y-76623184D01*
X179209783Y-76905512D01*
X137025832Y-76905512D01*
X137044494Y-76895537D01*
X137141185Y-76816185D01*
X137220537Y-76719494D01*
X137279502Y-76609180D01*
X137315812Y-76489482D01*
X137328072Y-76365000D01*
X137328072Y-75842298D01*
X179836903Y-75842298D01*
X180650000Y-76655395D01*
X181463097Y-75842298D01*
X181391514Y-75598329D01*
X181136004Y-75477429D01*
X180861816Y-75408700D01*
X180579488Y-75394783D01*
X180299870Y-75436213D01*
X180033708Y-75531397D01*
X179908486Y-75598329D01*
X179836903Y-75842298D01*
X137328072Y-75842298D01*
X137328072Y-74765000D01*
X137315812Y-74640518D01*
X137279502Y-74520820D01*
X137220537Y-74410506D01*
X137141185Y-74313815D01*
X137044494Y-74234463D01*
X136934180Y-74175498D01*
X136814482Y-74139188D01*
X136690000Y-74126928D01*
X135090000Y-74126928D01*
X134965518Y-74139188D01*
X134845820Y-74175498D01*
X134735506Y-74234463D01*
X134638815Y-74313815D01*
X134559463Y-74410506D01*
X134500498Y-74520820D01*
X134464188Y-74640518D01*
X134463357Y-74648961D01*
X134264759Y-74450363D01*
X134029727Y-74293320D01*
X133768574Y-74185147D01*
X133491335Y-74130000D01*
X133208665Y-74130000D01*
X132931426Y-74185147D01*
X132670273Y-74293320D01*
X132435241Y-74450363D01*
X132235363Y-74650241D01*
X132080000Y-74882759D01*
X131924637Y-74650241D01*
X131724759Y-74450363D01*
X131489727Y-74293320D01*
X131228574Y-74185147D01*
X130951335Y-74130000D01*
X130668665Y-74130000D01*
X130391426Y-74185147D01*
X130130273Y-74293320D01*
X129895241Y-74450363D01*
X129695363Y-74650241D01*
X129538320Y-74885273D01*
X129533933Y-74895865D01*
X129422385Y-74709869D01*
X129233414Y-74501481D01*
X129007420Y-74333963D01*
X128753087Y-74213754D01*
X128619039Y-74173096D01*
X128397000Y-74295085D01*
X128143000Y-74295085D01*
X127920961Y-74173096D01*
X127786913Y-74213754D01*
X127532580Y-74333963D01*
X127306586Y-74501481D01*
X127117615Y-74709869D01*
X127006067Y-74895865D01*
X127001680Y-74885273D01*
X126844637Y-74650241D01*
X126644759Y-74450363D01*
X126409727Y-74293320D01*
X126148574Y-74185147D01*
X125871335Y-74130000D01*
X125588665Y-74130000D01*
X125311426Y-74185147D01*
X125050273Y-74293320D01*
X124815241Y-74450363D01*
X124615363Y-74650241D01*
X124460000Y-74882759D01*
X124304637Y-74650241D01*
X124104759Y-74450363D01*
X123869727Y-74293320D01*
X123608574Y-74185147D01*
X123331335Y-74130000D01*
X123048665Y-74130000D01*
X122771426Y-74185147D01*
X122510273Y-74293320D01*
X122275241Y-74450363D01*
X122075363Y-74650241D01*
X121920000Y-74882759D01*
X121764637Y-74650241D01*
X121564759Y-74450363D01*
X121329727Y-74293320D01*
X121068574Y-74185147D01*
X120791335Y-74130000D01*
X120508665Y-74130000D01*
X120231426Y-74185147D01*
X119970273Y-74293320D01*
X119735241Y-74450363D01*
X119535363Y-74650241D01*
X119380000Y-74882759D01*
X119224637Y-74650241D01*
X119024759Y-74450363D01*
X118789727Y-74293320D01*
X118528574Y-74185147D01*
X118251335Y-74130000D01*
X117968665Y-74130000D01*
X117691426Y-74185147D01*
X117430273Y-74293320D01*
X117195241Y-74450363D01*
X116995363Y-74650241D01*
X116840000Y-74882759D01*
X116684637Y-74650241D01*
X116484759Y-74450363D01*
X116249727Y-74293320D01*
X115988574Y-74185147D01*
X115711335Y-74130000D01*
X115428665Y-74130000D01*
X115151426Y-74185147D01*
X114890273Y-74293320D01*
X114655241Y-74450363D01*
X114455363Y-74650241D01*
X114300000Y-74882759D01*
X114144637Y-74650241D01*
X113944759Y-74450363D01*
X113709727Y-74293320D01*
X113448574Y-74185147D01*
X113171335Y-74130000D01*
X112888665Y-74130000D01*
X112611426Y-74185147D01*
X112350273Y-74293320D01*
X112115241Y-74450363D01*
X111915363Y-74650241D01*
X111760000Y-74882759D01*
X111604637Y-74650241D01*
X111404759Y-74450363D01*
X111169727Y-74293320D01*
X110908574Y-74185147D01*
X110631335Y-74130000D01*
X110348665Y-74130000D01*
X110071426Y-74185147D01*
X109810273Y-74293320D01*
X109575241Y-74450363D01*
X109375363Y-74650241D01*
X109220000Y-74882759D01*
X109064637Y-74650241D01*
X108864759Y-74450363D01*
X108629727Y-74293320D01*
X108368574Y-74185147D01*
X108091335Y-74130000D01*
X107808665Y-74130000D01*
X107531426Y-74185147D01*
X107270273Y-74293320D01*
X107035241Y-74450363D01*
X106835363Y-74650241D01*
X106680000Y-74882759D01*
X106524637Y-74650241D01*
X106324759Y-74450363D01*
X106089727Y-74293320D01*
X105828574Y-74185147D01*
X105551335Y-74130000D01*
X105268665Y-74130000D01*
X104991426Y-74185147D01*
X104730273Y-74293320D01*
X104495241Y-74450363D01*
X104295363Y-74650241D01*
X104140000Y-74882759D01*
X103984637Y-74650241D01*
X103784759Y-74450363D01*
X103549727Y-74293320D01*
X103288574Y-74185147D01*
X103011335Y-74130000D01*
X102728665Y-74130000D01*
X102451426Y-74185147D01*
X102190273Y-74293320D01*
X101955241Y-74450363D01*
X101755363Y-74650241D01*
X101600000Y-74882759D01*
X101444637Y-74650241D01*
X101244759Y-74450363D01*
X101009727Y-74293320D01*
X100748574Y-74185147D01*
X100471335Y-74130000D01*
X100188665Y-74130000D01*
X99911426Y-74185147D01*
X99650273Y-74293320D01*
X99415241Y-74450363D01*
X99215363Y-74650241D01*
X99058320Y-74885273D01*
X98950147Y-75146426D01*
X98895000Y-75423665D01*
X92100000Y-75423665D01*
X92100000Y-67567285D01*
X92685000Y-67567285D01*
X92685000Y-68322715D01*
X92832377Y-69063628D01*
X93121467Y-69761554D01*
X93541161Y-70389670D01*
X94075330Y-70923839D01*
X94703446Y-71343533D01*
X95401372Y-71632623D01*
X96142285Y-71780000D01*
X96897715Y-71780000D01*
X97638628Y-71632623D01*
X98012640Y-71477702D01*
X174486903Y-71477702D01*
X174558486Y-71721671D01*
X174813996Y-71842571D01*
X175088184Y-71911300D01*
X175370512Y-71925217D01*
X175650130Y-71883787D01*
X175916292Y-71788603D01*
X176041514Y-71721671D01*
X176113097Y-71477702D01*
X175300000Y-70664605D01*
X174486903Y-71477702D01*
X98012640Y-71477702D01*
X98336554Y-71343533D01*
X98964670Y-70923839D01*
X99332997Y-70555512D01*
X173859783Y-70555512D01*
X173901213Y-70835130D01*
X173996397Y-71101292D01*
X174063329Y-71226514D01*
X174307298Y-71298097D01*
X175120395Y-70485000D01*
X175479605Y-70485000D01*
X176292702Y-71298097D01*
X176536671Y-71226514D01*
X176550324Y-71197659D01*
X176685363Y-71399759D01*
X176885241Y-71599637D01*
X177120273Y-71756680D01*
X177381426Y-71864853D01*
X177658665Y-71920000D01*
X177941335Y-71920000D01*
X178218574Y-71864853D01*
X178479727Y-71756680D01*
X178714759Y-71599637D01*
X178914637Y-71399759D01*
X179071680Y-71164727D01*
X179179853Y-70903574D01*
X179235000Y-70626335D01*
X179235000Y-70343665D01*
X179179853Y-70066426D01*
X179071680Y-69805273D01*
X178914637Y-69570241D01*
X178714759Y-69370363D01*
X178479727Y-69213320D01*
X178218574Y-69105147D01*
X177941335Y-69050000D01*
X177658665Y-69050000D01*
X177381426Y-69105147D01*
X177120273Y-69213320D01*
X176885241Y-69370363D01*
X176685363Y-69570241D01*
X176551308Y-69770869D01*
X176536671Y-69743486D01*
X176292702Y-69671903D01*
X175479605Y-70485000D01*
X175120395Y-70485000D01*
X174307298Y-69671903D01*
X174063329Y-69743486D01*
X173942429Y-69998996D01*
X173873700Y-70273184D01*
X173859783Y-70555512D01*
X99332997Y-70555512D01*
X99498839Y-70389670D01*
X99918533Y-69761554D01*
X100030062Y-69492298D01*
X174486903Y-69492298D01*
X175300000Y-70305395D01*
X176113097Y-69492298D01*
X176041514Y-69248329D01*
X175786004Y-69127429D01*
X175511816Y-69058700D01*
X175229488Y-69044783D01*
X174949870Y-69086213D01*
X174683708Y-69181397D01*
X174558486Y-69248329D01*
X174486903Y-69492298D01*
X100030062Y-69492298D01*
X100207623Y-69063628D01*
X100355000Y-68322715D01*
X100355000Y-67567285D01*
X181585000Y-67567285D01*
X181585000Y-68322715D01*
X181732377Y-69063628D01*
X182021467Y-69761554D01*
X182441161Y-70389670D01*
X182975330Y-70923839D01*
X183603446Y-71343533D01*
X184301372Y-71632623D01*
X185042285Y-71780000D01*
X185797715Y-71780000D01*
X186538628Y-71632623D01*
X187236554Y-71343533D01*
X187864670Y-70923839D01*
X188398839Y-70389670D01*
X188818533Y-69761554D01*
X189107623Y-69063628D01*
X189255000Y-68322715D01*
X189255000Y-67567285D01*
X189107623Y-66826372D01*
X188818533Y-66128446D01*
X188398839Y-65500330D01*
X187864670Y-64966161D01*
X187236554Y-64546467D01*
X186538628Y-64257377D01*
X185797715Y-64110000D01*
X185042285Y-64110000D01*
X184301372Y-64257377D01*
X183603446Y-64546467D01*
X182975330Y-64966161D01*
X182441161Y-65500330D01*
X182021467Y-66128446D01*
X181732377Y-66826372D01*
X181585000Y-67567285D01*
X100355000Y-67567285D01*
X100207623Y-66826372D01*
X99918533Y-66128446D01*
X99498839Y-65500330D01*
X98964670Y-64966161D01*
X98336554Y-64546467D01*
X97638628Y-64257377D01*
X96897715Y-64110000D01*
X96142285Y-64110000D01*
X95401372Y-64257377D01*
X94703446Y-64546467D01*
X94075330Y-64966161D01*
X93541161Y-65500330D01*
X93121467Y-66128446D01*
X92832377Y-66826372D01*
X92685000Y-67567285D01*
X92100000Y-67567285D01*
X92100000Y-63525000D01*
X189840001Y-63525000D01*
X189840000Y-130785000D01*
G37*
X189840000Y-130785000D02*
X92100000Y-130785000D01*
X92100000Y-125987285D01*
X92685000Y-125987285D01*
X92685000Y-126742715D01*
X92832377Y-127483628D01*
X93121467Y-128181554D01*
X93541161Y-128809670D01*
X94075330Y-129343839D01*
X94703446Y-129763533D01*
X95401372Y-130052623D01*
X96142285Y-130200000D01*
X96897715Y-130200000D01*
X97638628Y-130052623D01*
X98336554Y-129763533D01*
X98964670Y-129343839D01*
X99498839Y-128809670D01*
X99918533Y-128181554D01*
X100207623Y-127483628D01*
X100355000Y-126742715D01*
X100355000Y-126223665D01*
X110325000Y-126223665D01*
X110325000Y-126506335D01*
X110380147Y-126783574D01*
X110488320Y-127044727D01*
X110645363Y-127279759D01*
X110845241Y-127479637D01*
X111080273Y-127636680D01*
X111341426Y-127744853D01*
X111618665Y-127800000D01*
X111901335Y-127800000D01*
X112178574Y-127744853D01*
X112439727Y-127636680D01*
X112674759Y-127479637D01*
X112796694Y-127357702D01*
X113446903Y-127357702D01*
X113518486Y-127601671D01*
X113773996Y-127722571D01*
X114048184Y-127791300D01*
X114330512Y-127805217D01*
X114610130Y-127763787D01*
X114876292Y-127668603D01*
X115001514Y-127601671D01*
X115073097Y-127357702D01*
X114260000Y-126544605D01*
X113446903Y-127357702D01*
X112796694Y-127357702D01*
X112874637Y-127279759D01*
X113008692Y-127079131D01*
X113023329Y-127106514D01*
X113267298Y-127178097D01*
X114080395Y-126365000D01*
X114439605Y-126365000D01*
X115252702Y-127178097D01*
X115496671Y-127106514D01*
X115617571Y-126851004D01*
X115686300Y-126576816D01*
X115700217Y-126294488D01*
X115658787Y-126014870D01*
X115648923Y-125987285D01*
X181585000Y-125987285D01*
X181585000Y-126742715D01*
X181732377Y-127483628D01*
X182021467Y-128181554D01*
X182441161Y-128809670D01*
X182975330Y-129343839D01*
X183603446Y-129763533D01*
X184301372Y-130052623D01*
X185042285Y-130200000D01*
X185797715Y-130200000D01*
X186538628Y-130052623D01*
X187236554Y-129763533D01*
X187864670Y-129343839D01*
X188398839Y-128809670D01*
X188818533Y-128181554D01*
X189107623Y-127483628D01*
X189255000Y-126742715D01*
X189255000Y-125987285D01*
X189107623Y-125246372D01*
X188818533Y-124548446D01*
X188398839Y-123920330D01*
X187864670Y-123386161D01*
X187236554Y-122966467D01*
X186538628Y-122677377D01*
X185797715Y-122530000D01*
X185042285Y-122530000D01*
X184301372Y-122677377D01*
X183603446Y-122966467D01*
X182975330Y-123386161D01*
X182441161Y-123920330D01*
X182021467Y-124548446D01*
X181732377Y-125246372D01*
X181585000Y-125987285D01*
X115648923Y-125987285D01*
X115563603Y-125748708D01*
X115496671Y-125623486D01*
X115252702Y-125551903D01*
X114439605Y-126365000D01*
X114080395Y-126365000D01*
X113267298Y-125551903D01*
X113023329Y-125623486D01*
X113009676Y-125652341D01*
X112874637Y-125450241D01*
X112796694Y-125372298D01*
X113446903Y-125372298D01*
X114260000Y-126185395D01*
X115073097Y-125372298D01*
X115001514Y-125128329D01*
X114746004Y-125007429D01*
X114471816Y-124938700D01*
X114189488Y-124924783D01*
X113909870Y-124966213D01*
X113643708Y-125061397D01*
X113518486Y-125128329D01*
X113446903Y-125372298D01*
X112796694Y-125372298D01*
X112674759Y-125250363D01*
X112439727Y-125093320D01*
X112178574Y-124985147D01*
X111901335Y-124930000D01*
X111618665Y-124930000D01*
X111341426Y-124985147D01*
X111080273Y-125093320D01*
X110845241Y-125250363D01*
X110645363Y-125450241D01*
X110488320Y-125685273D01*
X110380147Y-125946426D01*
X110325000Y-126223665D01*
X100355000Y-126223665D01*
X100355000Y-125987285D01*
X100207623Y-125246372D01*
X99918533Y-124548446D01*
X99498839Y-123920330D01*
X98964670Y-123386161D01*
X98336554Y-122966467D01*
X97638628Y-122677377D01*
X96897715Y-122530000D01*
X96142285Y-122530000D01*
X95401372Y-122677377D01*
X94703446Y-122966467D01*
X94075330Y-123386161D01*
X93541161Y-123920330D01*
X93121467Y-124548446D01*
X92832377Y-125246372D01*
X92685000Y-125987285D01*
X92100000Y-125987285D01*
X92100000Y-122277702D01*
X103636903Y-122277702D01*
X103708486Y-122521671D01*
X103963996Y-122642571D01*
X104238184Y-122711300D01*
X104520512Y-122725217D01*
X104800130Y-122683787D01*
X105066292Y-122588603D01*
X105191514Y-122521671D01*
X105263097Y-122277702D01*
X104450000Y-121464605D01*
X103636903Y-122277702D01*
X92100000Y-122277702D01*
X92100000Y-121355512D01*
X103009783Y-121355512D01*
X103051213Y-121635130D01*
X103146397Y-121901292D01*
X103213329Y-122026514D01*
X103457298Y-122098097D01*
X104270395Y-121285000D01*
X104629605Y-121285000D01*
X105442702Y-122098097D01*
X105686671Y-122026514D01*
X105807571Y-121771004D01*
X105876300Y-121496816D01*
X105890217Y-121214488D01*
X105848787Y-120934870D01*
X105753603Y-120668708D01*
X105686671Y-120543486D01*
X105487340Y-120485000D01*
X106511928Y-120485000D01*
X106511928Y-122085000D01*
X106524188Y-122209482D01*
X106560498Y-122329180D01*
X106619463Y-122439494D01*
X106698815Y-122536185D01*
X106795506Y-122615537D01*
X106905820Y-122674502D01*
X107025518Y-122710812D01*
X107150000Y-122723072D01*
X108750000Y-122723072D01*
X108874482Y-122710812D01*
X108994180Y-122674502D01*
X109104494Y-122615537D01*
X109201185Y-122536185D01*
X109280537Y-122439494D01*
X109339502Y-122329180D01*
X109375812Y-122209482D01*
X109388072Y-122085000D01*
X109388072Y-121680413D01*
X170574192Y-121680413D01*
X170669956Y-121944814D01*
X170959571Y-122085704D01*
X171271108Y-122167384D01*
X171592595Y-122186718D01*
X171911675Y-122142961D01*
X172216088Y-122037795D01*
X172390044Y-121944814D01*
X172485808Y-121680413D01*
X171530000Y-120724605D01*
X170574192Y-121680413D01*
X109388072Y-121680413D01*
X109388072Y-120607595D01*
X169888282Y-120607595D01*
X169932039Y-120926675D01*
X170037205Y-121231088D01*
X170130186Y-121405044D01*
X170394587Y-121500808D01*
X171350395Y-120545000D01*
X171709605Y-120545000D01*
X172665413Y-121500808D01*
X172929814Y-121405044D01*
X173070704Y-121115429D01*
X173152384Y-120803892D01*
X173171718Y-120482405D01*
X173158219Y-120383967D01*
X174895000Y-120383967D01*
X174895000Y-120706033D01*
X174957832Y-121021912D01*
X175081082Y-121319463D01*
X175260013Y-121587252D01*
X175487748Y-121814987D01*
X175755537Y-121993918D01*
X176053088Y-122117168D01*
X176368967Y-122180000D01*
X176691033Y-122180000D01*
X177006912Y-122117168D01*
X177304463Y-121993918D01*
X177572252Y-121814987D01*
X177799987Y-121587252D01*
X177978918Y-121319463D01*
X178102168Y-121021912D01*
X178165000Y-120706033D01*
X178165000Y-120383967D01*
X178102168Y-120068088D01*
X177978918Y-119770537D01*
X177799987Y-119502748D01*
X177572252Y-119275013D01*
X177304463Y-119096082D01*
X177006912Y-118972832D01*
X176691033Y-118910000D01*
X176368967Y-118910000D01*
X176053088Y-118972832D01*
X175755537Y-119096082D01*
X175487748Y-119275013D01*
X175260013Y-119502748D01*
X175081082Y-119770537D01*
X174957832Y-120068088D01*
X174895000Y-120383967D01*
X173158219Y-120383967D01*
X173127961Y-120163325D01*
X173022795Y-119858912D01*
X172929814Y-119684956D01*
X172665413Y-119589192D01*
X171709605Y-120545000D01*
X171350395Y-120545000D01*
X170394587Y-119589192D01*
X170130186Y-119684956D01*
X169989296Y-119974571D01*
X169907616Y-120286108D01*
X169888282Y-120607595D01*
X109388072Y-120607595D01*
X109388072Y-120485000D01*
X109375812Y-120360518D01*
X109339502Y-120240820D01*
X109280537Y-120130506D01*
X109201185Y-120033815D01*
X109104494Y-119954463D01*
X108994180Y-119895498D01*
X108874482Y-119859188D01*
X108750000Y-119846928D01*
X107150000Y-119846928D01*
X107025518Y-119859188D01*
X106905820Y-119895498D01*
X106795506Y-119954463D01*
X106698815Y-120033815D01*
X106619463Y-120130506D01*
X106560498Y-120240820D01*
X106524188Y-120360518D01*
X106511928Y-120485000D01*
X105487340Y-120485000D01*
X105442702Y-120471903D01*
X104629605Y-121285000D01*
X104270395Y-121285000D01*
X103457298Y-120471903D01*
X103213329Y-120543486D01*
X103092429Y-120798996D01*
X103023700Y-121073184D01*
X103009783Y-121355512D01*
X92100000Y-121355512D01*
X92100000Y-120292298D01*
X103636903Y-120292298D01*
X104450000Y-121105395D01*
X105263097Y-120292298D01*
X105191514Y-120048329D01*
X104936004Y-119927429D01*
X104661816Y-119858700D01*
X104379488Y-119844783D01*
X104099870Y-119886213D01*
X103833708Y-119981397D01*
X103708486Y-120048329D01*
X103636903Y-120292298D01*
X92100000Y-120292298D01*
X92100000Y-119409587D01*
X170574192Y-119409587D01*
X171530000Y-120365395D01*
X172485808Y-119409587D01*
X172390044Y-119145186D01*
X172100429Y-119004296D01*
X171788892Y-118922616D01*
X171467405Y-118903282D01*
X171148325Y-118947039D01*
X170843912Y-119052205D01*
X170669956Y-119145186D01*
X170574192Y-119409587D01*
X92100000Y-119409587D01*
X92100000Y-112920000D01*
X100616928Y-112920000D01*
X100616928Y-114920000D01*
X100629188Y-115044482D01*
X100665498Y-115164180D01*
X100724463Y-115274494D01*
X100803815Y-115371185D01*
X100900506Y-115450537D01*
X101010820Y-115509502D01*
X101130518Y-115545812D01*
X101255000Y-115558072D01*
X105755000Y-115558072D01*
X105879482Y-115545812D01*
X105999180Y-115509502D01*
X106109494Y-115450537D01*
X106206185Y-115371185D01*
X106285537Y-115274494D01*
X106344502Y-115164180D01*
X106380812Y-115044482D01*
X106393072Y-114920000D01*
X106393072Y-112920000D01*
X106380812Y-112795518D01*
X106344502Y-112675820D01*
X106285537Y-112565506D01*
X106206185Y-112468815D01*
X106109494Y-112389463D01*
X105999180Y-112330498D01*
X105879482Y-112294188D01*
X105755000Y-112281928D01*
X101255000Y-112281928D01*
X101130518Y-112294188D01*
X101010820Y-112330498D01*
X100900506Y-112389463D01*
X100803815Y-112468815D01*
X100724463Y-112565506D01*
X100665498Y-112675820D01*
X100629188Y-112795518D01*
X100616928Y-112920000D01*
X92100000Y-112920000D01*
X92100000Y-111470000D01*
X98866928Y-111470000D01*
X98879188Y-111594482D01*
X98915498Y-111714180D01*
X98974463Y-111824494D01*
X99053815Y-111921185D01*
X99150506Y-112000537D01*
X99260820Y-112059502D01*
X99380518Y-112095812D01*
X99505000Y-112108072D01*
X100219250Y-112105000D01*
X100378000Y-111946250D01*
X100378000Y-109347000D01*
X100632000Y-109347000D01*
X100632000Y-111946250D01*
X100790750Y-112105000D01*
X101505000Y-112108072D01*
X101629482Y-112095812D01*
X101749180Y-112059502D01*
X101859494Y-112000537D01*
X101956185Y-111921185D01*
X102035537Y-111824494D01*
X102094502Y-111714180D01*
X102130812Y-111594482D01*
X102143072Y-111470000D01*
X102140000Y-109505750D01*
X101981250Y-109347000D01*
X100632000Y-109347000D01*
X100378000Y-109347000D01*
X99028750Y-109347000D01*
X98870000Y-109505750D01*
X98866928Y-111470000D01*
X92100000Y-111470000D01*
X92100000Y-106970000D01*
X98866928Y-106970000D01*
X98870000Y-108934250D01*
X99028750Y-109093000D01*
X100378000Y-109093000D01*
X100378000Y-106493750D01*
X100632000Y-106493750D01*
X100632000Y-109093000D01*
X101981250Y-109093000D01*
X102140000Y-108934250D01*
X102143072Y-106970000D01*
X104866928Y-106970000D01*
X104866928Y-111470000D01*
X104879188Y-111594482D01*
X104915498Y-111714180D01*
X104974463Y-111824494D01*
X105053815Y-111921185D01*
X105150506Y-112000537D01*
X105260820Y-112059502D01*
X105380518Y-112095812D01*
X105505000Y-112108072D01*
X107505000Y-112108072D01*
X107629482Y-112095812D01*
X107749180Y-112059502D01*
X107776310Y-112045000D01*
X166541928Y-112045000D01*
X166541928Y-115045000D01*
X166554188Y-115169482D01*
X166590498Y-115289180D01*
X166649463Y-115399494D01*
X166728815Y-115496185D01*
X166825506Y-115575537D01*
X166935820Y-115634502D01*
X167055518Y-115670812D01*
X167180000Y-115683072D01*
X169680000Y-115683072D01*
X169804482Y-115670812D01*
X169924180Y-115634502D01*
X170034494Y-115575537D01*
X170131185Y-115496185D01*
X170210537Y-115399494D01*
X170269502Y-115289180D01*
X170305812Y-115169482D01*
X170318072Y-115045000D01*
X170318072Y-112045000D01*
X177741928Y-112045000D01*
X177741928Y-115045000D01*
X177754188Y-115169482D01*
X177790498Y-115289180D01*
X177849463Y-115399494D01*
X177928815Y-115496185D01*
X178025506Y-115575537D01*
X178135820Y-115634502D01*
X178255518Y-115670812D01*
X178380000Y-115683072D01*
X180880000Y-115683072D01*
X181004482Y-115670812D01*
X181124180Y-115634502D01*
X181234494Y-115575537D01*
X181331185Y-115496185D01*
X181410537Y-115399494D01*
X181469502Y-115289180D01*
X181505812Y-115169482D01*
X181518072Y-115045000D01*
X181518072Y-112045000D01*
X181505812Y-111920518D01*
X181469502Y-111800820D01*
X181410537Y-111690506D01*
X181331185Y-111593815D01*
X181234494Y-111514463D01*
X181124180Y-111455498D01*
X181004482Y-111419188D01*
X180880000Y-111406928D01*
X178380000Y-111406928D01*
X178255518Y-111419188D01*
X178135820Y-111455498D01*
X178025506Y-111514463D01*
X177928815Y-111593815D01*
X177849463Y-111690506D01*
X177790498Y-111800820D01*
X177754188Y-111920518D01*
X177741928Y-112045000D01*
X170318072Y-112045000D01*
X170305812Y-111920518D01*
X170269502Y-111800820D01*
X170210537Y-111690506D01*
X170131185Y-111593815D01*
X170034494Y-111514463D01*
X169924180Y-111455498D01*
X169804482Y-111419188D01*
X169680000Y-111406928D01*
X167180000Y-111406928D01*
X167055518Y-111419188D01*
X166935820Y-111455498D01*
X166825506Y-111514463D01*
X166728815Y-111593815D01*
X166649463Y-111690506D01*
X166590498Y-111800820D01*
X166554188Y-111920518D01*
X166541928Y-112045000D01*
X107776310Y-112045000D01*
X107859494Y-112000537D01*
X107956185Y-111921185D01*
X108035537Y-111824494D01*
X108094502Y-111714180D01*
X108130812Y-111594482D01*
X108143072Y-111470000D01*
X108143072Y-106970000D01*
X108130812Y-106845518D01*
X108094502Y-106725820D01*
X108035537Y-106615506D01*
X107956185Y-106518815D01*
X107859494Y-106439463D01*
X107749180Y-106380498D01*
X107629482Y-106344188D01*
X107505000Y-106331928D01*
X105505000Y-106331928D01*
X105380518Y-106344188D01*
X105260820Y-106380498D01*
X105150506Y-106439463D01*
X105053815Y-106518815D01*
X104974463Y-106615506D01*
X104915498Y-106725820D01*
X104879188Y-106845518D01*
X104866928Y-106970000D01*
X102143072Y-106970000D01*
X102130812Y-106845518D01*
X102094502Y-106725820D01*
X102035537Y-106615506D01*
X101956185Y-106518815D01*
X101859494Y-106439463D01*
X101749180Y-106380498D01*
X101629482Y-106344188D01*
X101505000Y-106331928D01*
X100790750Y-106335000D01*
X100632000Y-106493750D01*
X100378000Y-106493750D01*
X100219250Y-106335000D01*
X99505000Y-106331928D01*
X99380518Y-106344188D01*
X99260820Y-106380498D01*
X99150506Y-106439463D01*
X99053815Y-106518815D01*
X98974463Y-106615506D01*
X98915498Y-106725820D01*
X98879188Y-106845518D01*
X98866928Y-106970000D01*
X92100000Y-106970000D01*
X92100000Y-105883967D01*
X169895000Y-105883967D01*
X169895000Y-106206033D01*
X169957832Y-106521912D01*
X170081082Y-106819463D01*
X170260013Y-107087252D01*
X170487748Y-107314987D01*
X170755537Y-107493918D01*
X171053088Y-107617168D01*
X171368967Y-107680000D01*
X171691033Y-107680000D01*
X172006912Y-107617168D01*
X172304463Y-107493918D01*
X172572252Y-107314987D01*
X172799987Y-107087252D01*
X172864925Y-106990065D01*
X172894587Y-107000808D01*
X173850395Y-106045000D01*
X172894587Y-105089192D01*
X172864925Y-105099935D01*
X172799987Y-105002748D01*
X172706826Y-104909587D01*
X173074192Y-104909587D01*
X174030000Y-105865395D01*
X174044143Y-105851253D01*
X174223748Y-106030858D01*
X174209605Y-106045000D01*
X174223748Y-106059143D01*
X174044143Y-106238748D01*
X174030000Y-106224605D01*
X173074192Y-107180413D01*
X173169956Y-107444814D01*
X173459571Y-107585704D01*
X173771108Y-107667384D01*
X174092595Y-107686718D01*
X174411675Y-107642961D01*
X174716088Y-107537795D01*
X174890044Y-107444814D01*
X174944024Y-107295777D01*
X174999463Y-107399494D01*
X175078815Y-107496185D01*
X175175506Y-107575537D01*
X175285820Y-107634502D01*
X175405518Y-107670812D01*
X175530000Y-107683072D01*
X177530000Y-107683072D01*
X177654482Y-107670812D01*
X177774180Y-107634502D01*
X177884494Y-107575537D01*
X177981185Y-107496185D01*
X178060537Y-107399494D01*
X178119502Y-107289180D01*
X178155812Y-107169482D01*
X178168072Y-107045000D01*
X178168072Y-105045000D01*
X178155812Y-104920518D01*
X178119502Y-104800820D01*
X178060537Y-104690506D01*
X177981185Y-104593815D01*
X177884494Y-104514463D01*
X177774180Y-104455498D01*
X177654482Y-104419188D01*
X177530000Y-104406928D01*
X175530000Y-104406928D01*
X175405518Y-104419188D01*
X175285820Y-104455498D01*
X175175506Y-104514463D01*
X175078815Y-104593815D01*
X174999463Y-104690506D01*
X174944024Y-104794223D01*
X174890044Y-104645186D01*
X174600429Y-104504296D01*
X174288892Y-104422616D01*
X173967405Y-104403282D01*
X173648325Y-104447039D01*
X173343912Y-104552205D01*
X173169956Y-104645186D01*
X173074192Y-104909587D01*
X172706826Y-104909587D01*
X172572252Y-104775013D01*
X172304463Y-104596082D01*
X172006912Y-104472832D01*
X171691033Y-104410000D01*
X171368967Y-104410000D01*
X171053088Y-104472832D01*
X170755537Y-104596082D01*
X170487748Y-104775013D01*
X170260013Y-105002748D01*
X170081082Y-105270537D01*
X169957832Y-105568088D01*
X169895000Y-105883967D01*
X92100000Y-105883967D01*
X92100000Y-100975000D01*
X131861928Y-100975000D01*
X131874188Y-101099482D01*
X131910498Y-101219180D01*
X131969463Y-101329494D01*
X132048815Y-101426185D01*
X132145506Y-101505537D01*
X132255820Y-101564502D01*
X132375518Y-101600812D01*
X132500000Y-101613072D01*
X133064250Y-101610000D01*
X133223000Y-101451250D01*
X133223000Y-100252000D01*
X132023750Y-100252000D01*
X131865000Y-100410750D01*
X131861928Y-100975000D01*
X92100000Y-100975000D01*
X92100000Y-99275000D01*
X131861928Y-99275000D01*
X131865000Y-99839250D01*
X132023750Y-99998000D01*
X133223000Y-99998000D01*
X133223000Y-98798750D01*
X133477000Y-98798750D01*
X133477000Y-99998000D01*
X133497000Y-99998000D01*
X133497000Y-100252000D01*
X133477000Y-100252000D01*
X133477000Y-101451250D01*
X133635750Y-101610000D01*
X134200000Y-101613072D01*
X134324482Y-101600812D01*
X134444180Y-101564502D01*
X134554494Y-101505537D01*
X134651185Y-101426185D01*
X134730537Y-101329494D01*
X134789502Y-101219180D01*
X134811513Y-101146620D01*
X134943368Y-101278475D01*
X135186589Y-101440990D01*
X135456842Y-101552932D01*
X135743740Y-101610000D01*
X136036260Y-101610000D01*
X136323158Y-101552932D01*
X136593411Y-101440990D01*
X136836632Y-101278475D01*
X137043475Y-101071632D01*
X137160000Y-100897240D01*
X137276525Y-101071632D01*
X137483368Y-101278475D01*
X137726589Y-101440990D01*
X137996842Y-101552932D01*
X138283740Y-101610000D01*
X138576260Y-101610000D01*
X138863158Y-101552932D01*
X139133411Y-101440990D01*
X139376632Y-101278475D01*
X139583475Y-101071632D01*
X139700000Y-100897240D01*
X139816525Y-101071632D01*
X140023368Y-101278475D01*
X140266589Y-101440990D01*
X140536842Y-101552932D01*
X140823740Y-101610000D01*
X141116260Y-101610000D01*
X141403158Y-101552932D01*
X141673411Y-101440990D01*
X141916632Y-101278475D01*
X142123475Y-101071632D01*
X142285990Y-100828411D01*
X142397932Y-100558158D01*
X142455000Y-100271260D01*
X142455000Y-99978740D01*
X142397932Y-99691842D01*
X142285990Y-99421589D01*
X142123475Y-99178368D01*
X141916632Y-98971525D01*
X141673411Y-98809010D01*
X141403158Y-98697068D01*
X141116260Y-98640000D01*
X140823740Y-98640000D01*
X140536842Y-98697068D01*
X140266589Y-98809010D01*
X140023368Y-98971525D01*
X139816525Y-99178368D01*
X139700000Y-99352760D01*
X139583475Y-99178368D01*
X139376632Y-98971525D01*
X139133411Y-98809010D01*
X138863158Y-98697068D01*
X138576260Y-98640000D01*
X138283740Y-98640000D01*
X137996842Y-98697068D01*
X137726589Y-98809010D01*
X137483368Y-98971525D01*
X137276525Y-99178368D01*
X137160000Y-99352760D01*
X137043475Y-99178368D01*
X136836632Y-98971525D01*
X136593411Y-98809010D01*
X136323158Y-98697068D01*
X136036260Y-98640000D01*
X135743740Y-98640000D01*
X135456842Y-98697068D01*
X135186589Y-98809010D01*
X134943368Y-98971525D01*
X134811513Y-99103380D01*
X134789502Y-99030820D01*
X134730537Y-98920506D01*
X134651185Y-98823815D01*
X134554494Y-98744463D01*
X134444180Y-98685498D01*
X134324482Y-98649188D01*
X134200000Y-98636928D01*
X133635750Y-98640000D01*
X133477000Y-98798750D01*
X133223000Y-98798750D01*
X133064250Y-98640000D01*
X132500000Y-98636928D01*
X132375518Y-98649188D01*
X132255820Y-98685498D01*
X132145506Y-98744463D01*
X132048815Y-98823815D01*
X131969463Y-98920506D01*
X131910498Y-99030820D01*
X131874188Y-99150518D01*
X131861928Y-99275000D01*
X92100000Y-99275000D01*
X92100000Y-97289080D01*
X183265525Y-97289080D01*
X183349208Y-97543261D01*
X183621775Y-97674158D01*
X183914642Y-97749365D01*
X184216553Y-97765991D01*
X184515907Y-97723397D01*
X184801199Y-97623222D01*
X184950792Y-97543261D01*
X185034475Y-97289080D01*
X184150000Y-96404605D01*
X183265525Y-97289080D01*
X92100000Y-97289080D01*
X92100000Y-96291553D01*
X182609009Y-96291553D01*
X182651603Y-96590907D01*
X182751778Y-96876199D01*
X182831739Y-97025792D01*
X183085920Y-97109475D01*
X183970395Y-96225000D01*
X184329605Y-96225000D01*
X185214080Y-97109475D01*
X185468261Y-97025792D01*
X185599158Y-96753225D01*
X185674365Y-96460358D01*
X185690991Y-96158447D01*
X185648397Y-95859093D01*
X185548222Y-95573801D01*
X185468261Y-95424208D01*
X185214080Y-95340525D01*
X184329605Y-96225000D01*
X183970395Y-96225000D01*
X183085920Y-95340525D01*
X182831739Y-95424208D01*
X182700842Y-95696775D01*
X182625635Y-95989642D01*
X182609009Y-96291553D01*
X92100000Y-96291553D01*
X92100000Y-95160920D01*
X183265525Y-95160920D01*
X184150000Y-96045395D01*
X185034475Y-95160920D01*
X184950792Y-94906739D01*
X184678225Y-94775842D01*
X184385358Y-94700635D01*
X184083447Y-94684009D01*
X183784093Y-94726603D01*
X183498801Y-94826778D01*
X183349208Y-94906739D01*
X183265525Y-95160920D01*
X92100000Y-95160920D01*
X92100000Y-92573816D01*
X182615000Y-92573816D01*
X182615000Y-92876184D01*
X182673989Y-93172743D01*
X182789701Y-93452095D01*
X182957688Y-93703505D01*
X183171495Y-93917312D01*
X183422905Y-94085299D01*
X183702257Y-94201011D01*
X183998816Y-94260000D01*
X184301184Y-94260000D01*
X184597743Y-94201011D01*
X184877095Y-94085299D01*
X185128505Y-93917312D01*
X185342312Y-93703505D01*
X185510299Y-93452095D01*
X185626011Y-93172743D01*
X185685000Y-92876184D01*
X185685000Y-92573816D01*
X185626011Y-92277257D01*
X185510299Y-91997905D01*
X185342312Y-91746495D01*
X185128505Y-91532688D01*
X184877095Y-91364701D01*
X184597743Y-91248989D01*
X184301184Y-91190000D01*
X183998816Y-91190000D01*
X183702257Y-91248989D01*
X183422905Y-91364701D01*
X183171495Y-91532688D01*
X182957688Y-91746495D01*
X182789701Y-91997905D01*
X182673989Y-92277257D01*
X182615000Y-92573816D01*
X92100000Y-92573816D01*
X92100000Y-90663665D01*
X98895000Y-90663665D01*
X98895000Y-90946335D01*
X98950147Y-91223574D01*
X99058320Y-91484727D01*
X99215363Y-91719759D01*
X99415241Y-91919637D01*
X99650273Y-92076680D01*
X99911426Y-92184853D01*
X100188665Y-92240000D01*
X100471335Y-92240000D01*
X100748574Y-92184853D01*
X101009727Y-92076680D01*
X101244759Y-91919637D01*
X101444637Y-91719759D01*
X101600000Y-91487241D01*
X101755363Y-91719759D01*
X101955241Y-91919637D01*
X102190273Y-92076680D01*
X102451426Y-92184853D01*
X102728665Y-92240000D01*
X103011335Y-92240000D01*
X103288574Y-92184853D01*
X103549727Y-92076680D01*
X103784759Y-91919637D01*
X103984637Y-91719759D01*
X104140000Y-91487241D01*
X104295363Y-91719759D01*
X104495241Y-91919637D01*
X104730273Y-92076680D01*
X104991426Y-92184853D01*
X105268665Y-92240000D01*
X105551335Y-92240000D01*
X105828574Y-92184853D01*
X106089727Y-92076680D01*
X106324759Y-91919637D01*
X106524637Y-91719759D01*
X106680000Y-91487241D01*
X106835363Y-91719759D01*
X107035241Y-91919637D01*
X107270273Y-92076680D01*
X107531426Y-92184853D01*
X107808665Y-92240000D01*
X108091335Y-92240000D01*
X108368574Y-92184853D01*
X108629727Y-92076680D01*
X108864759Y-91919637D01*
X109064637Y-91719759D01*
X109220000Y-91487241D01*
X109375363Y-91719759D01*
X109575241Y-91919637D01*
X109810273Y-92076680D01*
X110071426Y-92184853D01*
X110348665Y-92240000D01*
X110631335Y-92240000D01*
X110908574Y-92184853D01*
X111169727Y-92076680D01*
X111404759Y-91919637D01*
X111604637Y-91719759D01*
X111760000Y-91487241D01*
X111915363Y-91719759D01*
X112115241Y-91919637D01*
X112350273Y-92076680D01*
X112611426Y-92184853D01*
X112888665Y-92240000D01*
X113171335Y-92240000D01*
X113448574Y-92184853D01*
X113709727Y-92076680D01*
X113944759Y-91919637D01*
X114144637Y-91719759D01*
X114300000Y-91487241D01*
X114455363Y-91719759D01*
X114655241Y-91919637D01*
X114890273Y-92076680D01*
X115151426Y-92184853D01*
X115428665Y-92240000D01*
X115711335Y-92240000D01*
X115988574Y-92184853D01*
X116249727Y-92076680D01*
X116484759Y-91919637D01*
X116684637Y-91719759D01*
X116840000Y-91487241D01*
X116995363Y-91719759D01*
X117195241Y-91919637D01*
X117430273Y-92076680D01*
X117691426Y-92184853D01*
X117968665Y-92240000D01*
X118251335Y-92240000D01*
X118528574Y-92184853D01*
X118789727Y-92076680D01*
X119024759Y-91919637D01*
X119224637Y-91719759D01*
X119380000Y-91487241D01*
X119535363Y-91719759D01*
X119735241Y-91919637D01*
X119970273Y-92076680D01*
X120231426Y-92184853D01*
X120508665Y-92240000D01*
X120791335Y-92240000D01*
X121068574Y-92184853D01*
X121329727Y-92076680D01*
X121564759Y-91919637D01*
X121764637Y-91719759D01*
X121920000Y-91487241D01*
X122075363Y-91719759D01*
X122275241Y-91919637D01*
X122510273Y-92076680D01*
X122771426Y-92184853D01*
X123048665Y-92240000D01*
X123331335Y-92240000D01*
X123608574Y-92184853D01*
X123869727Y-92076680D01*
X124104759Y-91919637D01*
X124304637Y-91719759D01*
X124460000Y-91487241D01*
X124615363Y-91719759D01*
X124815241Y-91919637D01*
X125050273Y-92076680D01*
X125311426Y-92184853D01*
X125588665Y-92240000D01*
X125871335Y-92240000D01*
X126148574Y-92184853D01*
X126409727Y-92076680D01*
X126644759Y-91919637D01*
X126844637Y-91719759D01*
X127000000Y-91487241D01*
X127155363Y-91719759D01*
X127355241Y-91919637D01*
X127590273Y-92076680D01*
X127851426Y-92184853D01*
X128128665Y-92240000D01*
X128411335Y-92240000D01*
X128688574Y-92184853D01*
X128949727Y-92076680D01*
X129184759Y-91919637D01*
X129384637Y-91719759D01*
X129540000Y-91487241D01*
X129695363Y-91719759D01*
X129895241Y-91919637D01*
X130130273Y-92076680D01*
X130391426Y-92184853D01*
X130668665Y-92240000D01*
X130951335Y-92240000D01*
X131228574Y-92184853D01*
X131489727Y-92076680D01*
X131724759Y-91919637D01*
X131924637Y-91719759D01*
X132081680Y-91484727D01*
X132086067Y-91474135D01*
X132197615Y-91660131D01*
X132386586Y-91868519D01*
X132612580Y-92036037D01*
X132866913Y-92156246D01*
X133000961Y-92196904D01*
X133223000Y-92074915D01*
X133223000Y-90932000D01*
X133203000Y-90932000D01*
X133203000Y-90678000D01*
X133223000Y-90678000D01*
X133223000Y-89535085D01*
X133477000Y-89535085D01*
X133477000Y-90678000D01*
X133497000Y-90678000D01*
X133497000Y-90932000D01*
X133477000Y-90932000D01*
X133477000Y-92074915D01*
X133699039Y-92196904D01*
X133833087Y-92156246D01*
X134087420Y-92036037D01*
X134313414Y-91868519D01*
X134502385Y-91660131D01*
X134613933Y-91474135D01*
X134618320Y-91484727D01*
X134775363Y-91719759D01*
X134975241Y-91919637D01*
X135210273Y-92076680D01*
X135471426Y-92184853D01*
X135748665Y-92240000D01*
X136031335Y-92240000D01*
X136308574Y-92184853D01*
X136569727Y-92076680D01*
X136804759Y-91919637D01*
X137004637Y-91719759D01*
X137161680Y-91484727D01*
X137269853Y-91223574D01*
X137325000Y-90946335D01*
X137325000Y-90663665D01*
X137269853Y-90386426D01*
X137161680Y-90125273D01*
X137004637Y-89890241D01*
X136804759Y-89690363D01*
X136569727Y-89533320D01*
X136308574Y-89425147D01*
X136031335Y-89370000D01*
X135748665Y-89370000D01*
X135471426Y-89425147D01*
X135210273Y-89533320D01*
X134975241Y-89690363D01*
X134775363Y-89890241D01*
X134618320Y-90125273D01*
X134613933Y-90135865D01*
X134502385Y-89949869D01*
X134313414Y-89741481D01*
X134087420Y-89573963D01*
X133833087Y-89453754D01*
X133699039Y-89413096D01*
X133477000Y-89535085D01*
X133223000Y-89535085D01*
X133000961Y-89413096D01*
X132866913Y-89453754D01*
X132612580Y-89573963D01*
X132386586Y-89741481D01*
X132197615Y-89949869D01*
X132086067Y-90135865D01*
X132081680Y-90125273D01*
X131924637Y-89890241D01*
X131724759Y-89690363D01*
X131489727Y-89533320D01*
X131228574Y-89425147D01*
X130951335Y-89370000D01*
X130668665Y-89370000D01*
X130391426Y-89425147D01*
X130130273Y-89533320D01*
X129895241Y-89690363D01*
X129695363Y-89890241D01*
X129540000Y-90122759D01*
X129384637Y-89890241D01*
X129184759Y-89690363D01*
X128949727Y-89533320D01*
X128688574Y-89425147D01*
X128411335Y-89370000D01*
X128128665Y-89370000D01*
X127851426Y-89425147D01*
X127590273Y-89533320D01*
X127355241Y-89690363D01*
X127155363Y-89890241D01*
X127000000Y-90122759D01*
X126844637Y-89890241D01*
X126644759Y-89690363D01*
X126409727Y-89533320D01*
X126148574Y-89425147D01*
X125871335Y-89370000D01*
X125588665Y-89370000D01*
X125311426Y-89425147D01*
X125050273Y-89533320D01*
X124815241Y-89690363D01*
X124615363Y-89890241D01*
X124460000Y-90122759D01*
X124304637Y-89890241D01*
X124104759Y-89690363D01*
X123869727Y-89533320D01*
X123608574Y-89425147D01*
X123331335Y-89370000D01*
X123048665Y-89370000D01*
X122771426Y-89425147D01*
X122510273Y-89533320D01*
X122275241Y-89690363D01*
X122075363Y-89890241D01*
X121920000Y-90122759D01*
X121764637Y-89890241D01*
X121564759Y-89690363D01*
X121329727Y-89533320D01*
X121068574Y-89425147D01*
X120791335Y-89370000D01*
X120508665Y-89370000D01*
X120231426Y-89425147D01*
X119970273Y-89533320D01*
X119735241Y-89690363D01*
X119535363Y-89890241D01*
X119380000Y-90122759D01*
X119224637Y-89890241D01*
X119024759Y-89690363D01*
X118789727Y-89533320D01*
X118528574Y-89425147D01*
X118251335Y-89370000D01*
X117968665Y-89370000D01*
X117691426Y-89425147D01*
X117430273Y-89533320D01*
X117195241Y-89690363D01*
X116995363Y-89890241D01*
X116840000Y-90122759D01*
X116684637Y-89890241D01*
X116484759Y-89690363D01*
X116249727Y-89533320D01*
X115988574Y-89425147D01*
X115711335Y-89370000D01*
X115428665Y-89370000D01*
X115151426Y-89425147D01*
X114890273Y-89533320D01*
X114655241Y-89690363D01*
X114455363Y-89890241D01*
X114300000Y-90122759D01*
X114144637Y-89890241D01*
X113944759Y-89690363D01*
X113709727Y-89533320D01*
X113448574Y-89425147D01*
X113171335Y-89370000D01*
X112888665Y-89370000D01*
X112611426Y-89425147D01*
X112350273Y-89533320D01*
X112115241Y-89690363D01*
X111915363Y-89890241D01*
X111760000Y-90122759D01*
X111604637Y-89890241D01*
X111404759Y-89690363D01*
X111169727Y-89533320D01*
X110908574Y-89425147D01*
X110631335Y-89370000D01*
X110348665Y-89370000D01*
X110071426Y-89425147D01*
X109810273Y-89533320D01*
X109575241Y-89690363D01*
X109375363Y-89890241D01*
X109220000Y-90122759D01*
X109064637Y-89890241D01*
X108864759Y-89690363D01*
X108629727Y-89533320D01*
X108368574Y-89425147D01*
X108091335Y-89370000D01*
X107808665Y-89370000D01*
X107531426Y-89425147D01*
X107270273Y-89533320D01*
X107035241Y-89690363D01*
X106835363Y-89890241D01*
X106680000Y-90122759D01*
X106524637Y-89890241D01*
X106324759Y-89690363D01*
X106089727Y-89533320D01*
X105828574Y-89425147D01*
X105551335Y-89370000D01*
X105268665Y-89370000D01*
X104991426Y-89425147D01*
X104730273Y-89533320D01*
X104495241Y-89690363D01*
X104295363Y-89890241D01*
X104140000Y-90122759D01*
X103984637Y-89890241D01*
X103784759Y-89690363D01*
X103549727Y-89533320D01*
X103288574Y-89425147D01*
X103011335Y-89370000D01*
X102728665Y-89370000D01*
X102451426Y-89425147D01*
X102190273Y-89533320D01*
X101955241Y-89690363D01*
X101755363Y-89890241D01*
X101600000Y-90122759D01*
X101444637Y-89890241D01*
X101244759Y-89690363D01*
X101009727Y-89533320D01*
X100748574Y-89425147D01*
X100471335Y-89370000D01*
X100188665Y-89370000D01*
X99911426Y-89425147D01*
X99650273Y-89533320D01*
X99415241Y-89690363D01*
X99215363Y-89890241D01*
X99058320Y-90125273D01*
X98950147Y-90386426D01*
X98895000Y-90663665D01*
X92100000Y-90663665D01*
X92100000Y-89073816D01*
X182615000Y-89073816D01*
X182615000Y-89376184D01*
X182673989Y-89672743D01*
X182789701Y-89952095D01*
X182957688Y-90203505D01*
X183171495Y-90417312D01*
X183422905Y-90585299D01*
X183702257Y-90701011D01*
X183998816Y-90760000D01*
X184301184Y-90760000D01*
X184597743Y-90701011D01*
X184877095Y-90585299D01*
X185128505Y-90417312D01*
X185342312Y-90203505D01*
X185510299Y-89952095D01*
X185626011Y-89672743D01*
X185685000Y-89376184D01*
X185685000Y-89073816D01*
X185626011Y-88777257D01*
X185510299Y-88497905D01*
X185342312Y-88246495D01*
X185128505Y-88032688D01*
X184877095Y-87864701D01*
X184597743Y-87748989D01*
X184301184Y-87690000D01*
X183998816Y-87690000D01*
X183702257Y-87748989D01*
X183422905Y-87864701D01*
X183171495Y-88032688D01*
X182957688Y-88246495D01*
X182789701Y-88497905D01*
X182673989Y-88777257D01*
X182615000Y-89073816D01*
X92100000Y-89073816D01*
X92100000Y-83605000D01*
X149641928Y-83605000D01*
X149641928Y-85305000D01*
X149654188Y-85429482D01*
X149690498Y-85549180D01*
X149749463Y-85659494D01*
X149828815Y-85756185D01*
X149925506Y-85835537D01*
X150035820Y-85894502D01*
X150155518Y-85930812D01*
X150280000Y-85943072D01*
X151980000Y-85943072D01*
X152104482Y-85930812D01*
X152224180Y-85894502D01*
X152334494Y-85835537D01*
X152431185Y-85756185D01*
X152510537Y-85659494D01*
X152569502Y-85549180D01*
X152593966Y-85468534D01*
X152669731Y-85552588D01*
X152903080Y-85726641D01*
X153165901Y-85851825D01*
X153313110Y-85896476D01*
X153543000Y-85775155D01*
X153543000Y-84582000D01*
X153523000Y-84582000D01*
X153523000Y-84328000D01*
X153543000Y-84328000D01*
X153543000Y-83134845D01*
X153797000Y-83134845D01*
X153797000Y-84328000D01*
X153817000Y-84328000D01*
X153817000Y-84582000D01*
X153797000Y-84582000D01*
X153797000Y-85775155D01*
X154026890Y-85896476D01*
X154174099Y-85851825D01*
X154436920Y-85726641D01*
X154670269Y-85552588D01*
X154865178Y-85336355D01*
X154934805Y-85219466D01*
X155056525Y-85401632D01*
X155263368Y-85608475D01*
X155506589Y-85770990D01*
X155776842Y-85882932D01*
X156063740Y-85940000D01*
X156356260Y-85940000D01*
X156643158Y-85882932D01*
X156913411Y-85770990D01*
X157156632Y-85608475D01*
X157363475Y-85401632D01*
X157480000Y-85227240D01*
X157596525Y-85401632D01*
X157803368Y-85608475D01*
X158046589Y-85770990D01*
X158316842Y-85882932D01*
X158603740Y-85940000D01*
X158896260Y-85940000D01*
X159183158Y-85882932D01*
X159453411Y-85770990D01*
X159696632Y-85608475D01*
X159903475Y-85401632D01*
X160020000Y-85227240D01*
X160136525Y-85401632D01*
X160343368Y-85608475D01*
X160586589Y-85770990D01*
X160856842Y-85882932D01*
X161143740Y-85940000D01*
X161436260Y-85940000D01*
X161723158Y-85882932D01*
X161993411Y-85770990D01*
X162236632Y-85608475D01*
X162443475Y-85401632D01*
X162560000Y-85227240D01*
X162676525Y-85401632D01*
X162883368Y-85608475D01*
X163126589Y-85770990D01*
X163396842Y-85882932D01*
X163683740Y-85940000D01*
X163976260Y-85940000D01*
X164263158Y-85882932D01*
X164533411Y-85770990D01*
X164776632Y-85608475D01*
X164811291Y-85573816D01*
X182615000Y-85573816D01*
X182615000Y-85876184D01*
X182673989Y-86172743D01*
X182789701Y-86452095D01*
X182957688Y-86703505D01*
X183171495Y-86917312D01*
X183422905Y-87085299D01*
X183702257Y-87201011D01*
X183998816Y-87260000D01*
X184301184Y-87260000D01*
X184597743Y-87201011D01*
X184877095Y-87085299D01*
X185128505Y-86917312D01*
X185342312Y-86703505D01*
X185510299Y-86452095D01*
X185626011Y-86172743D01*
X185685000Y-85876184D01*
X185685000Y-85573816D01*
X185626011Y-85277257D01*
X185510299Y-84997905D01*
X185342312Y-84746495D01*
X185128505Y-84532688D01*
X184877095Y-84364701D01*
X184597743Y-84248989D01*
X184301184Y-84190000D01*
X183998816Y-84190000D01*
X183702257Y-84248989D01*
X183422905Y-84364701D01*
X183171495Y-84532688D01*
X182957688Y-84746495D01*
X182789701Y-84997905D01*
X182673989Y-85277257D01*
X182615000Y-85573816D01*
X164811291Y-85573816D01*
X164983475Y-85401632D01*
X165145990Y-85158411D01*
X165257932Y-84888158D01*
X165315000Y-84601260D01*
X165315000Y-84308740D01*
X165257932Y-84021842D01*
X165145990Y-83751589D01*
X164983475Y-83508368D01*
X164776632Y-83301525D01*
X164533411Y-83139010D01*
X164263158Y-83027068D01*
X163976260Y-82970000D01*
X163683740Y-82970000D01*
X163396842Y-83027068D01*
X163126589Y-83139010D01*
X162883368Y-83301525D01*
X162676525Y-83508368D01*
X162560000Y-83682760D01*
X162443475Y-83508368D01*
X162236632Y-83301525D01*
X161993411Y-83139010D01*
X161723158Y-83027068D01*
X161436260Y-82970000D01*
X161143740Y-82970000D01*
X160856842Y-83027068D01*
X160586589Y-83139010D01*
X160343368Y-83301525D01*
X160136525Y-83508368D01*
X160020000Y-83682760D01*
X159903475Y-83508368D01*
X159696632Y-83301525D01*
X159453411Y-83139010D01*
X159183158Y-83027068D01*
X158896260Y-82970000D01*
X158603740Y-82970000D01*
X158316842Y-83027068D01*
X158046589Y-83139010D01*
X157803368Y-83301525D01*
X157596525Y-83508368D01*
X157480000Y-83682760D01*
X157363475Y-83508368D01*
X157156632Y-83301525D01*
X156913411Y-83139010D01*
X156643158Y-83027068D01*
X156356260Y-82970000D01*
X156063740Y-82970000D01*
X155776842Y-83027068D01*
X155506589Y-83139010D01*
X155263368Y-83301525D01*
X155056525Y-83508368D01*
X154934805Y-83690534D01*
X154865178Y-83573645D01*
X154670269Y-83357412D01*
X154436920Y-83183359D01*
X154174099Y-83058175D01*
X154026890Y-83013524D01*
X153797000Y-83134845D01*
X153543000Y-83134845D01*
X153313110Y-83013524D01*
X153165901Y-83058175D01*
X152903080Y-83183359D01*
X152669731Y-83357412D01*
X152593966Y-83441466D01*
X152569502Y-83360820D01*
X152510537Y-83250506D01*
X152431185Y-83153815D01*
X152334494Y-83074463D01*
X152224180Y-83015498D01*
X152104482Y-82979188D01*
X151980000Y-82966928D01*
X150280000Y-82966928D01*
X150155518Y-82979188D01*
X150035820Y-83015498D01*
X149925506Y-83074463D01*
X149828815Y-83153815D01*
X149749463Y-83250506D01*
X149690498Y-83360820D01*
X149654188Y-83480518D01*
X149641928Y-83605000D01*
X92100000Y-83605000D01*
X92100000Y-77827702D01*
X179836903Y-77827702D01*
X179908486Y-78071671D01*
X180163996Y-78192571D01*
X180438184Y-78261300D01*
X180720512Y-78275217D01*
X181000130Y-78233787D01*
X181266292Y-78138603D01*
X181391514Y-78071671D01*
X181463097Y-77827702D01*
X180650000Y-77014605D01*
X179836903Y-77827702D01*
X92100000Y-77827702D01*
X92100000Y-75423665D01*
X98895000Y-75423665D01*
X98895000Y-75706335D01*
X98950147Y-75983574D01*
X99058320Y-76244727D01*
X99215363Y-76479759D01*
X99415241Y-76679637D01*
X99650273Y-76836680D01*
X99911426Y-76944853D01*
X100188665Y-77000000D01*
X100471335Y-77000000D01*
X100748574Y-76944853D01*
X101009727Y-76836680D01*
X101244759Y-76679637D01*
X101444637Y-76479759D01*
X101600000Y-76247241D01*
X101755363Y-76479759D01*
X101955241Y-76679637D01*
X102190273Y-76836680D01*
X102451426Y-76944853D01*
X102728665Y-77000000D01*
X103011335Y-77000000D01*
X103288574Y-76944853D01*
X103549727Y-76836680D01*
X103784759Y-76679637D01*
X103984637Y-76479759D01*
X104140000Y-76247241D01*
X104295363Y-76479759D01*
X104495241Y-76679637D01*
X104730273Y-76836680D01*
X104991426Y-76944853D01*
X105268665Y-77000000D01*
X105551335Y-77000000D01*
X105828574Y-76944853D01*
X106089727Y-76836680D01*
X106324759Y-76679637D01*
X106524637Y-76479759D01*
X106680000Y-76247241D01*
X106835363Y-76479759D01*
X107035241Y-76679637D01*
X107270273Y-76836680D01*
X107531426Y-76944853D01*
X107808665Y-77000000D01*
X108091335Y-77000000D01*
X108368574Y-76944853D01*
X108629727Y-76836680D01*
X108864759Y-76679637D01*
X109064637Y-76479759D01*
X109220000Y-76247241D01*
X109375363Y-76479759D01*
X109575241Y-76679637D01*
X109810273Y-76836680D01*
X110071426Y-76944853D01*
X110348665Y-77000000D01*
X110631335Y-77000000D01*
X110908574Y-76944853D01*
X111169727Y-76836680D01*
X111404759Y-76679637D01*
X111604637Y-76479759D01*
X111760000Y-76247241D01*
X111915363Y-76479759D01*
X112115241Y-76679637D01*
X112350273Y-76836680D01*
X112611426Y-76944853D01*
X112888665Y-77000000D01*
X113171335Y-77000000D01*
X113448574Y-76944853D01*
X113709727Y-76836680D01*
X113944759Y-76679637D01*
X114144637Y-76479759D01*
X114300000Y-76247241D01*
X114455363Y-76479759D01*
X114655241Y-76679637D01*
X114890273Y-76836680D01*
X115151426Y-76944853D01*
X115428665Y-77000000D01*
X115711335Y-77000000D01*
X115988574Y-76944853D01*
X116249727Y-76836680D01*
X116484759Y-76679637D01*
X116684637Y-76479759D01*
X116840000Y-76247241D01*
X116995363Y-76479759D01*
X117195241Y-76679637D01*
X117430273Y-76836680D01*
X117691426Y-76944853D01*
X117968665Y-77000000D01*
X118251335Y-77000000D01*
X118528574Y-76944853D01*
X118789727Y-76836680D01*
X119024759Y-76679637D01*
X119224637Y-76479759D01*
X119380000Y-76247241D01*
X119535363Y-76479759D01*
X119735241Y-76679637D01*
X119970273Y-76836680D01*
X120231426Y-76944853D01*
X120508665Y-77000000D01*
X120791335Y-77000000D01*
X121068574Y-76944853D01*
X121329727Y-76836680D01*
X121564759Y-76679637D01*
X121764637Y-76479759D01*
X121920000Y-76247241D01*
X122075363Y-76479759D01*
X122275241Y-76679637D01*
X122510273Y-76836680D01*
X122771426Y-76944853D01*
X123048665Y-77000000D01*
X123331335Y-77000000D01*
X123608574Y-76944853D01*
X123869727Y-76836680D01*
X124104759Y-76679637D01*
X124304637Y-76479759D01*
X124460000Y-76247241D01*
X124615363Y-76479759D01*
X124815241Y-76679637D01*
X125050273Y-76836680D01*
X125311426Y-76944853D01*
X125588665Y-77000000D01*
X125871335Y-77000000D01*
X126148574Y-76944853D01*
X126409727Y-76836680D01*
X126644759Y-76679637D01*
X126844637Y-76479759D01*
X127001680Y-76244727D01*
X127006067Y-76234135D01*
X127117615Y-76420131D01*
X127306586Y-76628519D01*
X127532580Y-76796037D01*
X127786913Y-76916246D01*
X127920961Y-76956904D01*
X128143000Y-76834915D01*
X128143000Y-75692000D01*
X128123000Y-75692000D01*
X128123000Y-75438000D01*
X128143000Y-75438000D01*
X128143000Y-74295085D01*
X128397000Y-74295085D01*
X128397000Y-75438000D01*
X128417000Y-75438000D01*
X128417000Y-75692000D01*
X128397000Y-75692000D01*
X128397000Y-76834915D01*
X128619039Y-76956904D01*
X128753087Y-76916246D01*
X129007420Y-76796037D01*
X129233414Y-76628519D01*
X129422385Y-76420131D01*
X129533933Y-76234135D01*
X129538320Y-76244727D01*
X129695363Y-76479759D01*
X129895241Y-76679637D01*
X130130273Y-76836680D01*
X130391426Y-76944853D01*
X130668665Y-77000000D01*
X130951335Y-77000000D01*
X131228574Y-76944853D01*
X131489727Y-76836680D01*
X131724759Y-76679637D01*
X131924637Y-76479759D01*
X132080000Y-76247241D01*
X132235363Y-76479759D01*
X132435241Y-76679637D01*
X132670273Y-76836680D01*
X132931426Y-76944853D01*
X133208665Y-77000000D01*
X133491335Y-77000000D01*
X133768574Y-76944853D01*
X134029727Y-76836680D01*
X134264759Y-76679637D01*
X134463357Y-76481039D01*
X134464188Y-76489482D01*
X134500498Y-76609180D01*
X134559463Y-76719494D01*
X134638815Y-76816185D01*
X134735506Y-76895537D01*
X134845820Y-76954502D01*
X134965518Y-76990812D01*
X135090000Y-77003072D01*
X136690000Y-77003072D01*
X136814482Y-76990812D01*
X136934180Y-76954502D01*
X137025832Y-76905512D01*
X179209783Y-76905512D01*
X179251213Y-77185130D01*
X179346397Y-77451292D01*
X179413329Y-77576514D01*
X179657298Y-77648097D01*
X180470395Y-76835000D01*
X180829605Y-76835000D01*
X181642702Y-77648097D01*
X181886671Y-77576514D01*
X182007571Y-77321004D01*
X182076300Y-77046816D01*
X182090217Y-76764488D01*
X182048787Y-76484870D01*
X181953603Y-76218708D01*
X181886671Y-76093486D01*
X181687340Y-76035000D01*
X182711928Y-76035000D01*
X182711928Y-77635000D01*
X182724188Y-77759482D01*
X182760498Y-77879180D01*
X182819463Y-77989494D01*
X182898815Y-78086185D01*
X182995506Y-78165537D01*
X183105820Y-78224502D01*
X183225518Y-78260812D01*
X183350000Y-78273072D01*
X184950000Y-78273072D01*
X185074482Y-78260812D01*
X185194180Y-78224502D01*
X185304494Y-78165537D01*
X185401185Y-78086185D01*
X185480537Y-77989494D01*
X185539502Y-77879180D01*
X185575812Y-77759482D01*
X185588072Y-77635000D01*
X185588072Y-76035000D01*
X185575812Y-75910518D01*
X185539502Y-75790820D01*
X185480537Y-75680506D01*
X185401185Y-75583815D01*
X185304494Y-75504463D01*
X185194180Y-75445498D01*
X185074482Y-75409188D01*
X184950000Y-75396928D01*
X183350000Y-75396928D01*
X183225518Y-75409188D01*
X183105820Y-75445498D01*
X182995506Y-75504463D01*
X182898815Y-75583815D01*
X182819463Y-75680506D01*
X182760498Y-75790820D01*
X182724188Y-75910518D01*
X182711928Y-76035000D01*
X181687340Y-76035000D01*
X181642702Y-76021903D01*
X180829605Y-76835000D01*
X180470395Y-76835000D01*
X179657298Y-76021903D01*
X179413329Y-76093486D01*
X179292429Y-76348996D01*
X179223700Y-76623184D01*
X179209783Y-76905512D01*
X137025832Y-76905512D01*
X137044494Y-76895537D01*
X137141185Y-76816185D01*
X137220537Y-76719494D01*
X137279502Y-76609180D01*
X137315812Y-76489482D01*
X137328072Y-76365000D01*
X137328072Y-75842298D01*
X179836903Y-75842298D01*
X180650000Y-76655395D01*
X181463097Y-75842298D01*
X181391514Y-75598329D01*
X181136004Y-75477429D01*
X180861816Y-75408700D01*
X180579488Y-75394783D01*
X180299870Y-75436213D01*
X180033708Y-75531397D01*
X179908486Y-75598329D01*
X179836903Y-75842298D01*
X137328072Y-75842298D01*
X137328072Y-74765000D01*
X137315812Y-74640518D01*
X137279502Y-74520820D01*
X137220537Y-74410506D01*
X137141185Y-74313815D01*
X137044494Y-74234463D01*
X136934180Y-74175498D01*
X136814482Y-74139188D01*
X136690000Y-74126928D01*
X135090000Y-74126928D01*
X134965518Y-74139188D01*
X134845820Y-74175498D01*
X134735506Y-74234463D01*
X134638815Y-74313815D01*
X134559463Y-74410506D01*
X134500498Y-74520820D01*
X134464188Y-74640518D01*
X134463357Y-74648961D01*
X134264759Y-74450363D01*
X134029727Y-74293320D01*
X133768574Y-74185147D01*
X133491335Y-74130000D01*
X133208665Y-74130000D01*
X132931426Y-74185147D01*
X132670273Y-74293320D01*
X132435241Y-74450363D01*
X132235363Y-74650241D01*
X132080000Y-74882759D01*
X131924637Y-74650241D01*
X131724759Y-74450363D01*
X131489727Y-74293320D01*
X131228574Y-74185147D01*
X130951335Y-74130000D01*
X130668665Y-74130000D01*
X130391426Y-74185147D01*
X130130273Y-74293320D01*
X129895241Y-74450363D01*
X129695363Y-74650241D01*
X129538320Y-74885273D01*
X129533933Y-74895865D01*
X129422385Y-74709869D01*
X129233414Y-74501481D01*
X129007420Y-74333963D01*
X128753087Y-74213754D01*
X128619039Y-74173096D01*
X128397000Y-74295085D01*
X128143000Y-74295085D01*
X127920961Y-74173096D01*
X127786913Y-74213754D01*
X127532580Y-74333963D01*
X127306586Y-74501481D01*
X127117615Y-74709869D01*
X127006067Y-74895865D01*
X127001680Y-74885273D01*
X126844637Y-74650241D01*
X126644759Y-74450363D01*
X126409727Y-74293320D01*
X126148574Y-74185147D01*
X125871335Y-74130000D01*
X125588665Y-74130000D01*
X125311426Y-74185147D01*
X125050273Y-74293320D01*
X124815241Y-74450363D01*
X124615363Y-74650241D01*
X124460000Y-74882759D01*
X124304637Y-74650241D01*
X124104759Y-74450363D01*
X123869727Y-74293320D01*
X123608574Y-74185147D01*
X123331335Y-74130000D01*
X123048665Y-74130000D01*
X122771426Y-74185147D01*
X122510273Y-74293320D01*
X122275241Y-74450363D01*
X122075363Y-74650241D01*
X121920000Y-74882759D01*
X121764637Y-74650241D01*
X121564759Y-74450363D01*
X121329727Y-74293320D01*
X121068574Y-74185147D01*
X120791335Y-74130000D01*
X120508665Y-74130000D01*
X120231426Y-74185147D01*
X119970273Y-74293320D01*
X119735241Y-74450363D01*
X119535363Y-74650241D01*
X119380000Y-74882759D01*
X119224637Y-74650241D01*
X119024759Y-74450363D01*
X118789727Y-74293320D01*
X118528574Y-74185147D01*
X118251335Y-74130000D01*
X117968665Y-74130000D01*
X117691426Y-74185147D01*
X117430273Y-74293320D01*
X117195241Y-74450363D01*
X116995363Y-74650241D01*
X116840000Y-74882759D01*
X116684637Y-74650241D01*
X116484759Y-74450363D01*
X116249727Y-74293320D01*
X115988574Y-74185147D01*
X115711335Y-74130000D01*
X115428665Y-74130000D01*
X115151426Y-74185147D01*
X114890273Y-74293320D01*
X114655241Y-74450363D01*
X114455363Y-74650241D01*
X114300000Y-74882759D01*
X114144637Y-74650241D01*
X113944759Y-74450363D01*
X113709727Y-74293320D01*
X113448574Y-74185147D01*
X113171335Y-74130000D01*
X112888665Y-74130000D01*
X112611426Y-74185147D01*
X112350273Y-74293320D01*
X112115241Y-74450363D01*
X111915363Y-74650241D01*
X111760000Y-74882759D01*
X111604637Y-74650241D01*
X111404759Y-74450363D01*
X111169727Y-74293320D01*
X110908574Y-74185147D01*
X110631335Y-74130000D01*
X110348665Y-74130000D01*
X110071426Y-74185147D01*
X109810273Y-74293320D01*
X109575241Y-74450363D01*
X109375363Y-74650241D01*
X109220000Y-74882759D01*
X109064637Y-74650241D01*
X108864759Y-74450363D01*
X108629727Y-74293320D01*
X108368574Y-74185147D01*
X108091335Y-74130000D01*
X107808665Y-74130000D01*
X107531426Y-74185147D01*
X107270273Y-74293320D01*
X107035241Y-74450363D01*
X106835363Y-74650241D01*
X106680000Y-74882759D01*
X106524637Y-74650241D01*
X106324759Y-74450363D01*
X106089727Y-74293320D01*
X105828574Y-74185147D01*
X105551335Y-74130000D01*
X105268665Y-74130000D01*
X104991426Y-74185147D01*
X104730273Y-74293320D01*
X104495241Y-74450363D01*
X104295363Y-74650241D01*
X104140000Y-74882759D01*
X103984637Y-74650241D01*
X103784759Y-74450363D01*
X103549727Y-74293320D01*
X103288574Y-74185147D01*
X103011335Y-74130000D01*
X102728665Y-74130000D01*
X102451426Y-74185147D01*
X102190273Y-74293320D01*
X101955241Y-74450363D01*
X101755363Y-74650241D01*
X101600000Y-74882759D01*
X101444637Y-74650241D01*
X101244759Y-74450363D01*
X101009727Y-74293320D01*
X100748574Y-74185147D01*
X100471335Y-74130000D01*
X100188665Y-74130000D01*
X99911426Y-74185147D01*
X99650273Y-74293320D01*
X99415241Y-74450363D01*
X99215363Y-74650241D01*
X99058320Y-74885273D01*
X98950147Y-75146426D01*
X98895000Y-75423665D01*
X92100000Y-75423665D01*
X92100000Y-67567285D01*
X92685000Y-67567285D01*
X92685000Y-68322715D01*
X92832377Y-69063628D01*
X93121467Y-69761554D01*
X93541161Y-70389670D01*
X94075330Y-70923839D01*
X94703446Y-71343533D01*
X95401372Y-71632623D01*
X96142285Y-71780000D01*
X96897715Y-71780000D01*
X97638628Y-71632623D01*
X98012640Y-71477702D01*
X174486903Y-71477702D01*
X174558486Y-71721671D01*
X174813996Y-71842571D01*
X175088184Y-71911300D01*
X175370512Y-71925217D01*
X175650130Y-71883787D01*
X175916292Y-71788603D01*
X176041514Y-71721671D01*
X176113097Y-71477702D01*
X175300000Y-70664605D01*
X174486903Y-71477702D01*
X98012640Y-71477702D01*
X98336554Y-71343533D01*
X98964670Y-70923839D01*
X99332997Y-70555512D01*
X173859783Y-70555512D01*
X173901213Y-70835130D01*
X173996397Y-71101292D01*
X174063329Y-71226514D01*
X174307298Y-71298097D01*
X175120395Y-70485000D01*
X175479605Y-70485000D01*
X176292702Y-71298097D01*
X176536671Y-71226514D01*
X176550324Y-71197659D01*
X176685363Y-71399759D01*
X176885241Y-71599637D01*
X177120273Y-71756680D01*
X177381426Y-71864853D01*
X177658665Y-71920000D01*
X177941335Y-71920000D01*
X178218574Y-71864853D01*
X178479727Y-71756680D01*
X178714759Y-71599637D01*
X178914637Y-71399759D01*
X179071680Y-71164727D01*
X179179853Y-70903574D01*
X179235000Y-70626335D01*
X179235000Y-70343665D01*
X179179853Y-70066426D01*
X179071680Y-69805273D01*
X178914637Y-69570241D01*
X178714759Y-69370363D01*
X178479727Y-69213320D01*
X178218574Y-69105147D01*
X177941335Y-69050000D01*
X177658665Y-69050000D01*
X177381426Y-69105147D01*
X177120273Y-69213320D01*
X176885241Y-69370363D01*
X176685363Y-69570241D01*
X176551308Y-69770869D01*
X176536671Y-69743486D01*
X176292702Y-69671903D01*
X175479605Y-70485000D01*
X175120395Y-70485000D01*
X174307298Y-69671903D01*
X174063329Y-69743486D01*
X173942429Y-69998996D01*
X173873700Y-70273184D01*
X173859783Y-70555512D01*
X99332997Y-70555512D01*
X99498839Y-70389670D01*
X99918533Y-69761554D01*
X100030062Y-69492298D01*
X174486903Y-69492298D01*
X175300000Y-70305395D01*
X176113097Y-69492298D01*
X176041514Y-69248329D01*
X175786004Y-69127429D01*
X175511816Y-69058700D01*
X175229488Y-69044783D01*
X174949870Y-69086213D01*
X174683708Y-69181397D01*
X174558486Y-69248329D01*
X174486903Y-69492298D01*
X100030062Y-69492298D01*
X100207623Y-69063628D01*
X100355000Y-68322715D01*
X100355000Y-67567285D01*
X181585000Y-67567285D01*
X181585000Y-68322715D01*
X181732377Y-69063628D01*
X182021467Y-69761554D01*
X182441161Y-70389670D01*
X182975330Y-70923839D01*
X183603446Y-71343533D01*
X184301372Y-71632623D01*
X185042285Y-71780000D01*
X185797715Y-71780000D01*
X186538628Y-71632623D01*
X187236554Y-71343533D01*
X187864670Y-70923839D01*
X188398839Y-70389670D01*
X188818533Y-69761554D01*
X189107623Y-69063628D01*
X189255000Y-68322715D01*
X189255000Y-67567285D01*
X189107623Y-66826372D01*
X188818533Y-66128446D01*
X188398839Y-65500330D01*
X187864670Y-64966161D01*
X187236554Y-64546467D01*
X186538628Y-64257377D01*
X185797715Y-64110000D01*
X185042285Y-64110000D01*
X184301372Y-64257377D01*
X183603446Y-64546467D01*
X182975330Y-64966161D01*
X182441161Y-65500330D01*
X182021467Y-66128446D01*
X181732377Y-66826372D01*
X181585000Y-67567285D01*
X100355000Y-67567285D01*
X100207623Y-66826372D01*
X99918533Y-66128446D01*
X99498839Y-65500330D01*
X98964670Y-64966161D01*
X98336554Y-64546467D01*
X97638628Y-64257377D01*
X96897715Y-64110000D01*
X96142285Y-64110000D01*
X95401372Y-64257377D01*
X94703446Y-64546467D01*
X94075330Y-64966161D01*
X93541161Y-65500330D01*
X93121467Y-66128446D01*
X92832377Y-66826372D01*
X92685000Y-67567285D01*
X92100000Y-67567285D01*
X92100000Y-63525000D01*
X189840001Y-63525000D01*
X189840000Y-130785000D01*
%TD*%
M02*
