%TF.GenerationSoftware,KiCad,Pcbnew,(5.1.6)-1*%
%TF.CreationDate,2020-11-08T18:33:20-05:00*%
%TF.ProjectId,ColorSensingLEDStrip,436f6c6f-7253-4656-9e73-696e674c4544,rev?*%
%TF.SameCoordinates,Original*%
%TF.FileFunction,Soldermask,Top*%
%TF.FilePolarity,Negative*%
%FSLAX46Y46*%
G04 Gerber Fmt 4.6, Leading zero omitted, Abs format (unit mm)*
G04 Created by KiCad (PCBNEW (5.1.6)-1) date 2020-11-08 18:33:20*
%MOMM*%
%LPD*%
G01*
G04 APERTURE LIST*
%ADD10C,1.900000*%
%ADD11C,6.500000*%
%ADD12O,1.800000X1.800000*%
%ADD13R,1.800000X1.800000*%
%ADD14C,1.800000*%
%ADD15R,2.100000X2.100000*%
%ADD16C,2.100000*%
%ADD17R,2.600000X3.100000*%
%ADD18R,2.100000X4.600000*%
%ADD19R,4.600000X2.100000*%
%ADD20C,1.700000*%
%ADD21R,1.700000X1.700000*%
%ADD22O,1.700000X1.700000*%
G04 APERTURE END LIST*
D10*
%TO.C,J2*%
X207010000Y-90510000D03*
X207010000Y-87010000D03*
X207010000Y-83510000D03*
X207010000Y-80010000D03*
%TD*%
D11*
%TO.C,REF\u002A\u002A*%
X119380000Y-120650000D03*
%TD*%
%TO.C,REF\u002A\u002A*%
X119380000Y-62230000D03*
%TD*%
%TO.C,REF\u002A\u002A*%
X208280000Y-62230000D03*
%TD*%
%TO.C,REF\u002A\u002A*%
X208280000Y-120650000D03*
%TD*%
D12*
%TO.C,U1*%
X186690000Y-78740000D03*
X184150000Y-78740000D03*
X181610000Y-78740000D03*
X179070000Y-78740000D03*
X176530000Y-78740000D03*
D13*
X173990000Y-78740000D03*
%TD*%
D14*
%TO.C,U2*%
X176170000Y-94410000D03*
X173630000Y-94410000D03*
X171090000Y-94410000D03*
D13*
X168550000Y-94410000D03*
%TD*%
D15*
%TO.C,SW1*%
X199390000Y-100330000D03*
D16*
X196890000Y-100330000D03*
X194390000Y-100330000D03*
D17*
X202490000Y-107830000D03*
X191290000Y-107830000D03*
D16*
X199390000Y-114830000D03*
X194390000Y-114830000D03*
%TD*%
D18*
%TO.C,J1*%
X123365000Y-103505000D03*
X129365000Y-103505000D03*
D19*
X126365000Y-108205000D03*
%TD*%
D20*
%TO.C,C4*%
X198160000Y-64770000D03*
X200660000Y-64770000D03*
%TD*%
%TO.C,C3*%
X203510000Y-71120000D03*
D21*
X207010000Y-71120000D03*
%TD*%
D20*
%TO.C,C2*%
X127310000Y-115570000D03*
D21*
X130810000Y-115570000D03*
%TD*%
D20*
%TO.C,C1*%
X137120000Y-120650000D03*
X134620000Y-120650000D03*
%TD*%
D22*
%TO.C,A1*%
X123190000Y-85090000D03*
X123190000Y-69850000D03*
X158750000Y-85090000D03*
X125730000Y-69850000D03*
X156210000Y-85090000D03*
X128270000Y-69850000D03*
X153670000Y-85090000D03*
X130810000Y-69850000D03*
X151130000Y-85090000D03*
X133350000Y-69850000D03*
X148590000Y-85090000D03*
X135890000Y-69850000D03*
X146050000Y-85090000D03*
X138430000Y-69850000D03*
X143510000Y-85090000D03*
X140970000Y-69850000D03*
X140970000Y-85090000D03*
X143510000Y-69850000D03*
X138430000Y-85090000D03*
X146050000Y-69850000D03*
X135890000Y-85090000D03*
X148590000Y-69850000D03*
X133350000Y-85090000D03*
X151130000Y-69850000D03*
X130810000Y-85090000D03*
X153670000Y-69850000D03*
X128270000Y-85090000D03*
X156210000Y-69850000D03*
X125730000Y-85090000D03*
D21*
X158750000Y-69850000D03*
%TD*%
M02*
