M48
; DRILL file {KiCad (5.1.6)-1} date 11/08/20 18:33:23
; FORMAT={-:-/ absolute / inch / decimal}
; #@! TF.CreationDate,2020-11-08T18:33:23-05:00
; #@! TF.GenerationSoftware,Kicad,Pcbnew,(5.1.6)-1
FMAT,2
INCH
T1C0.0315
T2C0.0394
T3C0.0472
T4C0.0787
T5C0.1260
T6C0.1260
%
G90
G05
T1
X7.8016Y-2.55
X7.9Y-2.55
X5.0122Y-4.55
X5.15Y-4.55
X8.0122Y-2.8
X8.15Y-2.8
X5.3Y-4.75
X5.3984Y-4.75
T2
X6.85Y-3.1
X6.95Y-3.1
X7.05Y-3.1
X7.15Y-3.1
X7.25Y-3.1
X7.35Y-3.1
X6.6358Y-3.7169
X6.7358Y-3.7169
X6.8358Y-3.7169
X6.9358Y-3.7169
X4.85Y-2.75
X4.85Y-3.35
X4.95Y-2.75
X4.95Y-3.35
X5.05Y-2.75
X5.05Y-3.35
X5.15Y-2.75
X5.15Y-3.35
X5.25Y-2.75
X5.25Y-3.35
X5.35Y-2.75
X5.35Y-3.35
X5.45Y-2.75
X5.45Y-3.35
X5.55Y-2.75
X5.55Y-3.35
X5.65Y-2.75
X5.65Y-3.35
X5.75Y-2.75
X5.75Y-3.35
X5.85Y-2.75
X5.85Y-3.35
X5.95Y-2.75
X5.95Y-3.35
X6.05Y-2.75
X6.05Y-3.35
X6.15Y-2.75
X6.15Y-3.35
X6.25Y-2.75
X6.25Y-3.35
X7.6531Y-3.95
X7.6531Y-4.5209
X7.7516Y-3.95
X7.85Y-3.95
X7.85Y-4.5209
T3
X8.15Y-3.15
X8.15Y-3.2878
X8.15Y-3.4256
X8.15Y-3.5634
T5
X8.2Y-2.45
X4.7Y-2.45
X4.7Y-4.75
T6
X8.2Y-4.75
T2
G00X4.8569Y-4.1242
M15
G01X4.8569Y-4.0258
M16
G05
G00X4.9258Y-4.26
M15
G01X5.0242Y-4.26
M16
G05
G00X5.0931Y-4.1242
M15
G01X5.0931Y-4.0258
M16
G05
T4
G00X7.5311Y-4.2354
M15
G01X7.5311Y-4.2551
M16
G05
G00X7.972Y-4.2354
M15
G01X7.972Y-4.2551
M16
G05
T0
M30
