%TF.GenerationSoftware,KiCad,Pcbnew,(5.1.6)-1*%
%TF.CreationDate,2020-11-08T18:33:20-05:00*%
%TF.ProjectId,ColorSensingLEDStrip,436f6c6f-7253-4656-9e73-696e674c4544,rev?*%
%TF.SameCoordinates,Original*%
%TF.FileFunction,Copper,L2,Bot*%
%TF.FilePolarity,Positive*%
%FSLAX46Y46*%
G04 Gerber Fmt 4.6, Leading zero omitted, Abs format (unit mm)*
G04 Created by KiCad (PCBNEW (5.1.6)-1) date 2020-11-08 18:33:20*
%MOMM*%
%LPD*%
G01*
G04 APERTURE LIST*
%TA.AperFunction,ComponentPad*%
%ADD10C,1.800000*%
%TD*%
%TA.AperFunction,ComponentPad*%
%ADD11C,6.400000*%
%TD*%
%TA.AperFunction,ComponentPad*%
%ADD12O,1.700000X1.700000*%
%TD*%
%TA.AperFunction,ComponentPad*%
%ADD13R,1.700000X1.700000*%
%TD*%
%TA.AperFunction,ComponentPad*%
%ADD14C,1.700000*%
%TD*%
%TA.AperFunction,ComponentPad*%
%ADD15R,2.000000X2.000000*%
%TD*%
%TA.AperFunction,ComponentPad*%
%ADD16C,2.000000*%
%TD*%
%TA.AperFunction,ComponentPad*%
%ADD17R,2.500000X3.000000*%
%TD*%
%TA.AperFunction,ComponentPad*%
%ADD18R,2.000000X4.500000*%
%TD*%
%TA.AperFunction,ComponentPad*%
%ADD19R,4.500000X2.000000*%
%TD*%
%TA.AperFunction,ComponentPad*%
%ADD20C,1.600000*%
%TD*%
%TA.AperFunction,ComponentPad*%
%ADD21R,1.600000X1.600000*%
%TD*%
%TA.AperFunction,ComponentPad*%
%ADD22O,1.600000X1.600000*%
%TD*%
%TA.AperFunction,Conductor*%
%ADD23C,0.254000*%
%TD*%
G04 APERTURE END LIST*
D10*
%TO.P,J2,4*%
%TO.N,GND*%
X207010000Y-90510000D03*
%TO.P,J2,3*%
%TO.N,LED_DI*%
X207010000Y-87010000D03*
%TO.P,J2,2*%
%TO.N,LED_CI*%
X207010000Y-83510000D03*
%TO.P,J2,1*%
%TO.N,+5V*%
X207010000Y-80010000D03*
%TD*%
D11*
%TO.P,REF\u002A\u002A,1*%
%TO.N,N/C*%
X119380000Y-120650000D03*
%TD*%
%TO.P,REF\u002A\u002A,1*%
%TO.N,N/C*%
X119380000Y-62230000D03*
%TD*%
%TO.P,REF\u002A\u002A,1*%
%TO.N,N/C*%
X208280000Y-62230000D03*
%TD*%
%TO.P,REF\u002A\u002A,1*%
%TO.N,N/C*%
X208280000Y-120650000D03*
%TD*%
D12*
%TO.P,U1,6*%
%TO.N,Net-(U1-Pad6)*%
X186690000Y-78740000D03*
%TO.P,U1,5*%
%TO.N,Net-(U1-Pad5)*%
X184150000Y-78740000D03*
%TO.P,U1,4*%
%TO.N,I2C_SDA*%
X181610000Y-78740000D03*
%TO.P,U1,3*%
%TO.N,I2C_SCL*%
X179070000Y-78740000D03*
%TO.P,U1,2*%
%TO.N,GND*%
X176530000Y-78740000D03*
D13*
%TO.P,U1,1*%
%TO.N,+5V*%
X173990000Y-78740000D03*
%TD*%
D14*
%TO.P,U2,4*%
%TO.N,I2C_SDA*%
X176170000Y-94410000D03*
%TO.P,U2,3*%
%TO.N,I2C_SCL*%
X173630000Y-94410000D03*
%TO.P,U2,2*%
%TO.N,+5V*%
X171090000Y-94410000D03*
D13*
%TO.P,U2,1*%
%TO.N,GND*%
X168550000Y-94410000D03*
%TD*%
D15*
%TO.P,SW1,A*%
%TO.N,ENCODER_A*%
X199390000Y-100330000D03*
D16*
%TO.P,SW1,C*%
%TO.N,GND*%
X196890000Y-100330000D03*
%TO.P,SW1,B*%
%TO.N,ENCODER_B*%
X194390000Y-100330000D03*
D17*
%TO.P,SW1,MP*%
%TO.N,N/C*%
X202490000Y-107830000D03*
X191290000Y-107830000D03*
D16*
%TO.P,SW1,S1*%
%TO.N,ENCODER_SW*%
X199390000Y-114830000D03*
%TO.P,SW1,S2*%
%TO.N,GND*%
X194390000Y-114830000D03*
%TD*%
D18*
%TO.P,J1,2*%
%TO.N,GND*%
X123365000Y-103505000D03*
%TO.P,J1,1*%
%TO.N,+5V*%
X129365000Y-103505000D03*
D19*
%TO.P,J1,3*%
%TO.N,Net-(J1-Pad3)*%
X126365000Y-108205000D03*
%TD*%
D20*
%TO.P,C4,2*%
%TO.N,GND*%
X198160000Y-64770000D03*
%TO.P,C4,1*%
%TO.N,+5V*%
X200660000Y-64770000D03*
%TD*%
%TO.P,C3,2*%
%TO.N,GND*%
X203510000Y-71120000D03*
D21*
%TO.P,C3,1*%
%TO.N,+5V*%
X207010000Y-71120000D03*
%TD*%
D20*
%TO.P,C2,2*%
%TO.N,GND*%
X127310000Y-115570000D03*
D21*
%TO.P,C2,1*%
%TO.N,+5V*%
X130810000Y-115570000D03*
%TD*%
D20*
%TO.P,C1,2*%
%TO.N,GND*%
X137120000Y-120650000D03*
%TO.P,C1,1*%
%TO.N,+5V*%
X134620000Y-120650000D03*
%TD*%
D22*
%TO.P,A1,16*%
%TO.N,Net-(A1-Pad16)*%
X123190000Y-85090000D03*
%TO.P,A1,15*%
%TO.N,Net-(A1-Pad15)*%
X123190000Y-69850000D03*
%TO.P,A1,30*%
%TO.N,Net-(A1-Pad30)*%
X158750000Y-85090000D03*
%TO.P,A1,14*%
%TO.N,Net-(A1-Pad14)*%
X125730000Y-69850000D03*
%TO.P,A1,29*%
%TO.N,GND*%
X156210000Y-85090000D03*
%TO.P,A1,13*%
%TO.N,Net-(A1-Pad13)*%
X128270000Y-69850000D03*
%TO.P,A1,28*%
%TO.N,Net-(A1-Pad28)*%
X153670000Y-85090000D03*
%TO.P,A1,12*%
%TO.N,Net-(A1-Pad12)*%
X130810000Y-69850000D03*
%TO.P,A1,27*%
%TO.N,+5V*%
X151130000Y-85090000D03*
%TO.P,A1,11*%
%TO.N,Net-(A1-Pad11)*%
X133350000Y-69850000D03*
%TO.P,A1,26*%
%TO.N,Net-(A1-Pad26)*%
X148590000Y-85090000D03*
%TO.P,A1,10*%
%TO.N,Net-(A1-Pad10)*%
X135890000Y-69850000D03*
%TO.P,A1,25*%
%TO.N,Net-(A1-Pad25)*%
X146050000Y-85090000D03*
%TO.P,A1,9*%
%TO.N,Net-(A1-Pad9)*%
X138430000Y-69850000D03*
%TO.P,A1,24*%
%TO.N,I2C_SCL*%
X143510000Y-85090000D03*
%TO.P,A1,8*%
%TO.N,LED_DI*%
X140970000Y-69850000D03*
%TO.P,A1,23*%
%TO.N,I2C_SDA*%
X140970000Y-85090000D03*
%TO.P,A1,7*%
%TO.N,LED_CI*%
X143510000Y-69850000D03*
%TO.P,A1,22*%
%TO.N,Net-(A1-Pad22)*%
X138430000Y-85090000D03*
%TO.P,A1,6*%
%TO.N,Net-(A1-Pad6)*%
X146050000Y-69850000D03*
%TO.P,A1,21*%
%TO.N,ENCODER_B*%
X135890000Y-85090000D03*
%TO.P,A1,5*%
%TO.N,Net-(A1-Pad5)*%
X148590000Y-69850000D03*
%TO.P,A1,20*%
%TO.N,ENCODER_A*%
X133350000Y-85090000D03*
%TO.P,A1,4*%
%TO.N,GND*%
X151130000Y-69850000D03*
%TO.P,A1,19*%
%TO.N,ENCODER_SW*%
X130810000Y-85090000D03*
%TO.P,A1,3*%
%TO.N,Net-(A1-Pad3)*%
X153670000Y-69850000D03*
%TO.P,A1,18*%
%TO.N,Net-(A1-Pad18)*%
X128270000Y-85090000D03*
%TO.P,A1,2*%
%TO.N,Net-(A1-Pad2)*%
X156210000Y-69850000D03*
%TO.P,A1,17*%
%TO.N,Net-(A1-Pad17)*%
X125730000Y-85090000D03*
D21*
%TO.P,A1,1*%
%TO.N,Net-(A1-Pad1)*%
X158750000Y-69850000D03*
%TD*%
D23*
%TO.N,GND*%
G36*
X212700000Y-125070000D02*
G01*
X114960000Y-125070000D01*
X114960000Y-120272285D01*
X115545000Y-120272285D01*
X115545000Y-121027715D01*
X115692377Y-121768628D01*
X115981467Y-122466554D01*
X116401161Y-123094670D01*
X116935330Y-123628839D01*
X117563446Y-124048533D01*
X118261372Y-124337623D01*
X119002285Y-124485000D01*
X119757715Y-124485000D01*
X120498628Y-124337623D01*
X121196554Y-124048533D01*
X121824670Y-123628839D01*
X122358839Y-123094670D01*
X122778533Y-122466554D01*
X123067623Y-121768628D01*
X123215000Y-121027715D01*
X123215000Y-120508665D01*
X133185000Y-120508665D01*
X133185000Y-120791335D01*
X133240147Y-121068574D01*
X133348320Y-121329727D01*
X133505363Y-121564759D01*
X133705241Y-121764637D01*
X133940273Y-121921680D01*
X134201426Y-122029853D01*
X134478665Y-122085000D01*
X134761335Y-122085000D01*
X135038574Y-122029853D01*
X135299727Y-121921680D01*
X135534759Y-121764637D01*
X135656694Y-121642702D01*
X136306903Y-121642702D01*
X136378486Y-121886671D01*
X136633996Y-122007571D01*
X136908184Y-122076300D01*
X137190512Y-122090217D01*
X137470130Y-122048787D01*
X137736292Y-121953603D01*
X137861514Y-121886671D01*
X137933097Y-121642702D01*
X137120000Y-120829605D01*
X136306903Y-121642702D01*
X135656694Y-121642702D01*
X135734637Y-121564759D01*
X135868692Y-121364131D01*
X135883329Y-121391514D01*
X136127298Y-121463097D01*
X136940395Y-120650000D01*
X137299605Y-120650000D01*
X138112702Y-121463097D01*
X138356671Y-121391514D01*
X138477571Y-121136004D01*
X138546300Y-120861816D01*
X138560217Y-120579488D01*
X138518787Y-120299870D01*
X138508923Y-120272285D01*
X204445000Y-120272285D01*
X204445000Y-121027715D01*
X204592377Y-121768628D01*
X204881467Y-122466554D01*
X205301161Y-123094670D01*
X205835330Y-123628839D01*
X206463446Y-124048533D01*
X207161372Y-124337623D01*
X207902285Y-124485000D01*
X208657715Y-124485000D01*
X209398628Y-124337623D01*
X210096554Y-124048533D01*
X210724670Y-123628839D01*
X211258839Y-123094670D01*
X211678533Y-122466554D01*
X211967623Y-121768628D01*
X212115000Y-121027715D01*
X212115000Y-120272285D01*
X211967623Y-119531372D01*
X211678533Y-118833446D01*
X211258839Y-118205330D01*
X210724670Y-117671161D01*
X210096554Y-117251467D01*
X209398628Y-116962377D01*
X208657715Y-116815000D01*
X207902285Y-116815000D01*
X207161372Y-116962377D01*
X206463446Y-117251467D01*
X205835330Y-117671161D01*
X205301161Y-118205330D01*
X204881467Y-118833446D01*
X204592377Y-119531372D01*
X204445000Y-120272285D01*
X138508923Y-120272285D01*
X138423603Y-120033708D01*
X138356671Y-119908486D01*
X138112702Y-119836903D01*
X137299605Y-120650000D01*
X136940395Y-120650000D01*
X136127298Y-119836903D01*
X135883329Y-119908486D01*
X135869676Y-119937341D01*
X135734637Y-119735241D01*
X135656694Y-119657298D01*
X136306903Y-119657298D01*
X137120000Y-120470395D01*
X137933097Y-119657298D01*
X137861514Y-119413329D01*
X137606004Y-119292429D01*
X137331816Y-119223700D01*
X137049488Y-119209783D01*
X136769870Y-119251213D01*
X136503708Y-119346397D01*
X136378486Y-119413329D01*
X136306903Y-119657298D01*
X135656694Y-119657298D01*
X135534759Y-119535363D01*
X135299727Y-119378320D01*
X135038574Y-119270147D01*
X134761335Y-119215000D01*
X134478665Y-119215000D01*
X134201426Y-119270147D01*
X133940273Y-119378320D01*
X133705241Y-119535363D01*
X133505363Y-119735241D01*
X133348320Y-119970273D01*
X133240147Y-120231426D01*
X133185000Y-120508665D01*
X123215000Y-120508665D01*
X123215000Y-120272285D01*
X123067623Y-119531372D01*
X122778533Y-118833446D01*
X122358839Y-118205330D01*
X121824670Y-117671161D01*
X121196554Y-117251467D01*
X120498628Y-116962377D01*
X119757715Y-116815000D01*
X119002285Y-116815000D01*
X118261372Y-116962377D01*
X117563446Y-117251467D01*
X116935330Y-117671161D01*
X116401161Y-118205330D01*
X115981467Y-118833446D01*
X115692377Y-119531372D01*
X115545000Y-120272285D01*
X114960000Y-120272285D01*
X114960000Y-116562702D01*
X126496903Y-116562702D01*
X126568486Y-116806671D01*
X126823996Y-116927571D01*
X127098184Y-116996300D01*
X127380512Y-117010217D01*
X127660130Y-116968787D01*
X127926292Y-116873603D01*
X128051514Y-116806671D01*
X128123097Y-116562702D01*
X127310000Y-115749605D01*
X126496903Y-116562702D01*
X114960000Y-116562702D01*
X114960000Y-115640512D01*
X125869783Y-115640512D01*
X125911213Y-115920130D01*
X126006397Y-116186292D01*
X126073329Y-116311514D01*
X126317298Y-116383097D01*
X127130395Y-115570000D01*
X127489605Y-115570000D01*
X128302702Y-116383097D01*
X128546671Y-116311514D01*
X128667571Y-116056004D01*
X128736300Y-115781816D01*
X128750217Y-115499488D01*
X128708787Y-115219870D01*
X128613603Y-114953708D01*
X128546671Y-114828486D01*
X128347340Y-114770000D01*
X129371928Y-114770000D01*
X129371928Y-116370000D01*
X129384188Y-116494482D01*
X129420498Y-116614180D01*
X129479463Y-116724494D01*
X129558815Y-116821185D01*
X129655506Y-116900537D01*
X129765820Y-116959502D01*
X129885518Y-116995812D01*
X130010000Y-117008072D01*
X131610000Y-117008072D01*
X131734482Y-116995812D01*
X131854180Y-116959502D01*
X131964494Y-116900537D01*
X132061185Y-116821185D01*
X132140537Y-116724494D01*
X132199502Y-116614180D01*
X132235812Y-116494482D01*
X132248072Y-116370000D01*
X132248072Y-115965413D01*
X193434192Y-115965413D01*
X193529956Y-116229814D01*
X193819571Y-116370704D01*
X194131108Y-116452384D01*
X194452595Y-116471718D01*
X194771675Y-116427961D01*
X195076088Y-116322795D01*
X195250044Y-116229814D01*
X195345808Y-115965413D01*
X194390000Y-115009605D01*
X193434192Y-115965413D01*
X132248072Y-115965413D01*
X132248072Y-114892595D01*
X192748282Y-114892595D01*
X192792039Y-115211675D01*
X192897205Y-115516088D01*
X192990186Y-115690044D01*
X193254587Y-115785808D01*
X194210395Y-114830000D01*
X194569605Y-114830000D01*
X195525413Y-115785808D01*
X195789814Y-115690044D01*
X195930704Y-115400429D01*
X196012384Y-115088892D01*
X196031718Y-114767405D01*
X196018219Y-114668967D01*
X197755000Y-114668967D01*
X197755000Y-114991033D01*
X197817832Y-115306912D01*
X197941082Y-115604463D01*
X198120013Y-115872252D01*
X198347748Y-116099987D01*
X198615537Y-116278918D01*
X198913088Y-116402168D01*
X199228967Y-116465000D01*
X199551033Y-116465000D01*
X199866912Y-116402168D01*
X200164463Y-116278918D01*
X200432252Y-116099987D01*
X200659987Y-115872252D01*
X200838918Y-115604463D01*
X200962168Y-115306912D01*
X201025000Y-114991033D01*
X201025000Y-114668967D01*
X200962168Y-114353088D01*
X200838918Y-114055537D01*
X200659987Y-113787748D01*
X200432252Y-113560013D01*
X200164463Y-113381082D01*
X199866912Y-113257832D01*
X199551033Y-113195000D01*
X199228967Y-113195000D01*
X198913088Y-113257832D01*
X198615537Y-113381082D01*
X198347748Y-113560013D01*
X198120013Y-113787748D01*
X197941082Y-114055537D01*
X197817832Y-114353088D01*
X197755000Y-114668967D01*
X196018219Y-114668967D01*
X195987961Y-114448325D01*
X195882795Y-114143912D01*
X195789814Y-113969956D01*
X195525413Y-113874192D01*
X194569605Y-114830000D01*
X194210395Y-114830000D01*
X193254587Y-113874192D01*
X192990186Y-113969956D01*
X192849296Y-114259571D01*
X192767616Y-114571108D01*
X192748282Y-114892595D01*
X132248072Y-114892595D01*
X132248072Y-114770000D01*
X132235812Y-114645518D01*
X132199502Y-114525820D01*
X132140537Y-114415506D01*
X132061185Y-114318815D01*
X131964494Y-114239463D01*
X131854180Y-114180498D01*
X131734482Y-114144188D01*
X131610000Y-114131928D01*
X130010000Y-114131928D01*
X129885518Y-114144188D01*
X129765820Y-114180498D01*
X129655506Y-114239463D01*
X129558815Y-114318815D01*
X129479463Y-114415506D01*
X129420498Y-114525820D01*
X129384188Y-114645518D01*
X129371928Y-114770000D01*
X128347340Y-114770000D01*
X128302702Y-114756903D01*
X127489605Y-115570000D01*
X127130395Y-115570000D01*
X126317298Y-114756903D01*
X126073329Y-114828486D01*
X125952429Y-115083996D01*
X125883700Y-115358184D01*
X125869783Y-115640512D01*
X114960000Y-115640512D01*
X114960000Y-114577298D01*
X126496903Y-114577298D01*
X127310000Y-115390395D01*
X128123097Y-114577298D01*
X128051514Y-114333329D01*
X127796004Y-114212429D01*
X127521816Y-114143700D01*
X127239488Y-114129783D01*
X126959870Y-114171213D01*
X126693708Y-114266397D01*
X126568486Y-114333329D01*
X126496903Y-114577298D01*
X114960000Y-114577298D01*
X114960000Y-113694587D01*
X193434192Y-113694587D01*
X194390000Y-114650395D01*
X195345808Y-113694587D01*
X195250044Y-113430186D01*
X194960429Y-113289296D01*
X194648892Y-113207616D01*
X194327405Y-113188282D01*
X194008325Y-113232039D01*
X193703912Y-113337205D01*
X193529956Y-113430186D01*
X193434192Y-113694587D01*
X114960000Y-113694587D01*
X114960000Y-107205000D01*
X123476928Y-107205000D01*
X123476928Y-109205000D01*
X123489188Y-109329482D01*
X123525498Y-109449180D01*
X123584463Y-109559494D01*
X123663815Y-109656185D01*
X123760506Y-109735537D01*
X123870820Y-109794502D01*
X123990518Y-109830812D01*
X124115000Y-109843072D01*
X128615000Y-109843072D01*
X128739482Y-109830812D01*
X128859180Y-109794502D01*
X128969494Y-109735537D01*
X129066185Y-109656185D01*
X129145537Y-109559494D01*
X129204502Y-109449180D01*
X129240812Y-109329482D01*
X129253072Y-109205000D01*
X129253072Y-107205000D01*
X129240812Y-107080518D01*
X129204502Y-106960820D01*
X129145537Y-106850506D01*
X129066185Y-106753815D01*
X128969494Y-106674463D01*
X128859180Y-106615498D01*
X128739482Y-106579188D01*
X128615000Y-106566928D01*
X124115000Y-106566928D01*
X123990518Y-106579188D01*
X123870820Y-106615498D01*
X123760506Y-106674463D01*
X123663815Y-106753815D01*
X123584463Y-106850506D01*
X123525498Y-106960820D01*
X123489188Y-107080518D01*
X123476928Y-107205000D01*
X114960000Y-107205000D01*
X114960000Y-105755000D01*
X121726928Y-105755000D01*
X121739188Y-105879482D01*
X121775498Y-105999180D01*
X121834463Y-106109494D01*
X121913815Y-106206185D01*
X122010506Y-106285537D01*
X122120820Y-106344502D01*
X122240518Y-106380812D01*
X122365000Y-106393072D01*
X123079250Y-106390000D01*
X123238000Y-106231250D01*
X123238000Y-103632000D01*
X123492000Y-103632000D01*
X123492000Y-106231250D01*
X123650750Y-106390000D01*
X124365000Y-106393072D01*
X124489482Y-106380812D01*
X124609180Y-106344502D01*
X124719494Y-106285537D01*
X124816185Y-106206185D01*
X124895537Y-106109494D01*
X124954502Y-105999180D01*
X124990812Y-105879482D01*
X125003072Y-105755000D01*
X125000000Y-103790750D01*
X124841250Y-103632000D01*
X123492000Y-103632000D01*
X123238000Y-103632000D01*
X121888750Y-103632000D01*
X121730000Y-103790750D01*
X121726928Y-105755000D01*
X114960000Y-105755000D01*
X114960000Y-101255000D01*
X121726928Y-101255000D01*
X121730000Y-103219250D01*
X121888750Y-103378000D01*
X123238000Y-103378000D01*
X123238000Y-100778750D01*
X123492000Y-100778750D01*
X123492000Y-103378000D01*
X124841250Y-103378000D01*
X125000000Y-103219250D01*
X125003072Y-101255000D01*
X127726928Y-101255000D01*
X127726928Y-105755000D01*
X127739188Y-105879482D01*
X127775498Y-105999180D01*
X127834463Y-106109494D01*
X127913815Y-106206185D01*
X128010506Y-106285537D01*
X128120820Y-106344502D01*
X128240518Y-106380812D01*
X128365000Y-106393072D01*
X130365000Y-106393072D01*
X130489482Y-106380812D01*
X130609180Y-106344502D01*
X130636310Y-106330000D01*
X189401928Y-106330000D01*
X189401928Y-109330000D01*
X189414188Y-109454482D01*
X189450498Y-109574180D01*
X189509463Y-109684494D01*
X189588815Y-109781185D01*
X189685506Y-109860537D01*
X189795820Y-109919502D01*
X189915518Y-109955812D01*
X190040000Y-109968072D01*
X192540000Y-109968072D01*
X192664482Y-109955812D01*
X192784180Y-109919502D01*
X192894494Y-109860537D01*
X192991185Y-109781185D01*
X193070537Y-109684494D01*
X193129502Y-109574180D01*
X193165812Y-109454482D01*
X193178072Y-109330000D01*
X193178072Y-106330000D01*
X200601928Y-106330000D01*
X200601928Y-109330000D01*
X200614188Y-109454482D01*
X200650498Y-109574180D01*
X200709463Y-109684494D01*
X200788815Y-109781185D01*
X200885506Y-109860537D01*
X200995820Y-109919502D01*
X201115518Y-109955812D01*
X201240000Y-109968072D01*
X203740000Y-109968072D01*
X203864482Y-109955812D01*
X203984180Y-109919502D01*
X204094494Y-109860537D01*
X204191185Y-109781185D01*
X204270537Y-109684494D01*
X204329502Y-109574180D01*
X204365812Y-109454482D01*
X204378072Y-109330000D01*
X204378072Y-106330000D01*
X204365812Y-106205518D01*
X204329502Y-106085820D01*
X204270537Y-105975506D01*
X204191185Y-105878815D01*
X204094494Y-105799463D01*
X203984180Y-105740498D01*
X203864482Y-105704188D01*
X203740000Y-105691928D01*
X201240000Y-105691928D01*
X201115518Y-105704188D01*
X200995820Y-105740498D01*
X200885506Y-105799463D01*
X200788815Y-105878815D01*
X200709463Y-105975506D01*
X200650498Y-106085820D01*
X200614188Y-106205518D01*
X200601928Y-106330000D01*
X193178072Y-106330000D01*
X193165812Y-106205518D01*
X193129502Y-106085820D01*
X193070537Y-105975506D01*
X192991185Y-105878815D01*
X192894494Y-105799463D01*
X192784180Y-105740498D01*
X192664482Y-105704188D01*
X192540000Y-105691928D01*
X190040000Y-105691928D01*
X189915518Y-105704188D01*
X189795820Y-105740498D01*
X189685506Y-105799463D01*
X189588815Y-105878815D01*
X189509463Y-105975506D01*
X189450498Y-106085820D01*
X189414188Y-106205518D01*
X189401928Y-106330000D01*
X130636310Y-106330000D01*
X130719494Y-106285537D01*
X130816185Y-106206185D01*
X130895537Y-106109494D01*
X130954502Y-105999180D01*
X130990812Y-105879482D01*
X131003072Y-105755000D01*
X131003072Y-101255000D01*
X130990812Y-101130518D01*
X130954502Y-101010820D01*
X130895537Y-100900506D01*
X130816185Y-100803815D01*
X130719494Y-100724463D01*
X130609180Y-100665498D01*
X130489482Y-100629188D01*
X130365000Y-100616928D01*
X128365000Y-100616928D01*
X128240518Y-100629188D01*
X128120820Y-100665498D01*
X128010506Y-100724463D01*
X127913815Y-100803815D01*
X127834463Y-100900506D01*
X127775498Y-101010820D01*
X127739188Y-101130518D01*
X127726928Y-101255000D01*
X125003072Y-101255000D01*
X124990812Y-101130518D01*
X124954502Y-101010820D01*
X124895537Y-100900506D01*
X124816185Y-100803815D01*
X124719494Y-100724463D01*
X124609180Y-100665498D01*
X124489482Y-100629188D01*
X124365000Y-100616928D01*
X123650750Y-100620000D01*
X123492000Y-100778750D01*
X123238000Y-100778750D01*
X123079250Y-100620000D01*
X122365000Y-100616928D01*
X122240518Y-100629188D01*
X122120820Y-100665498D01*
X122010506Y-100724463D01*
X121913815Y-100803815D01*
X121834463Y-100900506D01*
X121775498Y-101010820D01*
X121739188Y-101130518D01*
X121726928Y-101255000D01*
X114960000Y-101255000D01*
X114960000Y-100168967D01*
X192755000Y-100168967D01*
X192755000Y-100491033D01*
X192817832Y-100806912D01*
X192941082Y-101104463D01*
X193120013Y-101372252D01*
X193347748Y-101599987D01*
X193615537Y-101778918D01*
X193913088Y-101902168D01*
X194228967Y-101965000D01*
X194551033Y-101965000D01*
X194866912Y-101902168D01*
X195164463Y-101778918D01*
X195432252Y-101599987D01*
X195659987Y-101372252D01*
X195724925Y-101275065D01*
X195754587Y-101285808D01*
X196710395Y-100330000D01*
X195754587Y-99374192D01*
X195724925Y-99384935D01*
X195659987Y-99287748D01*
X195566826Y-99194587D01*
X195934192Y-99194587D01*
X196890000Y-100150395D01*
X196904143Y-100136253D01*
X197083748Y-100315858D01*
X197069605Y-100330000D01*
X197083748Y-100344143D01*
X196904143Y-100523748D01*
X196890000Y-100509605D01*
X195934192Y-101465413D01*
X196029956Y-101729814D01*
X196319571Y-101870704D01*
X196631108Y-101952384D01*
X196952595Y-101971718D01*
X197271675Y-101927961D01*
X197576088Y-101822795D01*
X197750044Y-101729814D01*
X197804024Y-101580777D01*
X197859463Y-101684494D01*
X197938815Y-101781185D01*
X198035506Y-101860537D01*
X198145820Y-101919502D01*
X198265518Y-101955812D01*
X198390000Y-101968072D01*
X200390000Y-101968072D01*
X200514482Y-101955812D01*
X200634180Y-101919502D01*
X200744494Y-101860537D01*
X200841185Y-101781185D01*
X200920537Y-101684494D01*
X200979502Y-101574180D01*
X201015812Y-101454482D01*
X201028072Y-101330000D01*
X201028072Y-99330000D01*
X201015812Y-99205518D01*
X200979502Y-99085820D01*
X200920537Y-98975506D01*
X200841185Y-98878815D01*
X200744494Y-98799463D01*
X200634180Y-98740498D01*
X200514482Y-98704188D01*
X200390000Y-98691928D01*
X198390000Y-98691928D01*
X198265518Y-98704188D01*
X198145820Y-98740498D01*
X198035506Y-98799463D01*
X197938815Y-98878815D01*
X197859463Y-98975506D01*
X197804024Y-99079223D01*
X197750044Y-98930186D01*
X197460429Y-98789296D01*
X197148892Y-98707616D01*
X196827405Y-98688282D01*
X196508325Y-98732039D01*
X196203912Y-98837205D01*
X196029956Y-98930186D01*
X195934192Y-99194587D01*
X195566826Y-99194587D01*
X195432252Y-99060013D01*
X195164463Y-98881082D01*
X194866912Y-98757832D01*
X194551033Y-98695000D01*
X194228967Y-98695000D01*
X193913088Y-98757832D01*
X193615537Y-98881082D01*
X193347748Y-99060013D01*
X193120013Y-99287748D01*
X192941082Y-99555537D01*
X192817832Y-99853088D01*
X192755000Y-100168967D01*
X114960000Y-100168967D01*
X114960000Y-95260000D01*
X167061928Y-95260000D01*
X167074188Y-95384482D01*
X167110498Y-95504180D01*
X167169463Y-95614494D01*
X167248815Y-95711185D01*
X167345506Y-95790537D01*
X167455820Y-95849502D01*
X167575518Y-95885812D01*
X167700000Y-95898072D01*
X168264250Y-95895000D01*
X168423000Y-95736250D01*
X168423000Y-94537000D01*
X167223750Y-94537000D01*
X167065000Y-94695750D01*
X167061928Y-95260000D01*
X114960000Y-95260000D01*
X114960000Y-93560000D01*
X167061928Y-93560000D01*
X167065000Y-94124250D01*
X167223750Y-94283000D01*
X168423000Y-94283000D01*
X168423000Y-93083750D01*
X168677000Y-93083750D01*
X168677000Y-94283000D01*
X168697000Y-94283000D01*
X168697000Y-94537000D01*
X168677000Y-94537000D01*
X168677000Y-95736250D01*
X168835750Y-95895000D01*
X169400000Y-95898072D01*
X169524482Y-95885812D01*
X169644180Y-95849502D01*
X169754494Y-95790537D01*
X169851185Y-95711185D01*
X169930537Y-95614494D01*
X169989502Y-95504180D01*
X170011513Y-95431620D01*
X170143368Y-95563475D01*
X170386589Y-95725990D01*
X170656842Y-95837932D01*
X170943740Y-95895000D01*
X171236260Y-95895000D01*
X171523158Y-95837932D01*
X171793411Y-95725990D01*
X172036632Y-95563475D01*
X172243475Y-95356632D01*
X172360000Y-95182240D01*
X172476525Y-95356632D01*
X172683368Y-95563475D01*
X172926589Y-95725990D01*
X173196842Y-95837932D01*
X173483740Y-95895000D01*
X173776260Y-95895000D01*
X174063158Y-95837932D01*
X174333411Y-95725990D01*
X174576632Y-95563475D01*
X174783475Y-95356632D01*
X174900000Y-95182240D01*
X175016525Y-95356632D01*
X175223368Y-95563475D01*
X175466589Y-95725990D01*
X175736842Y-95837932D01*
X176023740Y-95895000D01*
X176316260Y-95895000D01*
X176603158Y-95837932D01*
X176873411Y-95725990D01*
X177116632Y-95563475D01*
X177323475Y-95356632D01*
X177485990Y-95113411D01*
X177597932Y-94843158D01*
X177655000Y-94556260D01*
X177655000Y-94263740D01*
X177597932Y-93976842D01*
X177485990Y-93706589D01*
X177323475Y-93463368D01*
X177116632Y-93256525D01*
X176873411Y-93094010D01*
X176603158Y-92982068D01*
X176316260Y-92925000D01*
X176023740Y-92925000D01*
X175736842Y-92982068D01*
X175466589Y-93094010D01*
X175223368Y-93256525D01*
X175016525Y-93463368D01*
X174900000Y-93637760D01*
X174783475Y-93463368D01*
X174576632Y-93256525D01*
X174333411Y-93094010D01*
X174063158Y-92982068D01*
X173776260Y-92925000D01*
X173483740Y-92925000D01*
X173196842Y-92982068D01*
X172926589Y-93094010D01*
X172683368Y-93256525D01*
X172476525Y-93463368D01*
X172360000Y-93637760D01*
X172243475Y-93463368D01*
X172036632Y-93256525D01*
X171793411Y-93094010D01*
X171523158Y-92982068D01*
X171236260Y-92925000D01*
X170943740Y-92925000D01*
X170656842Y-92982068D01*
X170386589Y-93094010D01*
X170143368Y-93256525D01*
X170011513Y-93388380D01*
X169989502Y-93315820D01*
X169930537Y-93205506D01*
X169851185Y-93108815D01*
X169754494Y-93029463D01*
X169644180Y-92970498D01*
X169524482Y-92934188D01*
X169400000Y-92921928D01*
X168835750Y-92925000D01*
X168677000Y-93083750D01*
X168423000Y-93083750D01*
X168264250Y-92925000D01*
X167700000Y-92921928D01*
X167575518Y-92934188D01*
X167455820Y-92970498D01*
X167345506Y-93029463D01*
X167248815Y-93108815D01*
X167169463Y-93205506D01*
X167110498Y-93315820D01*
X167074188Y-93435518D01*
X167061928Y-93560000D01*
X114960000Y-93560000D01*
X114960000Y-91574080D01*
X206125525Y-91574080D01*
X206209208Y-91828261D01*
X206481775Y-91959158D01*
X206774642Y-92034365D01*
X207076553Y-92050991D01*
X207375907Y-92008397D01*
X207661199Y-91908222D01*
X207810792Y-91828261D01*
X207894475Y-91574080D01*
X207010000Y-90689605D01*
X206125525Y-91574080D01*
X114960000Y-91574080D01*
X114960000Y-90576553D01*
X205469009Y-90576553D01*
X205511603Y-90875907D01*
X205611778Y-91161199D01*
X205691739Y-91310792D01*
X205945920Y-91394475D01*
X206830395Y-90510000D01*
X207189605Y-90510000D01*
X208074080Y-91394475D01*
X208328261Y-91310792D01*
X208459158Y-91038225D01*
X208534365Y-90745358D01*
X208550991Y-90443447D01*
X208508397Y-90144093D01*
X208408222Y-89858801D01*
X208328261Y-89709208D01*
X208074080Y-89625525D01*
X207189605Y-90510000D01*
X206830395Y-90510000D01*
X205945920Y-89625525D01*
X205691739Y-89709208D01*
X205560842Y-89981775D01*
X205485635Y-90274642D01*
X205469009Y-90576553D01*
X114960000Y-90576553D01*
X114960000Y-89445920D01*
X206125525Y-89445920D01*
X207010000Y-90330395D01*
X207894475Y-89445920D01*
X207810792Y-89191739D01*
X207538225Y-89060842D01*
X207245358Y-88985635D01*
X206943447Y-88969009D01*
X206644093Y-89011603D01*
X206358801Y-89111778D01*
X206209208Y-89191739D01*
X206125525Y-89445920D01*
X114960000Y-89445920D01*
X114960000Y-86858816D01*
X205475000Y-86858816D01*
X205475000Y-87161184D01*
X205533989Y-87457743D01*
X205649701Y-87737095D01*
X205817688Y-87988505D01*
X206031495Y-88202312D01*
X206282905Y-88370299D01*
X206562257Y-88486011D01*
X206858816Y-88545000D01*
X207161184Y-88545000D01*
X207457743Y-88486011D01*
X207737095Y-88370299D01*
X207988505Y-88202312D01*
X208202312Y-87988505D01*
X208370299Y-87737095D01*
X208486011Y-87457743D01*
X208545000Y-87161184D01*
X208545000Y-86858816D01*
X208486011Y-86562257D01*
X208370299Y-86282905D01*
X208202312Y-86031495D01*
X207988505Y-85817688D01*
X207737095Y-85649701D01*
X207457743Y-85533989D01*
X207161184Y-85475000D01*
X206858816Y-85475000D01*
X206562257Y-85533989D01*
X206282905Y-85649701D01*
X206031495Y-85817688D01*
X205817688Y-86031495D01*
X205649701Y-86282905D01*
X205533989Y-86562257D01*
X205475000Y-86858816D01*
X114960000Y-86858816D01*
X114960000Y-84948665D01*
X121755000Y-84948665D01*
X121755000Y-85231335D01*
X121810147Y-85508574D01*
X121918320Y-85769727D01*
X122075363Y-86004759D01*
X122275241Y-86204637D01*
X122510273Y-86361680D01*
X122771426Y-86469853D01*
X123048665Y-86525000D01*
X123331335Y-86525000D01*
X123608574Y-86469853D01*
X123869727Y-86361680D01*
X124104759Y-86204637D01*
X124304637Y-86004759D01*
X124460000Y-85772241D01*
X124615363Y-86004759D01*
X124815241Y-86204637D01*
X125050273Y-86361680D01*
X125311426Y-86469853D01*
X125588665Y-86525000D01*
X125871335Y-86525000D01*
X126148574Y-86469853D01*
X126409727Y-86361680D01*
X126644759Y-86204637D01*
X126844637Y-86004759D01*
X127000000Y-85772241D01*
X127155363Y-86004759D01*
X127355241Y-86204637D01*
X127590273Y-86361680D01*
X127851426Y-86469853D01*
X128128665Y-86525000D01*
X128411335Y-86525000D01*
X128688574Y-86469853D01*
X128949727Y-86361680D01*
X129184759Y-86204637D01*
X129384637Y-86004759D01*
X129540000Y-85772241D01*
X129695363Y-86004759D01*
X129895241Y-86204637D01*
X130130273Y-86361680D01*
X130391426Y-86469853D01*
X130668665Y-86525000D01*
X130951335Y-86525000D01*
X131228574Y-86469853D01*
X131489727Y-86361680D01*
X131724759Y-86204637D01*
X131924637Y-86004759D01*
X132080000Y-85772241D01*
X132235363Y-86004759D01*
X132435241Y-86204637D01*
X132670273Y-86361680D01*
X132931426Y-86469853D01*
X133208665Y-86525000D01*
X133491335Y-86525000D01*
X133768574Y-86469853D01*
X134029727Y-86361680D01*
X134264759Y-86204637D01*
X134464637Y-86004759D01*
X134620000Y-85772241D01*
X134775363Y-86004759D01*
X134975241Y-86204637D01*
X135210273Y-86361680D01*
X135471426Y-86469853D01*
X135748665Y-86525000D01*
X136031335Y-86525000D01*
X136308574Y-86469853D01*
X136569727Y-86361680D01*
X136804759Y-86204637D01*
X137004637Y-86004759D01*
X137160000Y-85772241D01*
X137315363Y-86004759D01*
X137515241Y-86204637D01*
X137750273Y-86361680D01*
X138011426Y-86469853D01*
X138288665Y-86525000D01*
X138571335Y-86525000D01*
X138848574Y-86469853D01*
X139109727Y-86361680D01*
X139344759Y-86204637D01*
X139544637Y-86004759D01*
X139700000Y-85772241D01*
X139855363Y-86004759D01*
X140055241Y-86204637D01*
X140290273Y-86361680D01*
X140551426Y-86469853D01*
X140828665Y-86525000D01*
X141111335Y-86525000D01*
X141388574Y-86469853D01*
X141649727Y-86361680D01*
X141884759Y-86204637D01*
X142084637Y-86004759D01*
X142240000Y-85772241D01*
X142395363Y-86004759D01*
X142595241Y-86204637D01*
X142830273Y-86361680D01*
X143091426Y-86469853D01*
X143368665Y-86525000D01*
X143651335Y-86525000D01*
X143928574Y-86469853D01*
X144189727Y-86361680D01*
X144424759Y-86204637D01*
X144624637Y-86004759D01*
X144780000Y-85772241D01*
X144935363Y-86004759D01*
X145135241Y-86204637D01*
X145370273Y-86361680D01*
X145631426Y-86469853D01*
X145908665Y-86525000D01*
X146191335Y-86525000D01*
X146468574Y-86469853D01*
X146729727Y-86361680D01*
X146964759Y-86204637D01*
X147164637Y-86004759D01*
X147320000Y-85772241D01*
X147475363Y-86004759D01*
X147675241Y-86204637D01*
X147910273Y-86361680D01*
X148171426Y-86469853D01*
X148448665Y-86525000D01*
X148731335Y-86525000D01*
X149008574Y-86469853D01*
X149269727Y-86361680D01*
X149504759Y-86204637D01*
X149704637Y-86004759D01*
X149860000Y-85772241D01*
X150015363Y-86004759D01*
X150215241Y-86204637D01*
X150450273Y-86361680D01*
X150711426Y-86469853D01*
X150988665Y-86525000D01*
X151271335Y-86525000D01*
X151548574Y-86469853D01*
X151809727Y-86361680D01*
X152044759Y-86204637D01*
X152244637Y-86004759D01*
X152400000Y-85772241D01*
X152555363Y-86004759D01*
X152755241Y-86204637D01*
X152990273Y-86361680D01*
X153251426Y-86469853D01*
X153528665Y-86525000D01*
X153811335Y-86525000D01*
X154088574Y-86469853D01*
X154349727Y-86361680D01*
X154584759Y-86204637D01*
X154784637Y-86004759D01*
X154941680Y-85769727D01*
X154946067Y-85759135D01*
X155057615Y-85945131D01*
X155246586Y-86153519D01*
X155472580Y-86321037D01*
X155726913Y-86441246D01*
X155860961Y-86481904D01*
X156083000Y-86359915D01*
X156083000Y-85217000D01*
X156063000Y-85217000D01*
X156063000Y-84963000D01*
X156083000Y-84963000D01*
X156083000Y-83820085D01*
X156337000Y-83820085D01*
X156337000Y-84963000D01*
X156357000Y-84963000D01*
X156357000Y-85217000D01*
X156337000Y-85217000D01*
X156337000Y-86359915D01*
X156559039Y-86481904D01*
X156693087Y-86441246D01*
X156947420Y-86321037D01*
X157173414Y-86153519D01*
X157362385Y-85945131D01*
X157473933Y-85759135D01*
X157478320Y-85769727D01*
X157635363Y-86004759D01*
X157835241Y-86204637D01*
X158070273Y-86361680D01*
X158331426Y-86469853D01*
X158608665Y-86525000D01*
X158891335Y-86525000D01*
X159168574Y-86469853D01*
X159429727Y-86361680D01*
X159664759Y-86204637D01*
X159864637Y-86004759D01*
X160021680Y-85769727D01*
X160129853Y-85508574D01*
X160185000Y-85231335D01*
X160185000Y-84948665D01*
X160129853Y-84671426D01*
X160021680Y-84410273D01*
X159864637Y-84175241D01*
X159664759Y-83975363D01*
X159429727Y-83818320D01*
X159168574Y-83710147D01*
X158891335Y-83655000D01*
X158608665Y-83655000D01*
X158331426Y-83710147D01*
X158070273Y-83818320D01*
X157835241Y-83975363D01*
X157635363Y-84175241D01*
X157478320Y-84410273D01*
X157473933Y-84420865D01*
X157362385Y-84234869D01*
X157173414Y-84026481D01*
X156947420Y-83858963D01*
X156693087Y-83738754D01*
X156559039Y-83698096D01*
X156337000Y-83820085D01*
X156083000Y-83820085D01*
X155860961Y-83698096D01*
X155726913Y-83738754D01*
X155472580Y-83858963D01*
X155246586Y-84026481D01*
X155057615Y-84234869D01*
X154946067Y-84420865D01*
X154941680Y-84410273D01*
X154784637Y-84175241D01*
X154584759Y-83975363D01*
X154349727Y-83818320D01*
X154088574Y-83710147D01*
X153811335Y-83655000D01*
X153528665Y-83655000D01*
X153251426Y-83710147D01*
X152990273Y-83818320D01*
X152755241Y-83975363D01*
X152555363Y-84175241D01*
X152400000Y-84407759D01*
X152244637Y-84175241D01*
X152044759Y-83975363D01*
X151809727Y-83818320D01*
X151548574Y-83710147D01*
X151271335Y-83655000D01*
X150988665Y-83655000D01*
X150711426Y-83710147D01*
X150450273Y-83818320D01*
X150215241Y-83975363D01*
X150015363Y-84175241D01*
X149860000Y-84407759D01*
X149704637Y-84175241D01*
X149504759Y-83975363D01*
X149269727Y-83818320D01*
X149008574Y-83710147D01*
X148731335Y-83655000D01*
X148448665Y-83655000D01*
X148171426Y-83710147D01*
X147910273Y-83818320D01*
X147675241Y-83975363D01*
X147475363Y-84175241D01*
X147320000Y-84407759D01*
X147164637Y-84175241D01*
X146964759Y-83975363D01*
X146729727Y-83818320D01*
X146468574Y-83710147D01*
X146191335Y-83655000D01*
X145908665Y-83655000D01*
X145631426Y-83710147D01*
X145370273Y-83818320D01*
X145135241Y-83975363D01*
X144935363Y-84175241D01*
X144780000Y-84407759D01*
X144624637Y-84175241D01*
X144424759Y-83975363D01*
X144189727Y-83818320D01*
X143928574Y-83710147D01*
X143651335Y-83655000D01*
X143368665Y-83655000D01*
X143091426Y-83710147D01*
X142830273Y-83818320D01*
X142595241Y-83975363D01*
X142395363Y-84175241D01*
X142240000Y-84407759D01*
X142084637Y-84175241D01*
X141884759Y-83975363D01*
X141649727Y-83818320D01*
X141388574Y-83710147D01*
X141111335Y-83655000D01*
X140828665Y-83655000D01*
X140551426Y-83710147D01*
X140290273Y-83818320D01*
X140055241Y-83975363D01*
X139855363Y-84175241D01*
X139700000Y-84407759D01*
X139544637Y-84175241D01*
X139344759Y-83975363D01*
X139109727Y-83818320D01*
X138848574Y-83710147D01*
X138571335Y-83655000D01*
X138288665Y-83655000D01*
X138011426Y-83710147D01*
X137750273Y-83818320D01*
X137515241Y-83975363D01*
X137315363Y-84175241D01*
X137160000Y-84407759D01*
X137004637Y-84175241D01*
X136804759Y-83975363D01*
X136569727Y-83818320D01*
X136308574Y-83710147D01*
X136031335Y-83655000D01*
X135748665Y-83655000D01*
X135471426Y-83710147D01*
X135210273Y-83818320D01*
X134975241Y-83975363D01*
X134775363Y-84175241D01*
X134620000Y-84407759D01*
X134464637Y-84175241D01*
X134264759Y-83975363D01*
X134029727Y-83818320D01*
X133768574Y-83710147D01*
X133491335Y-83655000D01*
X133208665Y-83655000D01*
X132931426Y-83710147D01*
X132670273Y-83818320D01*
X132435241Y-83975363D01*
X132235363Y-84175241D01*
X132080000Y-84407759D01*
X131924637Y-84175241D01*
X131724759Y-83975363D01*
X131489727Y-83818320D01*
X131228574Y-83710147D01*
X130951335Y-83655000D01*
X130668665Y-83655000D01*
X130391426Y-83710147D01*
X130130273Y-83818320D01*
X129895241Y-83975363D01*
X129695363Y-84175241D01*
X129540000Y-84407759D01*
X129384637Y-84175241D01*
X129184759Y-83975363D01*
X128949727Y-83818320D01*
X128688574Y-83710147D01*
X128411335Y-83655000D01*
X128128665Y-83655000D01*
X127851426Y-83710147D01*
X127590273Y-83818320D01*
X127355241Y-83975363D01*
X127155363Y-84175241D01*
X127000000Y-84407759D01*
X126844637Y-84175241D01*
X126644759Y-83975363D01*
X126409727Y-83818320D01*
X126148574Y-83710147D01*
X125871335Y-83655000D01*
X125588665Y-83655000D01*
X125311426Y-83710147D01*
X125050273Y-83818320D01*
X124815241Y-83975363D01*
X124615363Y-84175241D01*
X124460000Y-84407759D01*
X124304637Y-84175241D01*
X124104759Y-83975363D01*
X123869727Y-83818320D01*
X123608574Y-83710147D01*
X123331335Y-83655000D01*
X123048665Y-83655000D01*
X122771426Y-83710147D01*
X122510273Y-83818320D01*
X122275241Y-83975363D01*
X122075363Y-84175241D01*
X121918320Y-84410273D01*
X121810147Y-84671426D01*
X121755000Y-84948665D01*
X114960000Y-84948665D01*
X114960000Y-83358816D01*
X205475000Y-83358816D01*
X205475000Y-83661184D01*
X205533989Y-83957743D01*
X205649701Y-84237095D01*
X205817688Y-84488505D01*
X206031495Y-84702312D01*
X206282905Y-84870299D01*
X206562257Y-84986011D01*
X206858816Y-85045000D01*
X207161184Y-85045000D01*
X207457743Y-84986011D01*
X207737095Y-84870299D01*
X207988505Y-84702312D01*
X208202312Y-84488505D01*
X208370299Y-84237095D01*
X208486011Y-83957743D01*
X208545000Y-83661184D01*
X208545000Y-83358816D01*
X208486011Y-83062257D01*
X208370299Y-82782905D01*
X208202312Y-82531495D01*
X207988505Y-82317688D01*
X207737095Y-82149701D01*
X207457743Y-82033989D01*
X207161184Y-81975000D01*
X206858816Y-81975000D01*
X206562257Y-82033989D01*
X206282905Y-82149701D01*
X206031495Y-82317688D01*
X205817688Y-82531495D01*
X205649701Y-82782905D01*
X205533989Y-83062257D01*
X205475000Y-83358816D01*
X114960000Y-83358816D01*
X114960000Y-77890000D01*
X172501928Y-77890000D01*
X172501928Y-79590000D01*
X172514188Y-79714482D01*
X172550498Y-79834180D01*
X172609463Y-79944494D01*
X172688815Y-80041185D01*
X172785506Y-80120537D01*
X172895820Y-80179502D01*
X173015518Y-80215812D01*
X173140000Y-80228072D01*
X174840000Y-80228072D01*
X174964482Y-80215812D01*
X175084180Y-80179502D01*
X175194494Y-80120537D01*
X175291185Y-80041185D01*
X175370537Y-79944494D01*
X175429502Y-79834180D01*
X175453966Y-79753534D01*
X175529731Y-79837588D01*
X175763080Y-80011641D01*
X176025901Y-80136825D01*
X176173110Y-80181476D01*
X176403000Y-80060155D01*
X176403000Y-78867000D01*
X176383000Y-78867000D01*
X176383000Y-78613000D01*
X176403000Y-78613000D01*
X176403000Y-77419845D01*
X176657000Y-77419845D01*
X176657000Y-78613000D01*
X176677000Y-78613000D01*
X176677000Y-78867000D01*
X176657000Y-78867000D01*
X176657000Y-80060155D01*
X176886890Y-80181476D01*
X177034099Y-80136825D01*
X177296920Y-80011641D01*
X177530269Y-79837588D01*
X177725178Y-79621355D01*
X177794805Y-79504466D01*
X177916525Y-79686632D01*
X178123368Y-79893475D01*
X178366589Y-80055990D01*
X178636842Y-80167932D01*
X178923740Y-80225000D01*
X179216260Y-80225000D01*
X179503158Y-80167932D01*
X179773411Y-80055990D01*
X180016632Y-79893475D01*
X180223475Y-79686632D01*
X180340000Y-79512240D01*
X180456525Y-79686632D01*
X180663368Y-79893475D01*
X180906589Y-80055990D01*
X181176842Y-80167932D01*
X181463740Y-80225000D01*
X181756260Y-80225000D01*
X182043158Y-80167932D01*
X182313411Y-80055990D01*
X182556632Y-79893475D01*
X182763475Y-79686632D01*
X182880000Y-79512240D01*
X182996525Y-79686632D01*
X183203368Y-79893475D01*
X183446589Y-80055990D01*
X183716842Y-80167932D01*
X184003740Y-80225000D01*
X184296260Y-80225000D01*
X184583158Y-80167932D01*
X184853411Y-80055990D01*
X185096632Y-79893475D01*
X185303475Y-79686632D01*
X185420000Y-79512240D01*
X185536525Y-79686632D01*
X185743368Y-79893475D01*
X185986589Y-80055990D01*
X186256842Y-80167932D01*
X186543740Y-80225000D01*
X186836260Y-80225000D01*
X187123158Y-80167932D01*
X187393411Y-80055990D01*
X187636632Y-79893475D01*
X187671291Y-79858816D01*
X205475000Y-79858816D01*
X205475000Y-80161184D01*
X205533989Y-80457743D01*
X205649701Y-80737095D01*
X205817688Y-80988505D01*
X206031495Y-81202312D01*
X206282905Y-81370299D01*
X206562257Y-81486011D01*
X206858816Y-81545000D01*
X207161184Y-81545000D01*
X207457743Y-81486011D01*
X207737095Y-81370299D01*
X207988505Y-81202312D01*
X208202312Y-80988505D01*
X208370299Y-80737095D01*
X208486011Y-80457743D01*
X208545000Y-80161184D01*
X208545000Y-79858816D01*
X208486011Y-79562257D01*
X208370299Y-79282905D01*
X208202312Y-79031495D01*
X207988505Y-78817688D01*
X207737095Y-78649701D01*
X207457743Y-78533989D01*
X207161184Y-78475000D01*
X206858816Y-78475000D01*
X206562257Y-78533989D01*
X206282905Y-78649701D01*
X206031495Y-78817688D01*
X205817688Y-79031495D01*
X205649701Y-79282905D01*
X205533989Y-79562257D01*
X205475000Y-79858816D01*
X187671291Y-79858816D01*
X187843475Y-79686632D01*
X188005990Y-79443411D01*
X188117932Y-79173158D01*
X188175000Y-78886260D01*
X188175000Y-78593740D01*
X188117932Y-78306842D01*
X188005990Y-78036589D01*
X187843475Y-77793368D01*
X187636632Y-77586525D01*
X187393411Y-77424010D01*
X187123158Y-77312068D01*
X186836260Y-77255000D01*
X186543740Y-77255000D01*
X186256842Y-77312068D01*
X185986589Y-77424010D01*
X185743368Y-77586525D01*
X185536525Y-77793368D01*
X185420000Y-77967760D01*
X185303475Y-77793368D01*
X185096632Y-77586525D01*
X184853411Y-77424010D01*
X184583158Y-77312068D01*
X184296260Y-77255000D01*
X184003740Y-77255000D01*
X183716842Y-77312068D01*
X183446589Y-77424010D01*
X183203368Y-77586525D01*
X182996525Y-77793368D01*
X182880000Y-77967760D01*
X182763475Y-77793368D01*
X182556632Y-77586525D01*
X182313411Y-77424010D01*
X182043158Y-77312068D01*
X181756260Y-77255000D01*
X181463740Y-77255000D01*
X181176842Y-77312068D01*
X180906589Y-77424010D01*
X180663368Y-77586525D01*
X180456525Y-77793368D01*
X180340000Y-77967760D01*
X180223475Y-77793368D01*
X180016632Y-77586525D01*
X179773411Y-77424010D01*
X179503158Y-77312068D01*
X179216260Y-77255000D01*
X178923740Y-77255000D01*
X178636842Y-77312068D01*
X178366589Y-77424010D01*
X178123368Y-77586525D01*
X177916525Y-77793368D01*
X177794805Y-77975534D01*
X177725178Y-77858645D01*
X177530269Y-77642412D01*
X177296920Y-77468359D01*
X177034099Y-77343175D01*
X176886890Y-77298524D01*
X176657000Y-77419845D01*
X176403000Y-77419845D01*
X176173110Y-77298524D01*
X176025901Y-77343175D01*
X175763080Y-77468359D01*
X175529731Y-77642412D01*
X175453966Y-77726466D01*
X175429502Y-77645820D01*
X175370537Y-77535506D01*
X175291185Y-77438815D01*
X175194494Y-77359463D01*
X175084180Y-77300498D01*
X174964482Y-77264188D01*
X174840000Y-77251928D01*
X173140000Y-77251928D01*
X173015518Y-77264188D01*
X172895820Y-77300498D01*
X172785506Y-77359463D01*
X172688815Y-77438815D01*
X172609463Y-77535506D01*
X172550498Y-77645820D01*
X172514188Y-77765518D01*
X172501928Y-77890000D01*
X114960000Y-77890000D01*
X114960000Y-72112702D01*
X202696903Y-72112702D01*
X202768486Y-72356671D01*
X203023996Y-72477571D01*
X203298184Y-72546300D01*
X203580512Y-72560217D01*
X203860130Y-72518787D01*
X204126292Y-72423603D01*
X204251514Y-72356671D01*
X204323097Y-72112702D01*
X203510000Y-71299605D01*
X202696903Y-72112702D01*
X114960000Y-72112702D01*
X114960000Y-69708665D01*
X121755000Y-69708665D01*
X121755000Y-69991335D01*
X121810147Y-70268574D01*
X121918320Y-70529727D01*
X122075363Y-70764759D01*
X122275241Y-70964637D01*
X122510273Y-71121680D01*
X122771426Y-71229853D01*
X123048665Y-71285000D01*
X123331335Y-71285000D01*
X123608574Y-71229853D01*
X123869727Y-71121680D01*
X124104759Y-70964637D01*
X124304637Y-70764759D01*
X124460000Y-70532241D01*
X124615363Y-70764759D01*
X124815241Y-70964637D01*
X125050273Y-71121680D01*
X125311426Y-71229853D01*
X125588665Y-71285000D01*
X125871335Y-71285000D01*
X126148574Y-71229853D01*
X126409727Y-71121680D01*
X126644759Y-70964637D01*
X126844637Y-70764759D01*
X127000000Y-70532241D01*
X127155363Y-70764759D01*
X127355241Y-70964637D01*
X127590273Y-71121680D01*
X127851426Y-71229853D01*
X128128665Y-71285000D01*
X128411335Y-71285000D01*
X128688574Y-71229853D01*
X128949727Y-71121680D01*
X129184759Y-70964637D01*
X129384637Y-70764759D01*
X129540000Y-70532241D01*
X129695363Y-70764759D01*
X129895241Y-70964637D01*
X130130273Y-71121680D01*
X130391426Y-71229853D01*
X130668665Y-71285000D01*
X130951335Y-71285000D01*
X131228574Y-71229853D01*
X131489727Y-71121680D01*
X131724759Y-70964637D01*
X131924637Y-70764759D01*
X132080000Y-70532241D01*
X132235363Y-70764759D01*
X132435241Y-70964637D01*
X132670273Y-71121680D01*
X132931426Y-71229853D01*
X133208665Y-71285000D01*
X133491335Y-71285000D01*
X133768574Y-71229853D01*
X134029727Y-71121680D01*
X134264759Y-70964637D01*
X134464637Y-70764759D01*
X134620000Y-70532241D01*
X134775363Y-70764759D01*
X134975241Y-70964637D01*
X135210273Y-71121680D01*
X135471426Y-71229853D01*
X135748665Y-71285000D01*
X136031335Y-71285000D01*
X136308574Y-71229853D01*
X136569727Y-71121680D01*
X136804759Y-70964637D01*
X137004637Y-70764759D01*
X137160000Y-70532241D01*
X137315363Y-70764759D01*
X137515241Y-70964637D01*
X137750273Y-71121680D01*
X138011426Y-71229853D01*
X138288665Y-71285000D01*
X138571335Y-71285000D01*
X138848574Y-71229853D01*
X139109727Y-71121680D01*
X139344759Y-70964637D01*
X139544637Y-70764759D01*
X139700000Y-70532241D01*
X139855363Y-70764759D01*
X140055241Y-70964637D01*
X140290273Y-71121680D01*
X140551426Y-71229853D01*
X140828665Y-71285000D01*
X141111335Y-71285000D01*
X141388574Y-71229853D01*
X141649727Y-71121680D01*
X141884759Y-70964637D01*
X142084637Y-70764759D01*
X142240000Y-70532241D01*
X142395363Y-70764759D01*
X142595241Y-70964637D01*
X142830273Y-71121680D01*
X143091426Y-71229853D01*
X143368665Y-71285000D01*
X143651335Y-71285000D01*
X143928574Y-71229853D01*
X144189727Y-71121680D01*
X144424759Y-70964637D01*
X144624637Y-70764759D01*
X144780000Y-70532241D01*
X144935363Y-70764759D01*
X145135241Y-70964637D01*
X145370273Y-71121680D01*
X145631426Y-71229853D01*
X145908665Y-71285000D01*
X146191335Y-71285000D01*
X146468574Y-71229853D01*
X146729727Y-71121680D01*
X146964759Y-70964637D01*
X147164637Y-70764759D01*
X147320000Y-70532241D01*
X147475363Y-70764759D01*
X147675241Y-70964637D01*
X147910273Y-71121680D01*
X148171426Y-71229853D01*
X148448665Y-71285000D01*
X148731335Y-71285000D01*
X149008574Y-71229853D01*
X149269727Y-71121680D01*
X149504759Y-70964637D01*
X149704637Y-70764759D01*
X149861680Y-70529727D01*
X149866067Y-70519135D01*
X149977615Y-70705131D01*
X150166586Y-70913519D01*
X150392580Y-71081037D01*
X150646913Y-71201246D01*
X150780961Y-71241904D01*
X151003000Y-71119915D01*
X151003000Y-69977000D01*
X150983000Y-69977000D01*
X150983000Y-69723000D01*
X151003000Y-69723000D01*
X151003000Y-68580085D01*
X151257000Y-68580085D01*
X151257000Y-69723000D01*
X151277000Y-69723000D01*
X151277000Y-69977000D01*
X151257000Y-69977000D01*
X151257000Y-71119915D01*
X151479039Y-71241904D01*
X151613087Y-71201246D01*
X151867420Y-71081037D01*
X152093414Y-70913519D01*
X152282385Y-70705131D01*
X152393933Y-70519135D01*
X152398320Y-70529727D01*
X152555363Y-70764759D01*
X152755241Y-70964637D01*
X152990273Y-71121680D01*
X153251426Y-71229853D01*
X153528665Y-71285000D01*
X153811335Y-71285000D01*
X154088574Y-71229853D01*
X154349727Y-71121680D01*
X154584759Y-70964637D01*
X154784637Y-70764759D01*
X154940000Y-70532241D01*
X155095363Y-70764759D01*
X155295241Y-70964637D01*
X155530273Y-71121680D01*
X155791426Y-71229853D01*
X156068665Y-71285000D01*
X156351335Y-71285000D01*
X156628574Y-71229853D01*
X156889727Y-71121680D01*
X157124759Y-70964637D01*
X157323357Y-70766039D01*
X157324188Y-70774482D01*
X157360498Y-70894180D01*
X157419463Y-71004494D01*
X157498815Y-71101185D01*
X157595506Y-71180537D01*
X157705820Y-71239502D01*
X157825518Y-71275812D01*
X157950000Y-71288072D01*
X159550000Y-71288072D01*
X159674482Y-71275812D01*
X159794180Y-71239502D01*
X159885832Y-71190512D01*
X202069783Y-71190512D01*
X202111213Y-71470130D01*
X202206397Y-71736292D01*
X202273329Y-71861514D01*
X202517298Y-71933097D01*
X203330395Y-71120000D01*
X203689605Y-71120000D01*
X204502702Y-71933097D01*
X204746671Y-71861514D01*
X204867571Y-71606004D01*
X204936300Y-71331816D01*
X204950217Y-71049488D01*
X204908787Y-70769870D01*
X204813603Y-70503708D01*
X204746671Y-70378486D01*
X204547340Y-70320000D01*
X205571928Y-70320000D01*
X205571928Y-71920000D01*
X205584188Y-72044482D01*
X205620498Y-72164180D01*
X205679463Y-72274494D01*
X205758815Y-72371185D01*
X205855506Y-72450537D01*
X205965820Y-72509502D01*
X206085518Y-72545812D01*
X206210000Y-72558072D01*
X207810000Y-72558072D01*
X207934482Y-72545812D01*
X208054180Y-72509502D01*
X208164494Y-72450537D01*
X208261185Y-72371185D01*
X208340537Y-72274494D01*
X208399502Y-72164180D01*
X208435812Y-72044482D01*
X208448072Y-71920000D01*
X208448072Y-70320000D01*
X208435812Y-70195518D01*
X208399502Y-70075820D01*
X208340537Y-69965506D01*
X208261185Y-69868815D01*
X208164494Y-69789463D01*
X208054180Y-69730498D01*
X207934482Y-69694188D01*
X207810000Y-69681928D01*
X206210000Y-69681928D01*
X206085518Y-69694188D01*
X205965820Y-69730498D01*
X205855506Y-69789463D01*
X205758815Y-69868815D01*
X205679463Y-69965506D01*
X205620498Y-70075820D01*
X205584188Y-70195518D01*
X205571928Y-70320000D01*
X204547340Y-70320000D01*
X204502702Y-70306903D01*
X203689605Y-71120000D01*
X203330395Y-71120000D01*
X202517298Y-70306903D01*
X202273329Y-70378486D01*
X202152429Y-70633996D01*
X202083700Y-70908184D01*
X202069783Y-71190512D01*
X159885832Y-71190512D01*
X159904494Y-71180537D01*
X160001185Y-71101185D01*
X160080537Y-71004494D01*
X160139502Y-70894180D01*
X160175812Y-70774482D01*
X160188072Y-70650000D01*
X160188072Y-70127298D01*
X202696903Y-70127298D01*
X203510000Y-70940395D01*
X204323097Y-70127298D01*
X204251514Y-69883329D01*
X203996004Y-69762429D01*
X203721816Y-69693700D01*
X203439488Y-69679783D01*
X203159870Y-69721213D01*
X202893708Y-69816397D01*
X202768486Y-69883329D01*
X202696903Y-70127298D01*
X160188072Y-70127298D01*
X160188072Y-69050000D01*
X160175812Y-68925518D01*
X160139502Y-68805820D01*
X160080537Y-68695506D01*
X160001185Y-68598815D01*
X159904494Y-68519463D01*
X159794180Y-68460498D01*
X159674482Y-68424188D01*
X159550000Y-68411928D01*
X157950000Y-68411928D01*
X157825518Y-68424188D01*
X157705820Y-68460498D01*
X157595506Y-68519463D01*
X157498815Y-68598815D01*
X157419463Y-68695506D01*
X157360498Y-68805820D01*
X157324188Y-68925518D01*
X157323357Y-68933961D01*
X157124759Y-68735363D01*
X156889727Y-68578320D01*
X156628574Y-68470147D01*
X156351335Y-68415000D01*
X156068665Y-68415000D01*
X155791426Y-68470147D01*
X155530273Y-68578320D01*
X155295241Y-68735363D01*
X155095363Y-68935241D01*
X154940000Y-69167759D01*
X154784637Y-68935241D01*
X154584759Y-68735363D01*
X154349727Y-68578320D01*
X154088574Y-68470147D01*
X153811335Y-68415000D01*
X153528665Y-68415000D01*
X153251426Y-68470147D01*
X152990273Y-68578320D01*
X152755241Y-68735363D01*
X152555363Y-68935241D01*
X152398320Y-69170273D01*
X152393933Y-69180865D01*
X152282385Y-68994869D01*
X152093414Y-68786481D01*
X151867420Y-68618963D01*
X151613087Y-68498754D01*
X151479039Y-68458096D01*
X151257000Y-68580085D01*
X151003000Y-68580085D01*
X150780961Y-68458096D01*
X150646913Y-68498754D01*
X150392580Y-68618963D01*
X150166586Y-68786481D01*
X149977615Y-68994869D01*
X149866067Y-69180865D01*
X149861680Y-69170273D01*
X149704637Y-68935241D01*
X149504759Y-68735363D01*
X149269727Y-68578320D01*
X149008574Y-68470147D01*
X148731335Y-68415000D01*
X148448665Y-68415000D01*
X148171426Y-68470147D01*
X147910273Y-68578320D01*
X147675241Y-68735363D01*
X147475363Y-68935241D01*
X147320000Y-69167759D01*
X147164637Y-68935241D01*
X146964759Y-68735363D01*
X146729727Y-68578320D01*
X146468574Y-68470147D01*
X146191335Y-68415000D01*
X145908665Y-68415000D01*
X145631426Y-68470147D01*
X145370273Y-68578320D01*
X145135241Y-68735363D01*
X144935363Y-68935241D01*
X144780000Y-69167759D01*
X144624637Y-68935241D01*
X144424759Y-68735363D01*
X144189727Y-68578320D01*
X143928574Y-68470147D01*
X143651335Y-68415000D01*
X143368665Y-68415000D01*
X143091426Y-68470147D01*
X142830273Y-68578320D01*
X142595241Y-68735363D01*
X142395363Y-68935241D01*
X142240000Y-69167759D01*
X142084637Y-68935241D01*
X141884759Y-68735363D01*
X141649727Y-68578320D01*
X141388574Y-68470147D01*
X141111335Y-68415000D01*
X140828665Y-68415000D01*
X140551426Y-68470147D01*
X140290273Y-68578320D01*
X140055241Y-68735363D01*
X139855363Y-68935241D01*
X139700000Y-69167759D01*
X139544637Y-68935241D01*
X139344759Y-68735363D01*
X139109727Y-68578320D01*
X138848574Y-68470147D01*
X138571335Y-68415000D01*
X138288665Y-68415000D01*
X138011426Y-68470147D01*
X137750273Y-68578320D01*
X137515241Y-68735363D01*
X137315363Y-68935241D01*
X137160000Y-69167759D01*
X137004637Y-68935241D01*
X136804759Y-68735363D01*
X136569727Y-68578320D01*
X136308574Y-68470147D01*
X136031335Y-68415000D01*
X135748665Y-68415000D01*
X135471426Y-68470147D01*
X135210273Y-68578320D01*
X134975241Y-68735363D01*
X134775363Y-68935241D01*
X134620000Y-69167759D01*
X134464637Y-68935241D01*
X134264759Y-68735363D01*
X134029727Y-68578320D01*
X133768574Y-68470147D01*
X133491335Y-68415000D01*
X133208665Y-68415000D01*
X132931426Y-68470147D01*
X132670273Y-68578320D01*
X132435241Y-68735363D01*
X132235363Y-68935241D01*
X132080000Y-69167759D01*
X131924637Y-68935241D01*
X131724759Y-68735363D01*
X131489727Y-68578320D01*
X131228574Y-68470147D01*
X130951335Y-68415000D01*
X130668665Y-68415000D01*
X130391426Y-68470147D01*
X130130273Y-68578320D01*
X129895241Y-68735363D01*
X129695363Y-68935241D01*
X129540000Y-69167759D01*
X129384637Y-68935241D01*
X129184759Y-68735363D01*
X128949727Y-68578320D01*
X128688574Y-68470147D01*
X128411335Y-68415000D01*
X128128665Y-68415000D01*
X127851426Y-68470147D01*
X127590273Y-68578320D01*
X127355241Y-68735363D01*
X127155363Y-68935241D01*
X127000000Y-69167759D01*
X126844637Y-68935241D01*
X126644759Y-68735363D01*
X126409727Y-68578320D01*
X126148574Y-68470147D01*
X125871335Y-68415000D01*
X125588665Y-68415000D01*
X125311426Y-68470147D01*
X125050273Y-68578320D01*
X124815241Y-68735363D01*
X124615363Y-68935241D01*
X124460000Y-69167759D01*
X124304637Y-68935241D01*
X124104759Y-68735363D01*
X123869727Y-68578320D01*
X123608574Y-68470147D01*
X123331335Y-68415000D01*
X123048665Y-68415000D01*
X122771426Y-68470147D01*
X122510273Y-68578320D01*
X122275241Y-68735363D01*
X122075363Y-68935241D01*
X121918320Y-69170273D01*
X121810147Y-69431426D01*
X121755000Y-69708665D01*
X114960000Y-69708665D01*
X114960000Y-61852285D01*
X115545000Y-61852285D01*
X115545000Y-62607715D01*
X115692377Y-63348628D01*
X115981467Y-64046554D01*
X116401161Y-64674670D01*
X116935330Y-65208839D01*
X117563446Y-65628533D01*
X118261372Y-65917623D01*
X119002285Y-66065000D01*
X119757715Y-66065000D01*
X120498628Y-65917623D01*
X120872640Y-65762702D01*
X197346903Y-65762702D01*
X197418486Y-66006671D01*
X197673996Y-66127571D01*
X197948184Y-66196300D01*
X198230512Y-66210217D01*
X198510130Y-66168787D01*
X198776292Y-66073603D01*
X198901514Y-66006671D01*
X198973097Y-65762702D01*
X198160000Y-64949605D01*
X197346903Y-65762702D01*
X120872640Y-65762702D01*
X121196554Y-65628533D01*
X121824670Y-65208839D01*
X122192997Y-64840512D01*
X196719783Y-64840512D01*
X196761213Y-65120130D01*
X196856397Y-65386292D01*
X196923329Y-65511514D01*
X197167298Y-65583097D01*
X197980395Y-64770000D01*
X198339605Y-64770000D01*
X199152702Y-65583097D01*
X199396671Y-65511514D01*
X199410324Y-65482659D01*
X199545363Y-65684759D01*
X199745241Y-65884637D01*
X199980273Y-66041680D01*
X200241426Y-66149853D01*
X200518665Y-66205000D01*
X200801335Y-66205000D01*
X201078574Y-66149853D01*
X201339727Y-66041680D01*
X201574759Y-65884637D01*
X201774637Y-65684759D01*
X201931680Y-65449727D01*
X202039853Y-65188574D01*
X202095000Y-64911335D01*
X202095000Y-64628665D01*
X202039853Y-64351426D01*
X201931680Y-64090273D01*
X201774637Y-63855241D01*
X201574759Y-63655363D01*
X201339727Y-63498320D01*
X201078574Y-63390147D01*
X200801335Y-63335000D01*
X200518665Y-63335000D01*
X200241426Y-63390147D01*
X199980273Y-63498320D01*
X199745241Y-63655363D01*
X199545363Y-63855241D01*
X199411308Y-64055869D01*
X199396671Y-64028486D01*
X199152702Y-63956903D01*
X198339605Y-64770000D01*
X197980395Y-64770000D01*
X197167298Y-63956903D01*
X196923329Y-64028486D01*
X196802429Y-64283996D01*
X196733700Y-64558184D01*
X196719783Y-64840512D01*
X122192997Y-64840512D01*
X122358839Y-64674670D01*
X122778533Y-64046554D01*
X122890062Y-63777298D01*
X197346903Y-63777298D01*
X198160000Y-64590395D01*
X198973097Y-63777298D01*
X198901514Y-63533329D01*
X198646004Y-63412429D01*
X198371816Y-63343700D01*
X198089488Y-63329783D01*
X197809870Y-63371213D01*
X197543708Y-63466397D01*
X197418486Y-63533329D01*
X197346903Y-63777298D01*
X122890062Y-63777298D01*
X123067623Y-63348628D01*
X123215000Y-62607715D01*
X123215000Y-61852285D01*
X204445000Y-61852285D01*
X204445000Y-62607715D01*
X204592377Y-63348628D01*
X204881467Y-64046554D01*
X205301161Y-64674670D01*
X205835330Y-65208839D01*
X206463446Y-65628533D01*
X207161372Y-65917623D01*
X207902285Y-66065000D01*
X208657715Y-66065000D01*
X209398628Y-65917623D01*
X210096554Y-65628533D01*
X210724670Y-65208839D01*
X211258839Y-64674670D01*
X211678533Y-64046554D01*
X211967623Y-63348628D01*
X212115000Y-62607715D01*
X212115000Y-61852285D01*
X211967623Y-61111372D01*
X211678533Y-60413446D01*
X211258839Y-59785330D01*
X210724670Y-59251161D01*
X210096554Y-58831467D01*
X209398628Y-58542377D01*
X208657715Y-58395000D01*
X207902285Y-58395000D01*
X207161372Y-58542377D01*
X206463446Y-58831467D01*
X205835330Y-59251161D01*
X205301161Y-59785330D01*
X204881467Y-60413446D01*
X204592377Y-61111372D01*
X204445000Y-61852285D01*
X123215000Y-61852285D01*
X123067623Y-61111372D01*
X122778533Y-60413446D01*
X122358839Y-59785330D01*
X121824670Y-59251161D01*
X121196554Y-58831467D01*
X120498628Y-58542377D01*
X119757715Y-58395000D01*
X119002285Y-58395000D01*
X118261372Y-58542377D01*
X117563446Y-58831467D01*
X116935330Y-59251161D01*
X116401161Y-59785330D01*
X115981467Y-60413446D01*
X115692377Y-61111372D01*
X115545000Y-61852285D01*
X114960000Y-61852285D01*
X114960000Y-57810000D01*
X212700001Y-57810000D01*
X212700000Y-125070000D01*
G37*
X212700000Y-125070000D02*
X114960000Y-125070000D01*
X114960000Y-120272285D01*
X115545000Y-120272285D01*
X115545000Y-121027715D01*
X115692377Y-121768628D01*
X115981467Y-122466554D01*
X116401161Y-123094670D01*
X116935330Y-123628839D01*
X117563446Y-124048533D01*
X118261372Y-124337623D01*
X119002285Y-124485000D01*
X119757715Y-124485000D01*
X120498628Y-124337623D01*
X121196554Y-124048533D01*
X121824670Y-123628839D01*
X122358839Y-123094670D01*
X122778533Y-122466554D01*
X123067623Y-121768628D01*
X123215000Y-121027715D01*
X123215000Y-120508665D01*
X133185000Y-120508665D01*
X133185000Y-120791335D01*
X133240147Y-121068574D01*
X133348320Y-121329727D01*
X133505363Y-121564759D01*
X133705241Y-121764637D01*
X133940273Y-121921680D01*
X134201426Y-122029853D01*
X134478665Y-122085000D01*
X134761335Y-122085000D01*
X135038574Y-122029853D01*
X135299727Y-121921680D01*
X135534759Y-121764637D01*
X135656694Y-121642702D01*
X136306903Y-121642702D01*
X136378486Y-121886671D01*
X136633996Y-122007571D01*
X136908184Y-122076300D01*
X137190512Y-122090217D01*
X137470130Y-122048787D01*
X137736292Y-121953603D01*
X137861514Y-121886671D01*
X137933097Y-121642702D01*
X137120000Y-120829605D01*
X136306903Y-121642702D01*
X135656694Y-121642702D01*
X135734637Y-121564759D01*
X135868692Y-121364131D01*
X135883329Y-121391514D01*
X136127298Y-121463097D01*
X136940395Y-120650000D01*
X137299605Y-120650000D01*
X138112702Y-121463097D01*
X138356671Y-121391514D01*
X138477571Y-121136004D01*
X138546300Y-120861816D01*
X138560217Y-120579488D01*
X138518787Y-120299870D01*
X138508923Y-120272285D01*
X204445000Y-120272285D01*
X204445000Y-121027715D01*
X204592377Y-121768628D01*
X204881467Y-122466554D01*
X205301161Y-123094670D01*
X205835330Y-123628839D01*
X206463446Y-124048533D01*
X207161372Y-124337623D01*
X207902285Y-124485000D01*
X208657715Y-124485000D01*
X209398628Y-124337623D01*
X210096554Y-124048533D01*
X210724670Y-123628839D01*
X211258839Y-123094670D01*
X211678533Y-122466554D01*
X211967623Y-121768628D01*
X212115000Y-121027715D01*
X212115000Y-120272285D01*
X211967623Y-119531372D01*
X211678533Y-118833446D01*
X211258839Y-118205330D01*
X210724670Y-117671161D01*
X210096554Y-117251467D01*
X209398628Y-116962377D01*
X208657715Y-116815000D01*
X207902285Y-116815000D01*
X207161372Y-116962377D01*
X206463446Y-117251467D01*
X205835330Y-117671161D01*
X205301161Y-118205330D01*
X204881467Y-118833446D01*
X204592377Y-119531372D01*
X204445000Y-120272285D01*
X138508923Y-120272285D01*
X138423603Y-120033708D01*
X138356671Y-119908486D01*
X138112702Y-119836903D01*
X137299605Y-120650000D01*
X136940395Y-120650000D01*
X136127298Y-119836903D01*
X135883329Y-119908486D01*
X135869676Y-119937341D01*
X135734637Y-119735241D01*
X135656694Y-119657298D01*
X136306903Y-119657298D01*
X137120000Y-120470395D01*
X137933097Y-119657298D01*
X137861514Y-119413329D01*
X137606004Y-119292429D01*
X137331816Y-119223700D01*
X137049488Y-119209783D01*
X136769870Y-119251213D01*
X136503708Y-119346397D01*
X136378486Y-119413329D01*
X136306903Y-119657298D01*
X135656694Y-119657298D01*
X135534759Y-119535363D01*
X135299727Y-119378320D01*
X135038574Y-119270147D01*
X134761335Y-119215000D01*
X134478665Y-119215000D01*
X134201426Y-119270147D01*
X133940273Y-119378320D01*
X133705241Y-119535363D01*
X133505363Y-119735241D01*
X133348320Y-119970273D01*
X133240147Y-120231426D01*
X133185000Y-120508665D01*
X123215000Y-120508665D01*
X123215000Y-120272285D01*
X123067623Y-119531372D01*
X122778533Y-118833446D01*
X122358839Y-118205330D01*
X121824670Y-117671161D01*
X121196554Y-117251467D01*
X120498628Y-116962377D01*
X119757715Y-116815000D01*
X119002285Y-116815000D01*
X118261372Y-116962377D01*
X117563446Y-117251467D01*
X116935330Y-117671161D01*
X116401161Y-118205330D01*
X115981467Y-118833446D01*
X115692377Y-119531372D01*
X115545000Y-120272285D01*
X114960000Y-120272285D01*
X114960000Y-116562702D01*
X126496903Y-116562702D01*
X126568486Y-116806671D01*
X126823996Y-116927571D01*
X127098184Y-116996300D01*
X127380512Y-117010217D01*
X127660130Y-116968787D01*
X127926292Y-116873603D01*
X128051514Y-116806671D01*
X128123097Y-116562702D01*
X127310000Y-115749605D01*
X126496903Y-116562702D01*
X114960000Y-116562702D01*
X114960000Y-115640512D01*
X125869783Y-115640512D01*
X125911213Y-115920130D01*
X126006397Y-116186292D01*
X126073329Y-116311514D01*
X126317298Y-116383097D01*
X127130395Y-115570000D01*
X127489605Y-115570000D01*
X128302702Y-116383097D01*
X128546671Y-116311514D01*
X128667571Y-116056004D01*
X128736300Y-115781816D01*
X128750217Y-115499488D01*
X128708787Y-115219870D01*
X128613603Y-114953708D01*
X128546671Y-114828486D01*
X128347340Y-114770000D01*
X129371928Y-114770000D01*
X129371928Y-116370000D01*
X129384188Y-116494482D01*
X129420498Y-116614180D01*
X129479463Y-116724494D01*
X129558815Y-116821185D01*
X129655506Y-116900537D01*
X129765820Y-116959502D01*
X129885518Y-116995812D01*
X130010000Y-117008072D01*
X131610000Y-117008072D01*
X131734482Y-116995812D01*
X131854180Y-116959502D01*
X131964494Y-116900537D01*
X132061185Y-116821185D01*
X132140537Y-116724494D01*
X132199502Y-116614180D01*
X132235812Y-116494482D01*
X132248072Y-116370000D01*
X132248072Y-115965413D01*
X193434192Y-115965413D01*
X193529956Y-116229814D01*
X193819571Y-116370704D01*
X194131108Y-116452384D01*
X194452595Y-116471718D01*
X194771675Y-116427961D01*
X195076088Y-116322795D01*
X195250044Y-116229814D01*
X195345808Y-115965413D01*
X194390000Y-115009605D01*
X193434192Y-115965413D01*
X132248072Y-115965413D01*
X132248072Y-114892595D01*
X192748282Y-114892595D01*
X192792039Y-115211675D01*
X192897205Y-115516088D01*
X192990186Y-115690044D01*
X193254587Y-115785808D01*
X194210395Y-114830000D01*
X194569605Y-114830000D01*
X195525413Y-115785808D01*
X195789814Y-115690044D01*
X195930704Y-115400429D01*
X196012384Y-115088892D01*
X196031718Y-114767405D01*
X196018219Y-114668967D01*
X197755000Y-114668967D01*
X197755000Y-114991033D01*
X197817832Y-115306912D01*
X197941082Y-115604463D01*
X198120013Y-115872252D01*
X198347748Y-116099987D01*
X198615537Y-116278918D01*
X198913088Y-116402168D01*
X199228967Y-116465000D01*
X199551033Y-116465000D01*
X199866912Y-116402168D01*
X200164463Y-116278918D01*
X200432252Y-116099987D01*
X200659987Y-115872252D01*
X200838918Y-115604463D01*
X200962168Y-115306912D01*
X201025000Y-114991033D01*
X201025000Y-114668967D01*
X200962168Y-114353088D01*
X200838918Y-114055537D01*
X200659987Y-113787748D01*
X200432252Y-113560013D01*
X200164463Y-113381082D01*
X199866912Y-113257832D01*
X199551033Y-113195000D01*
X199228967Y-113195000D01*
X198913088Y-113257832D01*
X198615537Y-113381082D01*
X198347748Y-113560013D01*
X198120013Y-113787748D01*
X197941082Y-114055537D01*
X197817832Y-114353088D01*
X197755000Y-114668967D01*
X196018219Y-114668967D01*
X195987961Y-114448325D01*
X195882795Y-114143912D01*
X195789814Y-113969956D01*
X195525413Y-113874192D01*
X194569605Y-114830000D01*
X194210395Y-114830000D01*
X193254587Y-113874192D01*
X192990186Y-113969956D01*
X192849296Y-114259571D01*
X192767616Y-114571108D01*
X192748282Y-114892595D01*
X132248072Y-114892595D01*
X132248072Y-114770000D01*
X132235812Y-114645518D01*
X132199502Y-114525820D01*
X132140537Y-114415506D01*
X132061185Y-114318815D01*
X131964494Y-114239463D01*
X131854180Y-114180498D01*
X131734482Y-114144188D01*
X131610000Y-114131928D01*
X130010000Y-114131928D01*
X129885518Y-114144188D01*
X129765820Y-114180498D01*
X129655506Y-114239463D01*
X129558815Y-114318815D01*
X129479463Y-114415506D01*
X129420498Y-114525820D01*
X129384188Y-114645518D01*
X129371928Y-114770000D01*
X128347340Y-114770000D01*
X128302702Y-114756903D01*
X127489605Y-115570000D01*
X127130395Y-115570000D01*
X126317298Y-114756903D01*
X126073329Y-114828486D01*
X125952429Y-115083996D01*
X125883700Y-115358184D01*
X125869783Y-115640512D01*
X114960000Y-115640512D01*
X114960000Y-114577298D01*
X126496903Y-114577298D01*
X127310000Y-115390395D01*
X128123097Y-114577298D01*
X128051514Y-114333329D01*
X127796004Y-114212429D01*
X127521816Y-114143700D01*
X127239488Y-114129783D01*
X126959870Y-114171213D01*
X126693708Y-114266397D01*
X126568486Y-114333329D01*
X126496903Y-114577298D01*
X114960000Y-114577298D01*
X114960000Y-113694587D01*
X193434192Y-113694587D01*
X194390000Y-114650395D01*
X195345808Y-113694587D01*
X195250044Y-113430186D01*
X194960429Y-113289296D01*
X194648892Y-113207616D01*
X194327405Y-113188282D01*
X194008325Y-113232039D01*
X193703912Y-113337205D01*
X193529956Y-113430186D01*
X193434192Y-113694587D01*
X114960000Y-113694587D01*
X114960000Y-107205000D01*
X123476928Y-107205000D01*
X123476928Y-109205000D01*
X123489188Y-109329482D01*
X123525498Y-109449180D01*
X123584463Y-109559494D01*
X123663815Y-109656185D01*
X123760506Y-109735537D01*
X123870820Y-109794502D01*
X123990518Y-109830812D01*
X124115000Y-109843072D01*
X128615000Y-109843072D01*
X128739482Y-109830812D01*
X128859180Y-109794502D01*
X128969494Y-109735537D01*
X129066185Y-109656185D01*
X129145537Y-109559494D01*
X129204502Y-109449180D01*
X129240812Y-109329482D01*
X129253072Y-109205000D01*
X129253072Y-107205000D01*
X129240812Y-107080518D01*
X129204502Y-106960820D01*
X129145537Y-106850506D01*
X129066185Y-106753815D01*
X128969494Y-106674463D01*
X128859180Y-106615498D01*
X128739482Y-106579188D01*
X128615000Y-106566928D01*
X124115000Y-106566928D01*
X123990518Y-106579188D01*
X123870820Y-106615498D01*
X123760506Y-106674463D01*
X123663815Y-106753815D01*
X123584463Y-106850506D01*
X123525498Y-106960820D01*
X123489188Y-107080518D01*
X123476928Y-107205000D01*
X114960000Y-107205000D01*
X114960000Y-105755000D01*
X121726928Y-105755000D01*
X121739188Y-105879482D01*
X121775498Y-105999180D01*
X121834463Y-106109494D01*
X121913815Y-106206185D01*
X122010506Y-106285537D01*
X122120820Y-106344502D01*
X122240518Y-106380812D01*
X122365000Y-106393072D01*
X123079250Y-106390000D01*
X123238000Y-106231250D01*
X123238000Y-103632000D01*
X123492000Y-103632000D01*
X123492000Y-106231250D01*
X123650750Y-106390000D01*
X124365000Y-106393072D01*
X124489482Y-106380812D01*
X124609180Y-106344502D01*
X124719494Y-106285537D01*
X124816185Y-106206185D01*
X124895537Y-106109494D01*
X124954502Y-105999180D01*
X124990812Y-105879482D01*
X125003072Y-105755000D01*
X125000000Y-103790750D01*
X124841250Y-103632000D01*
X123492000Y-103632000D01*
X123238000Y-103632000D01*
X121888750Y-103632000D01*
X121730000Y-103790750D01*
X121726928Y-105755000D01*
X114960000Y-105755000D01*
X114960000Y-101255000D01*
X121726928Y-101255000D01*
X121730000Y-103219250D01*
X121888750Y-103378000D01*
X123238000Y-103378000D01*
X123238000Y-100778750D01*
X123492000Y-100778750D01*
X123492000Y-103378000D01*
X124841250Y-103378000D01*
X125000000Y-103219250D01*
X125003072Y-101255000D01*
X127726928Y-101255000D01*
X127726928Y-105755000D01*
X127739188Y-105879482D01*
X127775498Y-105999180D01*
X127834463Y-106109494D01*
X127913815Y-106206185D01*
X128010506Y-106285537D01*
X128120820Y-106344502D01*
X128240518Y-106380812D01*
X128365000Y-106393072D01*
X130365000Y-106393072D01*
X130489482Y-106380812D01*
X130609180Y-106344502D01*
X130636310Y-106330000D01*
X189401928Y-106330000D01*
X189401928Y-109330000D01*
X189414188Y-109454482D01*
X189450498Y-109574180D01*
X189509463Y-109684494D01*
X189588815Y-109781185D01*
X189685506Y-109860537D01*
X189795820Y-109919502D01*
X189915518Y-109955812D01*
X190040000Y-109968072D01*
X192540000Y-109968072D01*
X192664482Y-109955812D01*
X192784180Y-109919502D01*
X192894494Y-109860537D01*
X192991185Y-109781185D01*
X193070537Y-109684494D01*
X193129502Y-109574180D01*
X193165812Y-109454482D01*
X193178072Y-109330000D01*
X193178072Y-106330000D01*
X200601928Y-106330000D01*
X200601928Y-109330000D01*
X200614188Y-109454482D01*
X200650498Y-109574180D01*
X200709463Y-109684494D01*
X200788815Y-109781185D01*
X200885506Y-109860537D01*
X200995820Y-109919502D01*
X201115518Y-109955812D01*
X201240000Y-109968072D01*
X203740000Y-109968072D01*
X203864482Y-109955812D01*
X203984180Y-109919502D01*
X204094494Y-109860537D01*
X204191185Y-109781185D01*
X204270537Y-109684494D01*
X204329502Y-109574180D01*
X204365812Y-109454482D01*
X204378072Y-109330000D01*
X204378072Y-106330000D01*
X204365812Y-106205518D01*
X204329502Y-106085820D01*
X204270537Y-105975506D01*
X204191185Y-105878815D01*
X204094494Y-105799463D01*
X203984180Y-105740498D01*
X203864482Y-105704188D01*
X203740000Y-105691928D01*
X201240000Y-105691928D01*
X201115518Y-105704188D01*
X200995820Y-105740498D01*
X200885506Y-105799463D01*
X200788815Y-105878815D01*
X200709463Y-105975506D01*
X200650498Y-106085820D01*
X200614188Y-106205518D01*
X200601928Y-106330000D01*
X193178072Y-106330000D01*
X193165812Y-106205518D01*
X193129502Y-106085820D01*
X193070537Y-105975506D01*
X192991185Y-105878815D01*
X192894494Y-105799463D01*
X192784180Y-105740498D01*
X192664482Y-105704188D01*
X192540000Y-105691928D01*
X190040000Y-105691928D01*
X189915518Y-105704188D01*
X189795820Y-105740498D01*
X189685506Y-105799463D01*
X189588815Y-105878815D01*
X189509463Y-105975506D01*
X189450498Y-106085820D01*
X189414188Y-106205518D01*
X189401928Y-106330000D01*
X130636310Y-106330000D01*
X130719494Y-106285537D01*
X130816185Y-106206185D01*
X130895537Y-106109494D01*
X130954502Y-105999180D01*
X130990812Y-105879482D01*
X131003072Y-105755000D01*
X131003072Y-101255000D01*
X130990812Y-101130518D01*
X130954502Y-101010820D01*
X130895537Y-100900506D01*
X130816185Y-100803815D01*
X130719494Y-100724463D01*
X130609180Y-100665498D01*
X130489482Y-100629188D01*
X130365000Y-100616928D01*
X128365000Y-100616928D01*
X128240518Y-100629188D01*
X128120820Y-100665498D01*
X128010506Y-100724463D01*
X127913815Y-100803815D01*
X127834463Y-100900506D01*
X127775498Y-101010820D01*
X127739188Y-101130518D01*
X127726928Y-101255000D01*
X125003072Y-101255000D01*
X124990812Y-101130518D01*
X124954502Y-101010820D01*
X124895537Y-100900506D01*
X124816185Y-100803815D01*
X124719494Y-100724463D01*
X124609180Y-100665498D01*
X124489482Y-100629188D01*
X124365000Y-100616928D01*
X123650750Y-100620000D01*
X123492000Y-100778750D01*
X123238000Y-100778750D01*
X123079250Y-100620000D01*
X122365000Y-100616928D01*
X122240518Y-100629188D01*
X122120820Y-100665498D01*
X122010506Y-100724463D01*
X121913815Y-100803815D01*
X121834463Y-100900506D01*
X121775498Y-101010820D01*
X121739188Y-101130518D01*
X121726928Y-101255000D01*
X114960000Y-101255000D01*
X114960000Y-100168967D01*
X192755000Y-100168967D01*
X192755000Y-100491033D01*
X192817832Y-100806912D01*
X192941082Y-101104463D01*
X193120013Y-101372252D01*
X193347748Y-101599987D01*
X193615537Y-101778918D01*
X193913088Y-101902168D01*
X194228967Y-101965000D01*
X194551033Y-101965000D01*
X194866912Y-101902168D01*
X195164463Y-101778918D01*
X195432252Y-101599987D01*
X195659987Y-101372252D01*
X195724925Y-101275065D01*
X195754587Y-101285808D01*
X196710395Y-100330000D01*
X195754587Y-99374192D01*
X195724925Y-99384935D01*
X195659987Y-99287748D01*
X195566826Y-99194587D01*
X195934192Y-99194587D01*
X196890000Y-100150395D01*
X196904143Y-100136253D01*
X197083748Y-100315858D01*
X197069605Y-100330000D01*
X197083748Y-100344143D01*
X196904143Y-100523748D01*
X196890000Y-100509605D01*
X195934192Y-101465413D01*
X196029956Y-101729814D01*
X196319571Y-101870704D01*
X196631108Y-101952384D01*
X196952595Y-101971718D01*
X197271675Y-101927961D01*
X197576088Y-101822795D01*
X197750044Y-101729814D01*
X197804024Y-101580777D01*
X197859463Y-101684494D01*
X197938815Y-101781185D01*
X198035506Y-101860537D01*
X198145820Y-101919502D01*
X198265518Y-101955812D01*
X198390000Y-101968072D01*
X200390000Y-101968072D01*
X200514482Y-101955812D01*
X200634180Y-101919502D01*
X200744494Y-101860537D01*
X200841185Y-101781185D01*
X200920537Y-101684494D01*
X200979502Y-101574180D01*
X201015812Y-101454482D01*
X201028072Y-101330000D01*
X201028072Y-99330000D01*
X201015812Y-99205518D01*
X200979502Y-99085820D01*
X200920537Y-98975506D01*
X200841185Y-98878815D01*
X200744494Y-98799463D01*
X200634180Y-98740498D01*
X200514482Y-98704188D01*
X200390000Y-98691928D01*
X198390000Y-98691928D01*
X198265518Y-98704188D01*
X198145820Y-98740498D01*
X198035506Y-98799463D01*
X197938815Y-98878815D01*
X197859463Y-98975506D01*
X197804024Y-99079223D01*
X197750044Y-98930186D01*
X197460429Y-98789296D01*
X197148892Y-98707616D01*
X196827405Y-98688282D01*
X196508325Y-98732039D01*
X196203912Y-98837205D01*
X196029956Y-98930186D01*
X195934192Y-99194587D01*
X195566826Y-99194587D01*
X195432252Y-99060013D01*
X195164463Y-98881082D01*
X194866912Y-98757832D01*
X194551033Y-98695000D01*
X194228967Y-98695000D01*
X193913088Y-98757832D01*
X193615537Y-98881082D01*
X193347748Y-99060013D01*
X193120013Y-99287748D01*
X192941082Y-99555537D01*
X192817832Y-99853088D01*
X192755000Y-100168967D01*
X114960000Y-100168967D01*
X114960000Y-95260000D01*
X167061928Y-95260000D01*
X167074188Y-95384482D01*
X167110498Y-95504180D01*
X167169463Y-95614494D01*
X167248815Y-95711185D01*
X167345506Y-95790537D01*
X167455820Y-95849502D01*
X167575518Y-95885812D01*
X167700000Y-95898072D01*
X168264250Y-95895000D01*
X168423000Y-95736250D01*
X168423000Y-94537000D01*
X167223750Y-94537000D01*
X167065000Y-94695750D01*
X167061928Y-95260000D01*
X114960000Y-95260000D01*
X114960000Y-93560000D01*
X167061928Y-93560000D01*
X167065000Y-94124250D01*
X167223750Y-94283000D01*
X168423000Y-94283000D01*
X168423000Y-93083750D01*
X168677000Y-93083750D01*
X168677000Y-94283000D01*
X168697000Y-94283000D01*
X168697000Y-94537000D01*
X168677000Y-94537000D01*
X168677000Y-95736250D01*
X168835750Y-95895000D01*
X169400000Y-95898072D01*
X169524482Y-95885812D01*
X169644180Y-95849502D01*
X169754494Y-95790537D01*
X169851185Y-95711185D01*
X169930537Y-95614494D01*
X169989502Y-95504180D01*
X170011513Y-95431620D01*
X170143368Y-95563475D01*
X170386589Y-95725990D01*
X170656842Y-95837932D01*
X170943740Y-95895000D01*
X171236260Y-95895000D01*
X171523158Y-95837932D01*
X171793411Y-95725990D01*
X172036632Y-95563475D01*
X172243475Y-95356632D01*
X172360000Y-95182240D01*
X172476525Y-95356632D01*
X172683368Y-95563475D01*
X172926589Y-95725990D01*
X173196842Y-95837932D01*
X173483740Y-95895000D01*
X173776260Y-95895000D01*
X174063158Y-95837932D01*
X174333411Y-95725990D01*
X174576632Y-95563475D01*
X174783475Y-95356632D01*
X174900000Y-95182240D01*
X175016525Y-95356632D01*
X175223368Y-95563475D01*
X175466589Y-95725990D01*
X175736842Y-95837932D01*
X176023740Y-95895000D01*
X176316260Y-95895000D01*
X176603158Y-95837932D01*
X176873411Y-95725990D01*
X177116632Y-95563475D01*
X177323475Y-95356632D01*
X177485990Y-95113411D01*
X177597932Y-94843158D01*
X177655000Y-94556260D01*
X177655000Y-94263740D01*
X177597932Y-93976842D01*
X177485990Y-93706589D01*
X177323475Y-93463368D01*
X177116632Y-93256525D01*
X176873411Y-93094010D01*
X176603158Y-92982068D01*
X176316260Y-92925000D01*
X176023740Y-92925000D01*
X175736842Y-92982068D01*
X175466589Y-93094010D01*
X175223368Y-93256525D01*
X175016525Y-93463368D01*
X174900000Y-93637760D01*
X174783475Y-93463368D01*
X174576632Y-93256525D01*
X174333411Y-93094010D01*
X174063158Y-92982068D01*
X173776260Y-92925000D01*
X173483740Y-92925000D01*
X173196842Y-92982068D01*
X172926589Y-93094010D01*
X172683368Y-93256525D01*
X172476525Y-93463368D01*
X172360000Y-93637760D01*
X172243475Y-93463368D01*
X172036632Y-93256525D01*
X171793411Y-93094010D01*
X171523158Y-92982068D01*
X171236260Y-92925000D01*
X170943740Y-92925000D01*
X170656842Y-92982068D01*
X170386589Y-93094010D01*
X170143368Y-93256525D01*
X170011513Y-93388380D01*
X169989502Y-93315820D01*
X169930537Y-93205506D01*
X169851185Y-93108815D01*
X169754494Y-93029463D01*
X169644180Y-92970498D01*
X169524482Y-92934188D01*
X169400000Y-92921928D01*
X168835750Y-92925000D01*
X168677000Y-93083750D01*
X168423000Y-93083750D01*
X168264250Y-92925000D01*
X167700000Y-92921928D01*
X167575518Y-92934188D01*
X167455820Y-92970498D01*
X167345506Y-93029463D01*
X167248815Y-93108815D01*
X167169463Y-93205506D01*
X167110498Y-93315820D01*
X167074188Y-93435518D01*
X167061928Y-93560000D01*
X114960000Y-93560000D01*
X114960000Y-91574080D01*
X206125525Y-91574080D01*
X206209208Y-91828261D01*
X206481775Y-91959158D01*
X206774642Y-92034365D01*
X207076553Y-92050991D01*
X207375907Y-92008397D01*
X207661199Y-91908222D01*
X207810792Y-91828261D01*
X207894475Y-91574080D01*
X207010000Y-90689605D01*
X206125525Y-91574080D01*
X114960000Y-91574080D01*
X114960000Y-90576553D01*
X205469009Y-90576553D01*
X205511603Y-90875907D01*
X205611778Y-91161199D01*
X205691739Y-91310792D01*
X205945920Y-91394475D01*
X206830395Y-90510000D01*
X207189605Y-90510000D01*
X208074080Y-91394475D01*
X208328261Y-91310792D01*
X208459158Y-91038225D01*
X208534365Y-90745358D01*
X208550991Y-90443447D01*
X208508397Y-90144093D01*
X208408222Y-89858801D01*
X208328261Y-89709208D01*
X208074080Y-89625525D01*
X207189605Y-90510000D01*
X206830395Y-90510000D01*
X205945920Y-89625525D01*
X205691739Y-89709208D01*
X205560842Y-89981775D01*
X205485635Y-90274642D01*
X205469009Y-90576553D01*
X114960000Y-90576553D01*
X114960000Y-89445920D01*
X206125525Y-89445920D01*
X207010000Y-90330395D01*
X207894475Y-89445920D01*
X207810792Y-89191739D01*
X207538225Y-89060842D01*
X207245358Y-88985635D01*
X206943447Y-88969009D01*
X206644093Y-89011603D01*
X206358801Y-89111778D01*
X206209208Y-89191739D01*
X206125525Y-89445920D01*
X114960000Y-89445920D01*
X114960000Y-86858816D01*
X205475000Y-86858816D01*
X205475000Y-87161184D01*
X205533989Y-87457743D01*
X205649701Y-87737095D01*
X205817688Y-87988505D01*
X206031495Y-88202312D01*
X206282905Y-88370299D01*
X206562257Y-88486011D01*
X206858816Y-88545000D01*
X207161184Y-88545000D01*
X207457743Y-88486011D01*
X207737095Y-88370299D01*
X207988505Y-88202312D01*
X208202312Y-87988505D01*
X208370299Y-87737095D01*
X208486011Y-87457743D01*
X208545000Y-87161184D01*
X208545000Y-86858816D01*
X208486011Y-86562257D01*
X208370299Y-86282905D01*
X208202312Y-86031495D01*
X207988505Y-85817688D01*
X207737095Y-85649701D01*
X207457743Y-85533989D01*
X207161184Y-85475000D01*
X206858816Y-85475000D01*
X206562257Y-85533989D01*
X206282905Y-85649701D01*
X206031495Y-85817688D01*
X205817688Y-86031495D01*
X205649701Y-86282905D01*
X205533989Y-86562257D01*
X205475000Y-86858816D01*
X114960000Y-86858816D01*
X114960000Y-84948665D01*
X121755000Y-84948665D01*
X121755000Y-85231335D01*
X121810147Y-85508574D01*
X121918320Y-85769727D01*
X122075363Y-86004759D01*
X122275241Y-86204637D01*
X122510273Y-86361680D01*
X122771426Y-86469853D01*
X123048665Y-86525000D01*
X123331335Y-86525000D01*
X123608574Y-86469853D01*
X123869727Y-86361680D01*
X124104759Y-86204637D01*
X124304637Y-86004759D01*
X124460000Y-85772241D01*
X124615363Y-86004759D01*
X124815241Y-86204637D01*
X125050273Y-86361680D01*
X125311426Y-86469853D01*
X125588665Y-86525000D01*
X125871335Y-86525000D01*
X126148574Y-86469853D01*
X126409727Y-86361680D01*
X126644759Y-86204637D01*
X126844637Y-86004759D01*
X127000000Y-85772241D01*
X127155363Y-86004759D01*
X127355241Y-86204637D01*
X127590273Y-86361680D01*
X127851426Y-86469853D01*
X128128665Y-86525000D01*
X128411335Y-86525000D01*
X128688574Y-86469853D01*
X128949727Y-86361680D01*
X129184759Y-86204637D01*
X129384637Y-86004759D01*
X129540000Y-85772241D01*
X129695363Y-86004759D01*
X129895241Y-86204637D01*
X130130273Y-86361680D01*
X130391426Y-86469853D01*
X130668665Y-86525000D01*
X130951335Y-86525000D01*
X131228574Y-86469853D01*
X131489727Y-86361680D01*
X131724759Y-86204637D01*
X131924637Y-86004759D01*
X132080000Y-85772241D01*
X132235363Y-86004759D01*
X132435241Y-86204637D01*
X132670273Y-86361680D01*
X132931426Y-86469853D01*
X133208665Y-86525000D01*
X133491335Y-86525000D01*
X133768574Y-86469853D01*
X134029727Y-86361680D01*
X134264759Y-86204637D01*
X134464637Y-86004759D01*
X134620000Y-85772241D01*
X134775363Y-86004759D01*
X134975241Y-86204637D01*
X135210273Y-86361680D01*
X135471426Y-86469853D01*
X135748665Y-86525000D01*
X136031335Y-86525000D01*
X136308574Y-86469853D01*
X136569727Y-86361680D01*
X136804759Y-86204637D01*
X137004637Y-86004759D01*
X137160000Y-85772241D01*
X137315363Y-86004759D01*
X137515241Y-86204637D01*
X137750273Y-86361680D01*
X138011426Y-86469853D01*
X138288665Y-86525000D01*
X138571335Y-86525000D01*
X138848574Y-86469853D01*
X139109727Y-86361680D01*
X139344759Y-86204637D01*
X139544637Y-86004759D01*
X139700000Y-85772241D01*
X139855363Y-86004759D01*
X140055241Y-86204637D01*
X140290273Y-86361680D01*
X140551426Y-86469853D01*
X140828665Y-86525000D01*
X141111335Y-86525000D01*
X141388574Y-86469853D01*
X141649727Y-86361680D01*
X141884759Y-86204637D01*
X142084637Y-86004759D01*
X142240000Y-85772241D01*
X142395363Y-86004759D01*
X142595241Y-86204637D01*
X142830273Y-86361680D01*
X143091426Y-86469853D01*
X143368665Y-86525000D01*
X143651335Y-86525000D01*
X143928574Y-86469853D01*
X144189727Y-86361680D01*
X144424759Y-86204637D01*
X144624637Y-86004759D01*
X144780000Y-85772241D01*
X144935363Y-86004759D01*
X145135241Y-86204637D01*
X145370273Y-86361680D01*
X145631426Y-86469853D01*
X145908665Y-86525000D01*
X146191335Y-86525000D01*
X146468574Y-86469853D01*
X146729727Y-86361680D01*
X146964759Y-86204637D01*
X147164637Y-86004759D01*
X147320000Y-85772241D01*
X147475363Y-86004759D01*
X147675241Y-86204637D01*
X147910273Y-86361680D01*
X148171426Y-86469853D01*
X148448665Y-86525000D01*
X148731335Y-86525000D01*
X149008574Y-86469853D01*
X149269727Y-86361680D01*
X149504759Y-86204637D01*
X149704637Y-86004759D01*
X149860000Y-85772241D01*
X150015363Y-86004759D01*
X150215241Y-86204637D01*
X150450273Y-86361680D01*
X150711426Y-86469853D01*
X150988665Y-86525000D01*
X151271335Y-86525000D01*
X151548574Y-86469853D01*
X151809727Y-86361680D01*
X152044759Y-86204637D01*
X152244637Y-86004759D01*
X152400000Y-85772241D01*
X152555363Y-86004759D01*
X152755241Y-86204637D01*
X152990273Y-86361680D01*
X153251426Y-86469853D01*
X153528665Y-86525000D01*
X153811335Y-86525000D01*
X154088574Y-86469853D01*
X154349727Y-86361680D01*
X154584759Y-86204637D01*
X154784637Y-86004759D01*
X154941680Y-85769727D01*
X154946067Y-85759135D01*
X155057615Y-85945131D01*
X155246586Y-86153519D01*
X155472580Y-86321037D01*
X155726913Y-86441246D01*
X155860961Y-86481904D01*
X156083000Y-86359915D01*
X156083000Y-85217000D01*
X156063000Y-85217000D01*
X156063000Y-84963000D01*
X156083000Y-84963000D01*
X156083000Y-83820085D01*
X156337000Y-83820085D01*
X156337000Y-84963000D01*
X156357000Y-84963000D01*
X156357000Y-85217000D01*
X156337000Y-85217000D01*
X156337000Y-86359915D01*
X156559039Y-86481904D01*
X156693087Y-86441246D01*
X156947420Y-86321037D01*
X157173414Y-86153519D01*
X157362385Y-85945131D01*
X157473933Y-85759135D01*
X157478320Y-85769727D01*
X157635363Y-86004759D01*
X157835241Y-86204637D01*
X158070273Y-86361680D01*
X158331426Y-86469853D01*
X158608665Y-86525000D01*
X158891335Y-86525000D01*
X159168574Y-86469853D01*
X159429727Y-86361680D01*
X159664759Y-86204637D01*
X159864637Y-86004759D01*
X160021680Y-85769727D01*
X160129853Y-85508574D01*
X160185000Y-85231335D01*
X160185000Y-84948665D01*
X160129853Y-84671426D01*
X160021680Y-84410273D01*
X159864637Y-84175241D01*
X159664759Y-83975363D01*
X159429727Y-83818320D01*
X159168574Y-83710147D01*
X158891335Y-83655000D01*
X158608665Y-83655000D01*
X158331426Y-83710147D01*
X158070273Y-83818320D01*
X157835241Y-83975363D01*
X157635363Y-84175241D01*
X157478320Y-84410273D01*
X157473933Y-84420865D01*
X157362385Y-84234869D01*
X157173414Y-84026481D01*
X156947420Y-83858963D01*
X156693087Y-83738754D01*
X156559039Y-83698096D01*
X156337000Y-83820085D01*
X156083000Y-83820085D01*
X155860961Y-83698096D01*
X155726913Y-83738754D01*
X155472580Y-83858963D01*
X155246586Y-84026481D01*
X155057615Y-84234869D01*
X154946067Y-84420865D01*
X154941680Y-84410273D01*
X154784637Y-84175241D01*
X154584759Y-83975363D01*
X154349727Y-83818320D01*
X154088574Y-83710147D01*
X153811335Y-83655000D01*
X153528665Y-83655000D01*
X153251426Y-83710147D01*
X152990273Y-83818320D01*
X152755241Y-83975363D01*
X152555363Y-84175241D01*
X152400000Y-84407759D01*
X152244637Y-84175241D01*
X152044759Y-83975363D01*
X151809727Y-83818320D01*
X151548574Y-83710147D01*
X151271335Y-83655000D01*
X150988665Y-83655000D01*
X150711426Y-83710147D01*
X150450273Y-83818320D01*
X150215241Y-83975363D01*
X150015363Y-84175241D01*
X149860000Y-84407759D01*
X149704637Y-84175241D01*
X149504759Y-83975363D01*
X149269727Y-83818320D01*
X149008574Y-83710147D01*
X148731335Y-83655000D01*
X148448665Y-83655000D01*
X148171426Y-83710147D01*
X147910273Y-83818320D01*
X147675241Y-83975363D01*
X147475363Y-84175241D01*
X147320000Y-84407759D01*
X147164637Y-84175241D01*
X146964759Y-83975363D01*
X146729727Y-83818320D01*
X146468574Y-83710147D01*
X146191335Y-83655000D01*
X145908665Y-83655000D01*
X145631426Y-83710147D01*
X145370273Y-83818320D01*
X145135241Y-83975363D01*
X144935363Y-84175241D01*
X144780000Y-84407759D01*
X144624637Y-84175241D01*
X144424759Y-83975363D01*
X144189727Y-83818320D01*
X143928574Y-83710147D01*
X143651335Y-83655000D01*
X143368665Y-83655000D01*
X143091426Y-83710147D01*
X142830273Y-83818320D01*
X142595241Y-83975363D01*
X142395363Y-84175241D01*
X142240000Y-84407759D01*
X142084637Y-84175241D01*
X141884759Y-83975363D01*
X141649727Y-83818320D01*
X141388574Y-83710147D01*
X141111335Y-83655000D01*
X140828665Y-83655000D01*
X140551426Y-83710147D01*
X140290273Y-83818320D01*
X140055241Y-83975363D01*
X139855363Y-84175241D01*
X139700000Y-84407759D01*
X139544637Y-84175241D01*
X139344759Y-83975363D01*
X139109727Y-83818320D01*
X138848574Y-83710147D01*
X138571335Y-83655000D01*
X138288665Y-83655000D01*
X138011426Y-83710147D01*
X137750273Y-83818320D01*
X137515241Y-83975363D01*
X137315363Y-84175241D01*
X137160000Y-84407759D01*
X137004637Y-84175241D01*
X136804759Y-83975363D01*
X136569727Y-83818320D01*
X136308574Y-83710147D01*
X136031335Y-83655000D01*
X135748665Y-83655000D01*
X135471426Y-83710147D01*
X135210273Y-83818320D01*
X134975241Y-83975363D01*
X134775363Y-84175241D01*
X134620000Y-84407759D01*
X134464637Y-84175241D01*
X134264759Y-83975363D01*
X134029727Y-83818320D01*
X133768574Y-83710147D01*
X133491335Y-83655000D01*
X133208665Y-83655000D01*
X132931426Y-83710147D01*
X132670273Y-83818320D01*
X132435241Y-83975363D01*
X132235363Y-84175241D01*
X132080000Y-84407759D01*
X131924637Y-84175241D01*
X131724759Y-83975363D01*
X131489727Y-83818320D01*
X131228574Y-83710147D01*
X130951335Y-83655000D01*
X130668665Y-83655000D01*
X130391426Y-83710147D01*
X130130273Y-83818320D01*
X129895241Y-83975363D01*
X129695363Y-84175241D01*
X129540000Y-84407759D01*
X129384637Y-84175241D01*
X129184759Y-83975363D01*
X128949727Y-83818320D01*
X128688574Y-83710147D01*
X128411335Y-83655000D01*
X128128665Y-83655000D01*
X127851426Y-83710147D01*
X127590273Y-83818320D01*
X127355241Y-83975363D01*
X127155363Y-84175241D01*
X127000000Y-84407759D01*
X126844637Y-84175241D01*
X126644759Y-83975363D01*
X126409727Y-83818320D01*
X126148574Y-83710147D01*
X125871335Y-83655000D01*
X125588665Y-83655000D01*
X125311426Y-83710147D01*
X125050273Y-83818320D01*
X124815241Y-83975363D01*
X124615363Y-84175241D01*
X124460000Y-84407759D01*
X124304637Y-84175241D01*
X124104759Y-83975363D01*
X123869727Y-83818320D01*
X123608574Y-83710147D01*
X123331335Y-83655000D01*
X123048665Y-83655000D01*
X122771426Y-83710147D01*
X122510273Y-83818320D01*
X122275241Y-83975363D01*
X122075363Y-84175241D01*
X121918320Y-84410273D01*
X121810147Y-84671426D01*
X121755000Y-84948665D01*
X114960000Y-84948665D01*
X114960000Y-83358816D01*
X205475000Y-83358816D01*
X205475000Y-83661184D01*
X205533989Y-83957743D01*
X205649701Y-84237095D01*
X205817688Y-84488505D01*
X206031495Y-84702312D01*
X206282905Y-84870299D01*
X206562257Y-84986011D01*
X206858816Y-85045000D01*
X207161184Y-85045000D01*
X207457743Y-84986011D01*
X207737095Y-84870299D01*
X207988505Y-84702312D01*
X208202312Y-84488505D01*
X208370299Y-84237095D01*
X208486011Y-83957743D01*
X208545000Y-83661184D01*
X208545000Y-83358816D01*
X208486011Y-83062257D01*
X208370299Y-82782905D01*
X208202312Y-82531495D01*
X207988505Y-82317688D01*
X207737095Y-82149701D01*
X207457743Y-82033989D01*
X207161184Y-81975000D01*
X206858816Y-81975000D01*
X206562257Y-82033989D01*
X206282905Y-82149701D01*
X206031495Y-82317688D01*
X205817688Y-82531495D01*
X205649701Y-82782905D01*
X205533989Y-83062257D01*
X205475000Y-83358816D01*
X114960000Y-83358816D01*
X114960000Y-77890000D01*
X172501928Y-77890000D01*
X172501928Y-79590000D01*
X172514188Y-79714482D01*
X172550498Y-79834180D01*
X172609463Y-79944494D01*
X172688815Y-80041185D01*
X172785506Y-80120537D01*
X172895820Y-80179502D01*
X173015518Y-80215812D01*
X173140000Y-80228072D01*
X174840000Y-80228072D01*
X174964482Y-80215812D01*
X175084180Y-80179502D01*
X175194494Y-80120537D01*
X175291185Y-80041185D01*
X175370537Y-79944494D01*
X175429502Y-79834180D01*
X175453966Y-79753534D01*
X175529731Y-79837588D01*
X175763080Y-80011641D01*
X176025901Y-80136825D01*
X176173110Y-80181476D01*
X176403000Y-80060155D01*
X176403000Y-78867000D01*
X176383000Y-78867000D01*
X176383000Y-78613000D01*
X176403000Y-78613000D01*
X176403000Y-77419845D01*
X176657000Y-77419845D01*
X176657000Y-78613000D01*
X176677000Y-78613000D01*
X176677000Y-78867000D01*
X176657000Y-78867000D01*
X176657000Y-80060155D01*
X176886890Y-80181476D01*
X177034099Y-80136825D01*
X177296920Y-80011641D01*
X177530269Y-79837588D01*
X177725178Y-79621355D01*
X177794805Y-79504466D01*
X177916525Y-79686632D01*
X178123368Y-79893475D01*
X178366589Y-80055990D01*
X178636842Y-80167932D01*
X178923740Y-80225000D01*
X179216260Y-80225000D01*
X179503158Y-80167932D01*
X179773411Y-80055990D01*
X180016632Y-79893475D01*
X180223475Y-79686632D01*
X180340000Y-79512240D01*
X180456525Y-79686632D01*
X180663368Y-79893475D01*
X180906589Y-80055990D01*
X181176842Y-80167932D01*
X181463740Y-80225000D01*
X181756260Y-80225000D01*
X182043158Y-80167932D01*
X182313411Y-80055990D01*
X182556632Y-79893475D01*
X182763475Y-79686632D01*
X182880000Y-79512240D01*
X182996525Y-79686632D01*
X183203368Y-79893475D01*
X183446589Y-80055990D01*
X183716842Y-80167932D01*
X184003740Y-80225000D01*
X184296260Y-80225000D01*
X184583158Y-80167932D01*
X184853411Y-80055990D01*
X185096632Y-79893475D01*
X185303475Y-79686632D01*
X185420000Y-79512240D01*
X185536525Y-79686632D01*
X185743368Y-79893475D01*
X185986589Y-80055990D01*
X186256842Y-80167932D01*
X186543740Y-80225000D01*
X186836260Y-80225000D01*
X187123158Y-80167932D01*
X187393411Y-80055990D01*
X187636632Y-79893475D01*
X187671291Y-79858816D01*
X205475000Y-79858816D01*
X205475000Y-80161184D01*
X205533989Y-80457743D01*
X205649701Y-80737095D01*
X205817688Y-80988505D01*
X206031495Y-81202312D01*
X206282905Y-81370299D01*
X206562257Y-81486011D01*
X206858816Y-81545000D01*
X207161184Y-81545000D01*
X207457743Y-81486011D01*
X207737095Y-81370299D01*
X207988505Y-81202312D01*
X208202312Y-80988505D01*
X208370299Y-80737095D01*
X208486011Y-80457743D01*
X208545000Y-80161184D01*
X208545000Y-79858816D01*
X208486011Y-79562257D01*
X208370299Y-79282905D01*
X208202312Y-79031495D01*
X207988505Y-78817688D01*
X207737095Y-78649701D01*
X207457743Y-78533989D01*
X207161184Y-78475000D01*
X206858816Y-78475000D01*
X206562257Y-78533989D01*
X206282905Y-78649701D01*
X206031495Y-78817688D01*
X205817688Y-79031495D01*
X205649701Y-79282905D01*
X205533989Y-79562257D01*
X205475000Y-79858816D01*
X187671291Y-79858816D01*
X187843475Y-79686632D01*
X188005990Y-79443411D01*
X188117932Y-79173158D01*
X188175000Y-78886260D01*
X188175000Y-78593740D01*
X188117932Y-78306842D01*
X188005990Y-78036589D01*
X187843475Y-77793368D01*
X187636632Y-77586525D01*
X187393411Y-77424010D01*
X187123158Y-77312068D01*
X186836260Y-77255000D01*
X186543740Y-77255000D01*
X186256842Y-77312068D01*
X185986589Y-77424010D01*
X185743368Y-77586525D01*
X185536525Y-77793368D01*
X185420000Y-77967760D01*
X185303475Y-77793368D01*
X185096632Y-77586525D01*
X184853411Y-77424010D01*
X184583158Y-77312068D01*
X184296260Y-77255000D01*
X184003740Y-77255000D01*
X183716842Y-77312068D01*
X183446589Y-77424010D01*
X183203368Y-77586525D01*
X182996525Y-77793368D01*
X182880000Y-77967760D01*
X182763475Y-77793368D01*
X182556632Y-77586525D01*
X182313411Y-77424010D01*
X182043158Y-77312068D01*
X181756260Y-77255000D01*
X181463740Y-77255000D01*
X181176842Y-77312068D01*
X180906589Y-77424010D01*
X180663368Y-77586525D01*
X180456525Y-77793368D01*
X180340000Y-77967760D01*
X180223475Y-77793368D01*
X180016632Y-77586525D01*
X179773411Y-77424010D01*
X179503158Y-77312068D01*
X179216260Y-77255000D01*
X178923740Y-77255000D01*
X178636842Y-77312068D01*
X178366589Y-77424010D01*
X178123368Y-77586525D01*
X177916525Y-77793368D01*
X177794805Y-77975534D01*
X177725178Y-77858645D01*
X177530269Y-77642412D01*
X177296920Y-77468359D01*
X177034099Y-77343175D01*
X176886890Y-77298524D01*
X176657000Y-77419845D01*
X176403000Y-77419845D01*
X176173110Y-77298524D01*
X176025901Y-77343175D01*
X175763080Y-77468359D01*
X175529731Y-77642412D01*
X175453966Y-77726466D01*
X175429502Y-77645820D01*
X175370537Y-77535506D01*
X175291185Y-77438815D01*
X175194494Y-77359463D01*
X175084180Y-77300498D01*
X174964482Y-77264188D01*
X174840000Y-77251928D01*
X173140000Y-77251928D01*
X173015518Y-77264188D01*
X172895820Y-77300498D01*
X172785506Y-77359463D01*
X172688815Y-77438815D01*
X172609463Y-77535506D01*
X172550498Y-77645820D01*
X172514188Y-77765518D01*
X172501928Y-77890000D01*
X114960000Y-77890000D01*
X114960000Y-72112702D01*
X202696903Y-72112702D01*
X202768486Y-72356671D01*
X203023996Y-72477571D01*
X203298184Y-72546300D01*
X203580512Y-72560217D01*
X203860130Y-72518787D01*
X204126292Y-72423603D01*
X204251514Y-72356671D01*
X204323097Y-72112702D01*
X203510000Y-71299605D01*
X202696903Y-72112702D01*
X114960000Y-72112702D01*
X114960000Y-69708665D01*
X121755000Y-69708665D01*
X121755000Y-69991335D01*
X121810147Y-70268574D01*
X121918320Y-70529727D01*
X122075363Y-70764759D01*
X122275241Y-70964637D01*
X122510273Y-71121680D01*
X122771426Y-71229853D01*
X123048665Y-71285000D01*
X123331335Y-71285000D01*
X123608574Y-71229853D01*
X123869727Y-71121680D01*
X124104759Y-70964637D01*
X124304637Y-70764759D01*
X124460000Y-70532241D01*
X124615363Y-70764759D01*
X124815241Y-70964637D01*
X125050273Y-71121680D01*
X125311426Y-71229853D01*
X125588665Y-71285000D01*
X125871335Y-71285000D01*
X126148574Y-71229853D01*
X126409727Y-71121680D01*
X126644759Y-70964637D01*
X126844637Y-70764759D01*
X127000000Y-70532241D01*
X127155363Y-70764759D01*
X127355241Y-70964637D01*
X127590273Y-71121680D01*
X127851426Y-71229853D01*
X128128665Y-71285000D01*
X128411335Y-71285000D01*
X128688574Y-71229853D01*
X128949727Y-71121680D01*
X129184759Y-70964637D01*
X129384637Y-70764759D01*
X129540000Y-70532241D01*
X129695363Y-70764759D01*
X129895241Y-70964637D01*
X130130273Y-71121680D01*
X130391426Y-71229853D01*
X130668665Y-71285000D01*
X130951335Y-71285000D01*
X131228574Y-71229853D01*
X131489727Y-71121680D01*
X131724759Y-70964637D01*
X131924637Y-70764759D01*
X132080000Y-70532241D01*
X132235363Y-70764759D01*
X132435241Y-70964637D01*
X132670273Y-71121680D01*
X132931426Y-71229853D01*
X133208665Y-71285000D01*
X133491335Y-71285000D01*
X133768574Y-71229853D01*
X134029727Y-71121680D01*
X134264759Y-70964637D01*
X134464637Y-70764759D01*
X134620000Y-70532241D01*
X134775363Y-70764759D01*
X134975241Y-70964637D01*
X135210273Y-71121680D01*
X135471426Y-71229853D01*
X135748665Y-71285000D01*
X136031335Y-71285000D01*
X136308574Y-71229853D01*
X136569727Y-71121680D01*
X136804759Y-70964637D01*
X137004637Y-70764759D01*
X137160000Y-70532241D01*
X137315363Y-70764759D01*
X137515241Y-70964637D01*
X137750273Y-71121680D01*
X138011426Y-71229853D01*
X138288665Y-71285000D01*
X138571335Y-71285000D01*
X138848574Y-71229853D01*
X139109727Y-71121680D01*
X139344759Y-70964637D01*
X139544637Y-70764759D01*
X139700000Y-70532241D01*
X139855363Y-70764759D01*
X140055241Y-70964637D01*
X140290273Y-71121680D01*
X140551426Y-71229853D01*
X140828665Y-71285000D01*
X141111335Y-71285000D01*
X141388574Y-71229853D01*
X141649727Y-71121680D01*
X141884759Y-70964637D01*
X142084637Y-70764759D01*
X142240000Y-70532241D01*
X142395363Y-70764759D01*
X142595241Y-70964637D01*
X142830273Y-71121680D01*
X143091426Y-71229853D01*
X143368665Y-71285000D01*
X143651335Y-71285000D01*
X143928574Y-71229853D01*
X144189727Y-71121680D01*
X144424759Y-70964637D01*
X144624637Y-70764759D01*
X144780000Y-70532241D01*
X144935363Y-70764759D01*
X145135241Y-70964637D01*
X145370273Y-71121680D01*
X145631426Y-71229853D01*
X145908665Y-71285000D01*
X146191335Y-71285000D01*
X146468574Y-71229853D01*
X146729727Y-71121680D01*
X146964759Y-70964637D01*
X147164637Y-70764759D01*
X147320000Y-70532241D01*
X147475363Y-70764759D01*
X147675241Y-70964637D01*
X147910273Y-71121680D01*
X148171426Y-71229853D01*
X148448665Y-71285000D01*
X148731335Y-71285000D01*
X149008574Y-71229853D01*
X149269727Y-71121680D01*
X149504759Y-70964637D01*
X149704637Y-70764759D01*
X149861680Y-70529727D01*
X149866067Y-70519135D01*
X149977615Y-70705131D01*
X150166586Y-70913519D01*
X150392580Y-71081037D01*
X150646913Y-71201246D01*
X150780961Y-71241904D01*
X151003000Y-71119915D01*
X151003000Y-69977000D01*
X150983000Y-69977000D01*
X150983000Y-69723000D01*
X151003000Y-69723000D01*
X151003000Y-68580085D01*
X151257000Y-68580085D01*
X151257000Y-69723000D01*
X151277000Y-69723000D01*
X151277000Y-69977000D01*
X151257000Y-69977000D01*
X151257000Y-71119915D01*
X151479039Y-71241904D01*
X151613087Y-71201246D01*
X151867420Y-71081037D01*
X152093414Y-70913519D01*
X152282385Y-70705131D01*
X152393933Y-70519135D01*
X152398320Y-70529727D01*
X152555363Y-70764759D01*
X152755241Y-70964637D01*
X152990273Y-71121680D01*
X153251426Y-71229853D01*
X153528665Y-71285000D01*
X153811335Y-71285000D01*
X154088574Y-71229853D01*
X154349727Y-71121680D01*
X154584759Y-70964637D01*
X154784637Y-70764759D01*
X154940000Y-70532241D01*
X155095363Y-70764759D01*
X155295241Y-70964637D01*
X155530273Y-71121680D01*
X155791426Y-71229853D01*
X156068665Y-71285000D01*
X156351335Y-71285000D01*
X156628574Y-71229853D01*
X156889727Y-71121680D01*
X157124759Y-70964637D01*
X157323357Y-70766039D01*
X157324188Y-70774482D01*
X157360498Y-70894180D01*
X157419463Y-71004494D01*
X157498815Y-71101185D01*
X157595506Y-71180537D01*
X157705820Y-71239502D01*
X157825518Y-71275812D01*
X157950000Y-71288072D01*
X159550000Y-71288072D01*
X159674482Y-71275812D01*
X159794180Y-71239502D01*
X159885832Y-71190512D01*
X202069783Y-71190512D01*
X202111213Y-71470130D01*
X202206397Y-71736292D01*
X202273329Y-71861514D01*
X202517298Y-71933097D01*
X203330395Y-71120000D01*
X203689605Y-71120000D01*
X204502702Y-71933097D01*
X204746671Y-71861514D01*
X204867571Y-71606004D01*
X204936300Y-71331816D01*
X204950217Y-71049488D01*
X204908787Y-70769870D01*
X204813603Y-70503708D01*
X204746671Y-70378486D01*
X204547340Y-70320000D01*
X205571928Y-70320000D01*
X205571928Y-71920000D01*
X205584188Y-72044482D01*
X205620498Y-72164180D01*
X205679463Y-72274494D01*
X205758815Y-72371185D01*
X205855506Y-72450537D01*
X205965820Y-72509502D01*
X206085518Y-72545812D01*
X206210000Y-72558072D01*
X207810000Y-72558072D01*
X207934482Y-72545812D01*
X208054180Y-72509502D01*
X208164494Y-72450537D01*
X208261185Y-72371185D01*
X208340537Y-72274494D01*
X208399502Y-72164180D01*
X208435812Y-72044482D01*
X208448072Y-71920000D01*
X208448072Y-70320000D01*
X208435812Y-70195518D01*
X208399502Y-70075820D01*
X208340537Y-69965506D01*
X208261185Y-69868815D01*
X208164494Y-69789463D01*
X208054180Y-69730498D01*
X207934482Y-69694188D01*
X207810000Y-69681928D01*
X206210000Y-69681928D01*
X206085518Y-69694188D01*
X205965820Y-69730498D01*
X205855506Y-69789463D01*
X205758815Y-69868815D01*
X205679463Y-69965506D01*
X205620498Y-70075820D01*
X205584188Y-70195518D01*
X205571928Y-70320000D01*
X204547340Y-70320000D01*
X204502702Y-70306903D01*
X203689605Y-71120000D01*
X203330395Y-71120000D01*
X202517298Y-70306903D01*
X202273329Y-70378486D01*
X202152429Y-70633996D01*
X202083700Y-70908184D01*
X202069783Y-71190512D01*
X159885832Y-71190512D01*
X159904494Y-71180537D01*
X160001185Y-71101185D01*
X160080537Y-71004494D01*
X160139502Y-70894180D01*
X160175812Y-70774482D01*
X160188072Y-70650000D01*
X160188072Y-70127298D01*
X202696903Y-70127298D01*
X203510000Y-70940395D01*
X204323097Y-70127298D01*
X204251514Y-69883329D01*
X203996004Y-69762429D01*
X203721816Y-69693700D01*
X203439488Y-69679783D01*
X203159870Y-69721213D01*
X202893708Y-69816397D01*
X202768486Y-69883329D01*
X202696903Y-70127298D01*
X160188072Y-70127298D01*
X160188072Y-69050000D01*
X160175812Y-68925518D01*
X160139502Y-68805820D01*
X160080537Y-68695506D01*
X160001185Y-68598815D01*
X159904494Y-68519463D01*
X159794180Y-68460498D01*
X159674482Y-68424188D01*
X159550000Y-68411928D01*
X157950000Y-68411928D01*
X157825518Y-68424188D01*
X157705820Y-68460498D01*
X157595506Y-68519463D01*
X157498815Y-68598815D01*
X157419463Y-68695506D01*
X157360498Y-68805820D01*
X157324188Y-68925518D01*
X157323357Y-68933961D01*
X157124759Y-68735363D01*
X156889727Y-68578320D01*
X156628574Y-68470147D01*
X156351335Y-68415000D01*
X156068665Y-68415000D01*
X155791426Y-68470147D01*
X155530273Y-68578320D01*
X155295241Y-68735363D01*
X155095363Y-68935241D01*
X154940000Y-69167759D01*
X154784637Y-68935241D01*
X154584759Y-68735363D01*
X154349727Y-68578320D01*
X154088574Y-68470147D01*
X153811335Y-68415000D01*
X153528665Y-68415000D01*
X153251426Y-68470147D01*
X152990273Y-68578320D01*
X152755241Y-68735363D01*
X152555363Y-68935241D01*
X152398320Y-69170273D01*
X152393933Y-69180865D01*
X152282385Y-68994869D01*
X152093414Y-68786481D01*
X151867420Y-68618963D01*
X151613087Y-68498754D01*
X151479039Y-68458096D01*
X151257000Y-68580085D01*
X151003000Y-68580085D01*
X150780961Y-68458096D01*
X150646913Y-68498754D01*
X150392580Y-68618963D01*
X150166586Y-68786481D01*
X149977615Y-68994869D01*
X149866067Y-69180865D01*
X149861680Y-69170273D01*
X149704637Y-68935241D01*
X149504759Y-68735363D01*
X149269727Y-68578320D01*
X149008574Y-68470147D01*
X148731335Y-68415000D01*
X148448665Y-68415000D01*
X148171426Y-68470147D01*
X147910273Y-68578320D01*
X147675241Y-68735363D01*
X147475363Y-68935241D01*
X147320000Y-69167759D01*
X147164637Y-68935241D01*
X146964759Y-68735363D01*
X146729727Y-68578320D01*
X146468574Y-68470147D01*
X146191335Y-68415000D01*
X145908665Y-68415000D01*
X145631426Y-68470147D01*
X145370273Y-68578320D01*
X145135241Y-68735363D01*
X144935363Y-68935241D01*
X144780000Y-69167759D01*
X144624637Y-68935241D01*
X144424759Y-68735363D01*
X144189727Y-68578320D01*
X143928574Y-68470147D01*
X143651335Y-68415000D01*
X143368665Y-68415000D01*
X143091426Y-68470147D01*
X142830273Y-68578320D01*
X142595241Y-68735363D01*
X142395363Y-68935241D01*
X142240000Y-69167759D01*
X142084637Y-68935241D01*
X141884759Y-68735363D01*
X141649727Y-68578320D01*
X141388574Y-68470147D01*
X141111335Y-68415000D01*
X140828665Y-68415000D01*
X140551426Y-68470147D01*
X140290273Y-68578320D01*
X140055241Y-68735363D01*
X139855363Y-68935241D01*
X139700000Y-69167759D01*
X139544637Y-68935241D01*
X139344759Y-68735363D01*
X139109727Y-68578320D01*
X138848574Y-68470147D01*
X138571335Y-68415000D01*
X138288665Y-68415000D01*
X138011426Y-68470147D01*
X137750273Y-68578320D01*
X137515241Y-68735363D01*
X137315363Y-68935241D01*
X137160000Y-69167759D01*
X137004637Y-68935241D01*
X136804759Y-68735363D01*
X136569727Y-68578320D01*
X136308574Y-68470147D01*
X136031335Y-68415000D01*
X135748665Y-68415000D01*
X135471426Y-68470147D01*
X135210273Y-68578320D01*
X134975241Y-68735363D01*
X134775363Y-68935241D01*
X134620000Y-69167759D01*
X134464637Y-68935241D01*
X134264759Y-68735363D01*
X134029727Y-68578320D01*
X133768574Y-68470147D01*
X133491335Y-68415000D01*
X133208665Y-68415000D01*
X132931426Y-68470147D01*
X132670273Y-68578320D01*
X132435241Y-68735363D01*
X132235363Y-68935241D01*
X132080000Y-69167759D01*
X131924637Y-68935241D01*
X131724759Y-68735363D01*
X131489727Y-68578320D01*
X131228574Y-68470147D01*
X130951335Y-68415000D01*
X130668665Y-68415000D01*
X130391426Y-68470147D01*
X130130273Y-68578320D01*
X129895241Y-68735363D01*
X129695363Y-68935241D01*
X129540000Y-69167759D01*
X129384637Y-68935241D01*
X129184759Y-68735363D01*
X128949727Y-68578320D01*
X128688574Y-68470147D01*
X128411335Y-68415000D01*
X128128665Y-68415000D01*
X127851426Y-68470147D01*
X127590273Y-68578320D01*
X127355241Y-68735363D01*
X127155363Y-68935241D01*
X127000000Y-69167759D01*
X126844637Y-68935241D01*
X126644759Y-68735363D01*
X126409727Y-68578320D01*
X126148574Y-68470147D01*
X125871335Y-68415000D01*
X125588665Y-68415000D01*
X125311426Y-68470147D01*
X125050273Y-68578320D01*
X124815241Y-68735363D01*
X124615363Y-68935241D01*
X124460000Y-69167759D01*
X124304637Y-68935241D01*
X124104759Y-68735363D01*
X123869727Y-68578320D01*
X123608574Y-68470147D01*
X123331335Y-68415000D01*
X123048665Y-68415000D01*
X122771426Y-68470147D01*
X122510273Y-68578320D01*
X122275241Y-68735363D01*
X122075363Y-68935241D01*
X121918320Y-69170273D01*
X121810147Y-69431426D01*
X121755000Y-69708665D01*
X114960000Y-69708665D01*
X114960000Y-61852285D01*
X115545000Y-61852285D01*
X115545000Y-62607715D01*
X115692377Y-63348628D01*
X115981467Y-64046554D01*
X116401161Y-64674670D01*
X116935330Y-65208839D01*
X117563446Y-65628533D01*
X118261372Y-65917623D01*
X119002285Y-66065000D01*
X119757715Y-66065000D01*
X120498628Y-65917623D01*
X120872640Y-65762702D01*
X197346903Y-65762702D01*
X197418486Y-66006671D01*
X197673996Y-66127571D01*
X197948184Y-66196300D01*
X198230512Y-66210217D01*
X198510130Y-66168787D01*
X198776292Y-66073603D01*
X198901514Y-66006671D01*
X198973097Y-65762702D01*
X198160000Y-64949605D01*
X197346903Y-65762702D01*
X120872640Y-65762702D01*
X121196554Y-65628533D01*
X121824670Y-65208839D01*
X122192997Y-64840512D01*
X196719783Y-64840512D01*
X196761213Y-65120130D01*
X196856397Y-65386292D01*
X196923329Y-65511514D01*
X197167298Y-65583097D01*
X197980395Y-64770000D01*
X198339605Y-64770000D01*
X199152702Y-65583097D01*
X199396671Y-65511514D01*
X199410324Y-65482659D01*
X199545363Y-65684759D01*
X199745241Y-65884637D01*
X199980273Y-66041680D01*
X200241426Y-66149853D01*
X200518665Y-66205000D01*
X200801335Y-66205000D01*
X201078574Y-66149853D01*
X201339727Y-66041680D01*
X201574759Y-65884637D01*
X201774637Y-65684759D01*
X201931680Y-65449727D01*
X202039853Y-65188574D01*
X202095000Y-64911335D01*
X202095000Y-64628665D01*
X202039853Y-64351426D01*
X201931680Y-64090273D01*
X201774637Y-63855241D01*
X201574759Y-63655363D01*
X201339727Y-63498320D01*
X201078574Y-63390147D01*
X200801335Y-63335000D01*
X200518665Y-63335000D01*
X200241426Y-63390147D01*
X199980273Y-63498320D01*
X199745241Y-63655363D01*
X199545363Y-63855241D01*
X199411308Y-64055869D01*
X199396671Y-64028486D01*
X199152702Y-63956903D01*
X198339605Y-64770000D01*
X197980395Y-64770000D01*
X197167298Y-63956903D01*
X196923329Y-64028486D01*
X196802429Y-64283996D01*
X196733700Y-64558184D01*
X196719783Y-64840512D01*
X122192997Y-64840512D01*
X122358839Y-64674670D01*
X122778533Y-64046554D01*
X122890062Y-63777298D01*
X197346903Y-63777298D01*
X198160000Y-64590395D01*
X198973097Y-63777298D01*
X198901514Y-63533329D01*
X198646004Y-63412429D01*
X198371816Y-63343700D01*
X198089488Y-63329783D01*
X197809870Y-63371213D01*
X197543708Y-63466397D01*
X197418486Y-63533329D01*
X197346903Y-63777298D01*
X122890062Y-63777298D01*
X123067623Y-63348628D01*
X123215000Y-62607715D01*
X123215000Y-61852285D01*
X204445000Y-61852285D01*
X204445000Y-62607715D01*
X204592377Y-63348628D01*
X204881467Y-64046554D01*
X205301161Y-64674670D01*
X205835330Y-65208839D01*
X206463446Y-65628533D01*
X207161372Y-65917623D01*
X207902285Y-66065000D01*
X208657715Y-66065000D01*
X209398628Y-65917623D01*
X210096554Y-65628533D01*
X210724670Y-65208839D01*
X211258839Y-64674670D01*
X211678533Y-64046554D01*
X211967623Y-63348628D01*
X212115000Y-62607715D01*
X212115000Y-61852285D01*
X211967623Y-61111372D01*
X211678533Y-60413446D01*
X211258839Y-59785330D01*
X210724670Y-59251161D01*
X210096554Y-58831467D01*
X209398628Y-58542377D01*
X208657715Y-58395000D01*
X207902285Y-58395000D01*
X207161372Y-58542377D01*
X206463446Y-58831467D01*
X205835330Y-59251161D01*
X205301161Y-59785330D01*
X204881467Y-60413446D01*
X204592377Y-61111372D01*
X204445000Y-61852285D01*
X123215000Y-61852285D01*
X123067623Y-61111372D01*
X122778533Y-60413446D01*
X122358839Y-59785330D01*
X121824670Y-59251161D01*
X121196554Y-58831467D01*
X120498628Y-58542377D01*
X119757715Y-58395000D01*
X119002285Y-58395000D01*
X118261372Y-58542377D01*
X117563446Y-58831467D01*
X116935330Y-59251161D01*
X116401161Y-59785330D01*
X115981467Y-60413446D01*
X115692377Y-61111372D01*
X115545000Y-61852285D01*
X114960000Y-61852285D01*
X114960000Y-57810000D01*
X212700001Y-57810000D01*
X212700000Y-125070000D01*
%TD*%
M02*
